{"glyphs":{"0":{"ha":1186,"x_min":-65,"x_max":1269,"o":"m 1269 676 q 1065 169 1269 393 q 592 -54 861 -54 q 422 -8 500 -54 q 285 110 368 25 l 204 122 q 194 132 194 124 q 203 142 193 139 q 282 199 282 161 q 247 218 282 218 q 173 195 232 218 q 76 172 114 172 q 38 177 63 172 q -3 182 14 182 q -47 176 -24 182 q -61 181 -58 174 q -57 194 -65 189 q 18 228 -11 228 q 132 263 132 228 q 103 308 132 289 q 39 326 74 326 q 11 322 24 326 q -1 329 1 319 q 6 342 -4 339 q 58 350 39 350 q 143 333 92 350 q 228 317 194 317 q 285 342 249 317 q 314 465 292 399 q 232 532 285 514 q 142 549 208 540 q 72 571 90 554 q 69 585 65 578 q 83 588 74 592 q 133 581 103 581 q 198 594 160 581 q 261 608 236 608 q 354 594 308 608 q 399 686 367 622 q 317 742 372 699 q 238 771 278 771 q 184 763 214 771 q 151 754 154 754 q 143 764 143 754 q 149 774 143 771 q 272 808 222 808 q 344 801 301 808 q 414 794 386 794 q 522 829 460 794 q 931 1014 718 1014 q 1172 921 1075 1014 q 1269 676 1269 828 m 953 644 q 935 697 953 672 q 897 721 918 721 q 736 580 818 721 q 654 314 654 439 q 715 236 654 236 q 851 331 808 236 q 754 367 778 333 q 753 379 749 374 q 765 382 757 385 q 790 378 778 378 q 872 417 832 378 q 910 479 910 451 q 849 515 910 515 q 785 504 821 515 q 771 507 775 501 q 772 519 767 513 q 857 568 790 547 q 946 607 929 590 q 953 644 953 628 z "},"1":{"ha":857,"x_min":-26,"x_max":1008,"o":"m 1003 972 q 833 503 974 929 q 690 -1 686 63 q 689 -10 692 -7 q 681 -12 686 -12 q 635 -10 663 -10 q 482 -17 594 -10 q 315 -25 369 -25 q 263 -24 286 -25 q 256 -8 246 -22 q 297 58 278 25 q 363 213 343 140 q 333 222 350 222 q 231 189 299 222 q 117 156 164 156 q 75 154 106 156 q 39 154 56 153 q -17 165 17 157 q -25 176 -26 168 q -12 185 -22 185 q 113 207 53 181 q 213 264 143 219 q 314 315 274 303 q 186 332 281 324 q 90 357 117 339 q 85 369 82 363 q 97 375 88 376 q 150 367 138 367 q 247 386 189 367 q 342 406 304 406 q 410 399 364 406 l 472 575 l 246 451 q 231 456 236 447 l 156 574 q 83 613 146 576 q -4 636 35 642 q -17 643 -14 635 q -11 656 -19 650 q 39 669 13 669 q 89 664 49 669 q 138 667 115 661 q 382 793 201 693 q 350 793 364 793 q 333 792 336 792 q 264 805 306 792 q 193 818 222 818 q 143 804 176 818 q 131 808 133 800 q 136 824 126 818 q 206 843 168 843 q 299 854 257 843 q 350 889 350 867 q 318 908 350 907 q 271 907 294 908 q 226 918 246 910 q 219 931 217 922 q 232 936 222 938 q 260 933 246 933 q 333 946 285 933 q 411 958 381 958 q 492 937 444 958 q 567 913 540 915 l 685 985 l 693 985 q 839 971 763 971 q 992 988 915 971 q 1004 985 1000 989 q 1003 972 1008 979 z "},"2":{"ha":1060,"x_min":-49,"x_max":1161,"o":"m 1161 725 q 1018 454 1161 594 q 779 269 940 376 q 1038 274 931 261 q 1049 269 1046 275 q 1047 258 1053 265 q 924 1 965 149 q 914 -7 922 -7 l 136 -18 q 125 -14 128 -18 q 128 -3 122 -8 q 150 31 140 14 q 182 107 174 71 q 94 171 138 122 q 19 211 58 211 q -32 200 -6 211 q -37 199 -35 199 q -46 206 -44 199 q -42 217 -49 213 q 43 244 0 244 q 111 233 69 244 q 175 221 153 221 q 213 226 193 221 q 401 324 318 278 q 653 500 601 435 q 611 514 632 514 q 543 482 586 514 q 461 432 490 442 q 369 418 421 418 q 328 419 356 418 q 286 421 300 421 q 200 407 238 421 q 188 413 190 403 q 194 426 185 422 q 365 461 231 440 q 440 517 440 474 q 332 556 440 556 q 217 603 276 556 q 213 611 213 606 q 222 621 213 621 q 228 619 225 621 q 322 589 275 589 q 397 609 333 589 q 494 629 460 629 q 569 619 524 629 q 642 610 614 610 q 692 628 669 610 q 715 675 715 647 q 614 725 715 725 q 424 672 544 725 q 413 672 417 669 q 410 682 408 675 l 415 718 q 331 753 363 753 q 235 738 294 753 q 139 722 176 722 q 85 731 126 722 l 83 731 q 81 732 82 731 q 76 732 78 732 q 71 742 71 735 q 78 751 72 749 q 86 751 83 753 q 224 795 149 753 q 350 838 299 838 q 411 835 361 838 l 415 904 q 421 913 415 907 q 772 1007 642 1007 q 1039 931 924 1007 q 1161 725 1161 847 z "},"3":{"ha":1043,"x_min":-69,"x_max":1144,"o":"m 1144 761 q 1063 599 1144 675 q 907 488 1033 572 q 1031 317 1031 429 q 844 61 1031 167 q 467 -36 672 -36 q 286 -28 346 -36 q 113 22 200 -17 q 107 36 103 24 l 156 132 q 78 167 111 167 q 18 161 51 167 q -58 151 -33 154 q -68 160 -68 150 q -60 171 -69 169 q 50 213 -15 179 q 153 240 106 240 q 213 231 171 240 l 246 283 q 258 288 250 290 q 464 246 372 246 q 585 314 585 246 q 475 372 585 372 q 347 342 389 372 q 335 340 340 336 q 332 353 329 344 l 364 482 q 300 469 339 485 q 239 453 261 453 q 125 465 181 453 q 117 476 115 468 q 129 485 119 486 q 246 525 246 475 q 192 547 246 547 q 144 543 174 547 q 94 539 114 539 q 25 551 75 539 q 18 563 15 554 q 29 571 19 572 q 56 569 42 569 q 163 588 90 569 q 281 607 235 607 q 396 596 326 607 q 508 585 465 585 q 649 610 585 585 q 721 681 721 638 q 690 724 721 708 q 622 739 660 739 q 415 678 543 739 q 401 685 403 674 l 397 761 q 331 785 372 765 q 267 800 296 800 q 190 796 211 800 q 178 803 181 794 q 185 815 175 813 q 269 843 226 829 q 353 857 313 857 q 388 864 363 857 l 388 906 q 394 915 388 914 q 592 971 493 943 q 822 1001 715 1001 q 1040 940 946 1001 q 1144 761 1144 871 z "},"4":{"ha":1119,"x_min":-101,"x_max":1221,"o":"m 1218 983 l 1013 399 q 1133 415 1094 401 q 1146 413 1142 418 q 1144 400 1149 407 q 1049 156 1111 349 q 1039 149 1046 149 l 942 146 q 913 -18 906 39 q 910 -28 913 -25 q 901 -29 907 -31 q 728 -14 811 -14 q 476 -32 571 -14 q 464 -26 467 -33 q 469 -12 461 -18 q 514 24 494 3 q 571 139 561 74 q 328 153 451 153 q 153 146 219 153 q 143 149 146 144 q 143 158 140 151 l 172 256 q 88 301 138 267 q 13 328 50 328 q -83 315 -50 328 q -97 319 -93 311 q -93 333 -101 326 q 13 376 -39 376 q 51 372 24 376 q 92 368 79 368 q 165 389 128 368 q 201 438 201 410 q 161 478 201 472 q 71 488 117 482 q 63 499 61 490 q 75 507 65 507 q 177 534 106 506 q 294 563 249 563 q 349 557 317 563 l 492 700 q 406 682 422 682 q 308 699 367 682 q 210 715 250 715 q 151 703 183 715 q 118 692 119 692 q 108 701 108 692 q 115 713 108 708 q 294 750 179 750 q 315 750 301 750 q 335 750 329 750 q 421 792 421 750 q 356 821 421 819 q 244 836 271 822 q 238 849 236 840 q 250 856 240 857 q 285 853 276 853 q 389 876 325 853 q 494 899 453 899 q 578 881 525 899 q 665 865 631 863 q 714 913 701 899 q 763 985 754 954 q 774 990 764 990 q 1207 996 1049 979 q 1218 993 1215 997 q 1218 983 1221 990 m 699 611 q 460 388 608 526 q 564 386 522 386 q 628 388 606 386 q 699 611 638 418 z "},"5":{"ha":1043,"x_min":-37,"x_max":1238,"o":"m 1235 964 q 1135 708 1196 897 q 1124 701 1132 699 q 885 711 1004 711 q 736 706 803 711 l 706 646 q 822 651 751 651 q 997 575 925 651 q 1069 400 1069 499 q 864 101 1069 249 q 436 -47 658 -47 q 150 29 294 -47 q 144 39 144 33 q 146 44 144 42 l 199 132 l 179 132 q 143 142 165 132 q 106 151 121 151 q 64 144 78 151 q 50 144 54 140 q 50 160 46 150 q 101 181 54 169 q 144 201 144 190 q 97 219 144 218 q 33 218 65 219 q -28 228 0 221 q -35 239 -37 231 q -24 247 -33 249 q 10 244 -7 244 q 99 262 43 244 q 192 279 156 279 q 333 250 247 279 q 472 221 418 221 q 611 255 543 221 q 679 328 679 289 q 633 399 679 374 q 536 421 593 421 q 390 374 463 421 q 376 376 381 369 l 297 494 q 256 506 286 506 q 210 503 243 506 q 160 500 178 500 q 71 526 99 500 q 68 539 64 533 q 82 543 72 546 q 117 539 100 539 q 200 563 151 539 q 278 588 249 588 q 321 583 294 588 l 382 710 l 350 710 q 310 699 336 710 q 269 689 285 689 q 154 704 214 689 q 146 715 144 707 q 157 724 147 724 q 278 776 278 726 q 247 803 278 799 q 192 804 239 804 q 147 800 175 804 q 104 796 118 796 q 68 801 85 796 q 60 813 60 804 q 67 822 60 819 q 75 821 71 822 q 170 844 108 821 q 272 868 232 868 q 333 862 297 868 q 392 856 368 856 q 458 868 421 856 l 499 963 q 508 968 501 968 l 1225 979 q 1235 975 1232 979 q 1235 964 1238 971 z "},"6":{"ha":1051,"x_min":-87,"x_max":1281,"o":"m 1274 943 q 1046 700 1163 899 q 1032 697 1040 693 q 894 728 971 728 q 629 607 722 728 l 638 596 q 808 632 724 632 q 972 567 901 632 q 1042 417 1042 503 q 861 89 1042 235 q 503 -47 690 -47 q 347 -15 415 -47 q 215 76 288 11 q 131 88 183 88 q 53 96 78 88 q 44 107 43 99 q 54 115 44 114 q 164 165 96 118 q 136 265 146 211 q 94 263 118 263 q 35 277 74 263 q -31 289 -4 292 q -69 281 -43 288 q -83 283 -79 276 q -81 296 -87 289 q 44 346 -58 317 q 140 414 131 369 q 207 575 161 506 q 179 578 192 578 q 151 574 168 578 q 124 571 133 571 q 57 588 97 571 q -10 604 17 604 q -68 596 -43 604 q -82 606 -82 589 q -76 615 -82 613 q 7 638 -29 638 q 42 633 17 638 q 82 629 67 629 q 160 663 160 629 q 133 710 160 693 q 72 728 107 728 q 24 722 38 728 q 11 728 14 718 q 18 742 8 738 q 81 756 58 756 q 145 744 106 756 q 208 733 185 733 q 256 747 233 733 q 278 779 278 760 q 232 801 278 801 q 219 810 222 801 q 226 821 217 818 q 263 826 249 826 q 314 814 281 826 q 379 807 343 803 q 532 915 456 861 q 856 990 658 990 q 1035 973 925 990 q 1182 956 1144 956 q 1265 964 1254 956 q 1281 953 1281 972 q 1274 943 1281 946 m 711 378 q 643 415 711 415 q 549 384 597 415 q 500 329 500 353 q 531 269 500 292 q 603 246 561 246 q 654 272 654 246 q 625 297 654 292 q 567 321 585 306 q 564 333 560 326 q 576 338 567 339 q 613 335 592 335 q 711 378 711 335 z "},"7":{"ha":983,"x_min":-22,"x_max":1160,"o":"m 1157 975 q 1133 892 1144 935 q 1104 685 1110 788 q 1100 676 1104 679 q 657 225 810 500 q 563 -15 593 110 q 553 -25 560 -25 l 136 -25 q 126 -11 121 -25 q 160 83 133 14 q 44 122 94 122 q 10 116 29 122 q -12 110 -10 110 q -22 119 -22 110 q -17 128 -22 124 q 94 161 28 161 q 193 183 176 161 q 306 374 215 229 q 203 360 253 365 q 157 360 181 357 q 119 363 126 363 q 38 347 88 363 q 22 357 22 343 q 30 367 22 363 q 164 408 38 371 q 257 465 257 435 q 188 515 257 508 q 75 524 131 519 q 67 535 65 526 q 78 543 68 543 q 147 551 103 543 q 217 560 190 560 q 311 523 254 560 q 401 488 368 486 q 629 692 506 600 q 193 686 392 699 q 182 689 185 686 q 182 700 179 693 l 236 810 q 204 815 215 815 q 156 810 188 815 q 100 804 124 804 q 61 807 82 804 q 51 817 51 808 q 61 826 51 825 q 170 863 108 831 q 276 899 232 894 l 324 986 q 335 990 328 990 q 697 971 533 971 q 1146 988 961 971 q 1157 985 1153 988 q 1157 975 1160 981 z "},"8":{"ha":1153,"x_min":-100,"x_max":1292,"o":"m 1292 789 q 1057 496 1292 631 q 1167 322 1167 403 q 976 51 1167 160 q 581 -50 801 -50 q 318 -1 425 -50 q 160 176 192 57 q 110 171 131 171 q 47 185 85 171 q -14 199 10 199 q -40 196 -26 199 q -53 203 -50 194 q -47 215 -56 210 q 6 226 -28 226 q 36 225 17 226 q 64 225 56 225 q 114 264 114 225 q 88 282 114 282 q 35 274 69 282 q -19 265 0 265 q -90 276 -47 265 q -97 288 -100 279 q -85 296 -94 296 q 78 344 -26 292 q 240 396 182 396 q 382 504 290 454 q 354 538 367 522 q 265 582 311 553 q 208 604 232 604 q 147 593 168 604 q 140 592 144 592 q 131 601 131 592 q 135 610 131 606 q 240 647 164 633 q 297 686 297 658 q 277 723 297 708 q 232 738 257 738 q 167 726 207 738 q 101 715 128 715 q 65 722 100 715 q 57 733 56 724 q 67 742 57 742 q 164 765 121 742 q 242 804 224 799 q 338 819 267 811 q 428 847 390 826 q 642 978 524 940 q 892 1010 740 1010 q 1158 967 1056 1010 q 1292 789 1292 910 m 897 754 q 878 790 897 776 q 835 803 860 803 q 738 775 779 803 q 690 694 690 744 q 716 633 690 658 q 776 607 742 607 q 858 658 858 607 q 810 689 858 689 q 790 686 799 689 q 775 696 775 682 q 782 706 775 701 q 858 725 801 718 q 897 754 897 729 m 736 333 q 676 378 736 378 q 583 349 626 378 q 540 282 540 319 q 569 226 540 247 q 638 206 599 206 q 690 236 690 206 q 640 251 690 261 q 626 257 631 250 q 632 271 624 265 q 699 294 636 274 q 736 333 736 307 z "},"9":{"ha":1092,"x_min":-11,"x_max":1225,"o":"m 1225 683 q 1120 351 1225 515 q 846 85 1015 186 q 472 -22 667 -22 q 201 50 350 -22 q 197 64 192 56 l 253 149 q 139 211 203 211 q 50 193 81 211 q 35 204 35 186 q 42 213 35 210 q 172 240 119 240 q 307 229 256 240 l 347 276 q 360 279 353 285 q 511 254 418 254 q 703 322 632 254 l 694 335 q 606 322 657 322 q 413 385 496 322 q 322 401 371 386 q 236 415 272 415 q 190 414 197 415 q 176 419 181 413 q 182 433 174 428 q 263 449 204 447 q 343 456 329 451 q 324 572 317 511 q 288 578 301 578 q 222 562 269 578 q 143 546 174 546 q 76 563 124 546 q 69 571 69 565 q 79 582 69 582 q 85 581 82 582 q 131 572 104 572 q 210 615 210 572 q 135 651 210 651 q 103 647 129 651 q 60 642 76 642 q -1 656 39 642 q -8 668 -11 660 q 4 675 -7 676 q 64 669 35 669 q 128 688 81 669 q 207 706 176 706 q 270 690 232 706 q 342 678 308 675 q 424 800 365 719 q 324 850 381 850 q 294 847 313 850 q 265 844 276 844 q 167 861 215 844 q 160 874 157 864 q 172 881 163 882 q 199 879 186 879 q 297 901 235 879 q 399 922 358 922 q 474 910 429 922 q 546 897 519 899 q 675 961 592 926 q 900 1013 804 1013 q 1133 917 1042 1013 q 1225 683 1225 821 m 854 653 q 835 714 854 688 q 783 740 817 740 q 698 708 738 740 q 658 642 658 675 q 732 593 658 593 q 813 613 771 593 q 854 653 854 632 z "}," ":{"ha":694,"x_min":0,"x_max":0,"o":""},"!":{"ha":654,"x_min":-64,"x_max":786,"o":"m 783 1001 q 571 335 744 918 q 560 329 568 326 q 251 332 449 343 q 240 335 244 331 q 240 344 238 339 l 256 385 q 167 408 235 389 q 78 424 117 424 q 35 417 60 424 q 21 422 25 414 q 26 436 18 431 q 147 457 69 457 q 228 470 188 457 q 279 500 269 483 l 304 588 q 220 634 278 619 q 153 663 163 649 q 151 675 147 669 q 164 678 154 681 q 189 672 182 672 q 260 693 215 672 q 340 708 300 713 l 369 793 q 328 789 349 789 q 245 813 294 789 q 181 836 196 836 q 125 831 144 836 q 110 840 110 826 q 117 850 110 847 q 178 865 150 865 q 221 860 194 865 q 256 854 247 854 q 310 878 310 854 q 281 907 310 907 q 254 903 267 907 q 240 899 242 899 q 231 910 231 899 q 236 919 231 915 q 283 935 263 935 q 340 917 307 935 q 396 899 374 899 q 424 910 407 899 l 460 1010 q 468 1015 460 1015 q 544 1024 514 1024 q 612 1014 569 1024 q 681 1004 654 1004 q 772 1015 726 1004 q 783 1013 781 1017 q 783 1001 786 1008 m 544 258 l 454 -11 q 444 -19 451 -19 l 144 -17 q 135 -1 126 -17 l 165 69 l 142 69 q 79 89 117 69 q 15 108 42 108 q -46 88 -22 108 q -53 85 -49 85 q -64 96 -64 85 q -60 104 -64 101 q 28 140 -15 140 q 62 138 38 140 q 97 135 86 135 q 138 161 138 135 q 93 179 138 169 q 21 213 40 190 q 17 222 17 217 q 26 232 17 232 q 33 229 31 232 q 81 210 60 210 q 121 215 97 210 q 160 219 144 219 q 213 210 176 219 l 233 268 q 243 275 236 275 l 535 271 q 544 258 549 271 z "},"\"":{"ha":517,"x_min":85,"x_max":592,"o":"m 588 949 l 481 629 q 471 621 478 621 l 331 621 q 321 635 318 621 l 386 954 q 396 961 388 961 l 578 961 q 588 949 592 961 m 354 949 l 247 629 q 238 621 244 621 l 97 621 q 88 635 85 621 l 153 954 q 163 961 154 961 l 344 961 q 354 949 358 961 z "},"#":{"ha":799,"x_min":-92,"x_max":910,"o":"m 903 724 l 856 590 q 839 576 850 576 l 704 576 l 675 504 l 797 504 q 813 483 819 504 l 765 350 q 747 336 758 336 l 614 336 l 535 124 q 518 111 531 111 l 382 111 q 367 135 358 111 l 442 336 l 372 336 l 292 124 q 275 111 288 111 l 139 111 q 124 135 114 111 l 139 171 q 124 200 140 190 q 86 207 107 210 q 71 215 71 204 q 79 226 71 222 q 135 242 99 238 q 168 260 163 246 l 199 336 l 78 336 q 63 358 54 336 l 99 450 q 50 488 93 453 q -14 511 21 511 q -76 496 -31 511 q -89 501 -86 492 q -82 515 -92 513 q -3 533 -28 533 q 94 519 36 533 q 189 506 151 506 q 228 506 207 506 q 263 504 247 504 l 289 576 l 169 576 q 161 588 163 576 q 163 597 160 597 q 164 590 164 596 l 174 624 q 81 663 153 663 q 63 663 75 663 q 43 663 50 663 q -51 683 -18 663 q -56 697 -60 689 q -43 703 -53 704 q 4 697 -15 697 q 85 719 33 697 q 172 740 136 740 q 221 739 200 740 l 353 744 l 383 831 q 310 840 375 839 q 261 847 281 842 q 254 858 253 850 q 265 867 256 865 q 341 888 304 869 q 413 908 378 907 l 431 963 q 449 975 438 975 l 585 975 q 600 954 607 975 l 524 744 l 592 744 l 672 964 q 690 975 678 975 l 828 975 q 843 953 851 975 l 767 744 l 888 744 q 903 724 910 744 m 532 576 l 463 576 l 433 504 l 504 504 l 532 576 z "},"$":{"ha":739,"x_min":-90,"x_max":846,"o":"m 842 835 l 750 626 q 735 624 746 615 q 658 653 697 653 q 542 617 542 653 q 594 567 542 597 q 692 503 671 521 q 744 406 744 458 q 621 203 744 293 q 417 101 538 143 q 363 -22 383 33 q 353 -29 360 -29 l 181 -26 q 169 -19 171 -26 q 178 -6 168 -12 q 201 17 189 1 q 256 107 232 50 q 81 131 193 129 q 71 147 64 131 l 115 219 q 60 213 46 213 q 24 223 46 213 q -12 233 3 233 q -74 225 -58 233 q -81 224 -76 224 q -90 233 -90 224 q -85 242 -90 238 q 0 264 -50 264 q 99 303 79 264 q 40 340 82 338 q 31 349 31 342 q 39 360 29 357 q 71 364 56 364 q 122 353 92 364 q 167 340 151 342 l 193 381 q 206 385 196 388 q 340 342 299 342 q 414 385 414 342 q 371 438 414 417 q 286 479 328 458 q 228 563 238 510 l 213 563 q 191 556 208 563 q 163 549 174 549 q 117 558 146 549 q 71 567 89 567 q 18 556 44 567 q 13 554 15 554 q 3 564 3 554 q 8 574 3 569 q 82 597 44 597 q 106 594 92 597 q 129 592 121 592 q 172 618 172 592 q 97 647 172 656 q 85 654 88 646 q 94 667 82 663 q 122 672 106 672 q 179 663 143 672 q 226 653 215 653 q 242 658 236 653 q 296 743 264 704 q 206 779 254 779 q 157 774 174 779 q 144 779 147 769 q 150 793 140 790 q 238 811 203 811 q 279 811 254 811 q 321 810 306 810 q 364 818 331 810 q 425 846 394 832 q 529 876 486 871 q 546 946 538 899 q 496 968 546 967 q 485 975 486 967 q 494 988 485 985 q 557 1001 533 1001 q 599 996 574 1001 q 639 990 624 990 q 703 1001 671 990 q 714 1001 711 1004 q 715 989 718 997 q 701 885 704 956 q 839 849 797 869 q 842 835 846 843 z "},"%":{"ha":1204,"x_min":-35,"x_max":1274,"o":"m 1244 406 q 1124 106 1244 239 q 850 -26 1003 -26 q 692 35 781 -26 q 638 49 672 46 q 585 57 597 53 q 575 69 574 61 q 586 78 576 78 q 654 85 638 81 q 689 121 689 93 q 667 151 689 140 q 621 161 644 161 q 608 169 611 161 q 614 182 606 176 q 647 189 615 182 q 683 214 672 193 q 811 460 717 351 q 1067 590 925 590 q 1190 533 1135 590 q 1244 406 1244 475 m 1268 947 q 958 660 1108 807 q 350 -19 599 306 q 339 -22 346 -25 q 231 -6 275 -6 q 199 -10 215 -6 q 179 -15 182 -15 q 169 -6 169 -15 q 174 3 169 -1 l 254 82 q 200 126 240 89 q 144 151 172 151 q 103 140 125 151 q 88 151 88 132 q 93 161 88 158 q 154 181 131 181 q 209 167 176 181 q 261 154 242 154 q 294 172 294 154 q 274 189 290 189 q 261 197 264 189 q 268 210 260 204 q 349 208 293 222 q 411 272 379 242 q 331 289 381 276 q 324 301 324 294 q 333 308 324 307 q 393 315 365 311 q 490 351 460 328 q 842 718 747 608 q 733 776 783 738 q 611 524 707 649 q 372 376 497 376 q 224 460 293 376 q 179 460 204 456 q 143 464 149 464 q 115 458 128 464 q 101 461 106 454 q 104 475 97 468 q 154 499 117 486 q 188 524 183 510 q 181 594 181 549 q 113 578 165 589 q 47 576 99 575 q -18 567 8 576 q -35 575 -35 560 q -29 585 -35 581 q 68 617 -1 607 q 122 647 122 624 q 60 685 122 672 q 51 694 50 686 q 63 704 53 703 q 111 694 79 706 q 163 683 143 683 q 211 717 182 683 q 281 831 228 753 q 182 869 238 869 q 147 864 163 869 q 133 874 133 858 q 140 883 133 881 q 210 897 181 897 q 246 894 225 897 q 281 892 267 892 q 336 906 294 892 q 561 999 450 999 q 675 961 621 999 q 768 890 722 926 q 907 853 829 853 q 988 881 942 853 q 1029 919 1029 906 q 983 949 1029 938 q 978 960 976 953 q 988 967 979 965 q 1067 975 1050 975 q 1166 969 1107 975 q 1261 964 1225 964 q 1272 958 1269 964 q 1268 947 1274 953 m 1046 358 q 1038 376 1046 368 q 1021 385 1029 385 q 921 310 971 385 q 875 201 875 242 q 907 176 875 176 q 1003 239 957 176 q 1046 358 1046 297 m 550 772 q 536 803 550 803 q 429 733 478 803 q 388 631 388 674 q 418 601 388 601 q 505 657 460 601 q 550 772 550 713 z "},"&":{"ha":1057,"x_min":-39,"x_max":1190,"o":"m 1183 574 q 1084 422 1158 550 q 969 257 1010 294 q 1071 103 988 172 q 1068 85 1083 93 l 775 -74 q 760 -65 763 -81 q 724 32 756 -40 q 579 -25 613 -14 q 417 -51 494 -51 q 238 -2 321 -51 q 129 117 154 47 q 33 158 85 158 q -21 149 1 158 q -28 147 -24 147 q -36 153 -35 147 q -33 165 -39 160 q 74 201 -11 185 q 143 250 143 215 q 72 308 143 296 q 63 318 63 310 q 72 328 63 326 q 160 329 119 331 q 210 408 178 358 q 156 460 171 449 q 90 482 125 482 q 44 479 54 482 q 31 485 35 476 q 38 497 28 494 q 100 514 74 514 q 200 497 139 514 q 278 479 261 479 q 435 557 336 513 q 425 590 431 567 q 351 608 396 592 q 276 626 307 625 q 267 633 267 626 q 274 646 267 640 q 339 660 292 656 q 401 678 381 663 l 394 760 q 315 753 353 753 q 272 763 297 753 q 226 774 247 774 q 181 768 208 774 q 168 774 171 767 q 174 788 165 782 q 242 808 221 808 q 315 807 326 808 q 354 840 354 811 q 331 877 354 864 q 279 890 308 890 q 254 888 265 890 q 242 894 243 885 q 249 907 239 903 q 311 921 289 921 q 384 910 340 921 q 458 899 428 899 q 497 911 463 899 q 772 1010 638 1010 q 958 958 883 1010 q 1039 811 1039 903 q 946 656 1039 744 q 792 526 869 592 l 850 440 q 926 531 926 486 q 916 540 926 538 q 897 544 906 542 q 886 553 888 547 q 893 564 885 558 q 974 578 918 576 q 1078 576 925 576 q 1174 590 1074 576 q 1186 586 1183 592 q 1183 574 1190 579 m 792 788 q 749 811 792 811 q 675 768 675 811 q 707 696 675 731 q 792 788 792 739 m 606 210 q 567 250 593 250 q 541 246 561 250 q 503 243 521 242 q 493 251 493 243 q 501 263 492 260 q 549 310 549 279 q 528 365 549 338 q 450 236 450 294 q 473 197 450 211 q 525 183 496 183 q 606 210 578 183 z "},"'":{"ha":283,"x_min":85,"x_max":358,"o":"m 354 949 l 247 629 q 238 621 244 621 l 97 621 q 88 635 85 621 l 153 954 q 163 961 154 961 l 344 961 q 354 949 358 961 z "},"(":{"ha":554,"x_min":-53,"x_max":803,"o":"m 792 1013 q 486 532 589 825 q 403 56 403 296 q 413 -57 403 -7 q 404 -68 414 -68 q 304 -104 374 -69 q 213 -146 231 -143 q 203 -143 208 -149 q 156 60 169 -100 q 104 88 136 85 q 50 93 56 90 q 40 103 40 96 q 50 113 40 110 q 98 136 72 118 q 157 164 124 154 l 172 269 q 96 318 154 278 q 19 346 58 346 q -36 336 -7 346 q -49 340 -46 333 q -44 354 -53 349 q 31 383 0 383 q 83 376 51 383 q 133 369 114 369 q 193 417 171 369 q 139 436 178 432 q 131 446 129 438 q 140 456 131 453 q 215 489 161 461 q 265 607 231 525 q 121 646 221 631 q 111 656 111 647 q 121 665 111 664 q 207 679 190 679 q 293 699 242 679 q 178 743 231 719 q 171 756 169 749 q 183 761 174 763 q 218 757 189 761 q 258 754 242 754 q 367 785 308 754 q 468 924 411 857 q 431 940 454 933 q 399 951 407 946 q 393 963 392 956 q 406 969 396 971 q 533 1001 432 968 l 629 1082 q 639 1085 632 1088 l 786 1029 q 792 1013 803 1022 z "},")":{"ha":586,"x_min":-12,"x_max":656,"o":"m 656 856 q 511 282 656 565 q 207 -135 396 60 q 196 -136 203 -140 l 51 -69 q 49 -54 42 -65 q 110 33 68 -32 q 85 67 108 58 q 47 81 50 78 q 43 94 39 88 q 57 99 47 101 q 72 97 64 97 q 178 169 139 97 q 107 201 158 175 q 36 221 68 221 q 11 215 24 221 q -4 210 -1 210 q -12 219 -12 210 q -7 229 -12 226 q 61 249 35 249 q 107 246 79 249 q 151 243 135 243 q 247 297 197 243 q 306 425 282 351 q 297 435 306 435 q 255 419 289 435 q 197 403 221 403 q 171 406 201 403 q 136 403 150 408 q 124 407 126 399 q 126 420 119 415 q 193 433 133 425 q 235 475 235 440 q 217 506 235 494 q 175 518 199 518 q 150 513 164 518 q 133 507 136 507 q 125 518 125 507 q 131 528 125 524 q 186 543 154 543 q 240 536 207 543 q 294 529 274 529 q 353 550 329 529 q 403 688 385 614 q 374 682 383 682 q 290 710 342 682 q 196 733 239 738 q 185 740 186 732 q 193 753 183 750 q 275 769 240 769 q 319 767 293 769 q 363 764 346 764 q 415 799 386 764 q 433 914 433 847 q 429 996 433 896 q 435 1007 429 1004 q 608 1088 518 1039 q 624 1081 621 1093 q 656 856 656 936 z "},"*":{"ha":496,"x_min":46,"x_max":531,"o":"m 528 788 l 399 744 l 499 689 q 429 593 483 642 q 399 565 428 590 l 315 661 l 306 518 q 232 504 271 504 q 167 517 196 504 l 222 660 l 90 563 q 51 690 46 614 l 192 739 l 75 782 q 178 906 107 853 l 261 832 l 276 956 q 349 967 313 967 q 415 956 385 967 l 369 829 l 486 910 q 528 788 531 860 z "},"+":{"ha":600,"x_min":7,"x_max":593,"o":"m 588 485 l 544 324 q 528 310 540 310 l 372 310 l 331 153 q 314 139 326 139 l 153 139 q 136 161 131 139 l 176 310 l 29 310 q 13 332 7 310 l 56 493 q 72 506 58 506 l 228 506 l 269 661 q 286 674 272 674 l 447 674 q 464 653 469 674 l 425 506 l 571 506 q 588 485 593 506 z "},",":{"ha":375,"x_min":1,"x_max":432,"o":"m 432 218 l 201 -158 q 126 -169 163 -169 q 71 -158 93 -169 l 135 65 q 99 76 121 65 q 61 86 76 86 q 19 76 38 86 q 13 75 15 75 q 4 81 6 75 q 7 93 1 86 q 88 127 29 119 q 157 151 147 135 l 172 215 q 225 221 193 221 q 297 217 247 221 q 372 213 347 213 q 432 218 406 213 z "},"-":{"ha":475,"x_min":28,"x_max":471,"o":"m 467 499 l 414 300 q 403 290 411 290 l 43 290 q 32 306 28 290 l 85 506 q 96 513 86 513 l 457 513 q 467 499 471 513 z "},".":{"ha":507,"x_min":40,"x_max":475,"o":"m 475 161 q 415 32 475 85 q 274 -21 354 -21 q 193 18 222 -21 q 133 31 174 17 q 75 44 93 44 q 50 42 60 44 q 42 46 43 40 q 46 54 40 51 q 142 75 60 63 q 201 121 201 83 q 174 168 201 147 q 122 189 150 185 q 115 196 115 190 q 122 203 115 200 q 189 204 139 208 q 249 213 232 201 q 369 253 308 253 q 443 226 411 253 q 475 161 475 199 z "},"/":{"ha":694,"x_min":0,"x_max":1013,"o":"m 1006 974 l 169 -26 q 151 -36 161 -36 l 17 -36 q 0 -26 0 -36 q 8 -10 0 -19 l 846 990 q 864 999 853 999 l 997 999 q 1013 989 1013 999 q 1006 974 1013 982 z "},":":{"ha":540,"x_min":40,"x_max":594,"o":"m 594 614 q 534 485 594 538 q 393 432 474 432 q 313 471 342 432 q 253 483 293 469 q 194 497 213 497 q 169 494 179 497 q 161 499 163 493 q 165 507 160 504 q 261 528 179 515 q 321 574 321 536 q 293 621 321 600 q 242 642 269 638 q 235 649 235 643 q 242 656 235 653 q 308 657 258 661 q 368 665 351 654 q 489 706 428 706 q 563 678 531 706 q 594 614 594 651 m 475 161 q 415 32 475 85 q 274 -21 354 -21 q 193 18 222 -21 q 133 31 174 17 q 75 44 93 44 q 50 42 60 44 q 42 46 43 40 q 46 54 40 51 q 142 75 60 63 q 201 121 201 83 q 174 168 201 147 q 122 189 150 185 q 115 196 115 190 q 122 203 115 200 q 189 204 139 208 q 249 213 232 201 q 369 253 308 253 q 443 226 411 253 q 475 161 475 199 z "},";":{"ha":485,"x_min":1,"x_max":594,"o":"m 594 614 q 534 485 594 538 q 393 432 474 432 q 313 471 342 432 q 253 483 293 469 q 194 497 213 497 q 169 494 179 497 q 161 499 163 493 q 165 507 160 504 q 261 528 179 515 q 321 574 321 536 q 293 621 321 600 q 242 642 269 638 q 235 649 235 643 q 242 656 235 653 q 308 657 258 661 q 368 665 351 654 q 489 706 428 706 q 563 678 531 706 q 594 614 594 651 m 432 218 l 201 -158 q 126 -169 163 -169 q 71 -158 93 -169 l 135 65 q 99 76 121 65 q 61 86 76 86 q 19 76 38 86 q 13 75 15 75 q 4 81 6 75 q 7 93 1 86 q 88 127 29 119 q 157 151 147 135 l 172 215 q 225 221 193 221 q 297 217 247 221 q 372 213 347 213 q 432 218 406 213 z "},"<":{"ha":581,"x_min":-3,"x_max":607,"o":"m 606 663 l 546 439 q 539 432 546 432 l 343 389 l 343 375 l 508 336 q 515 324 518 333 l 456 99 q 443 92 453 88 l 7 247 q 0 260 -3 250 l 67 513 q 72 519 67 519 l 592 675 q 603 674 599 678 q 606 663 607 669 z "},"=":{"ha":521,"x_min":15,"x_max":551,"o":"m 546 585 l 503 424 q 486 410 499 410 l 114 410 q 97 432 92 410 l 140 593 q 157 606 143 606 l 529 606 q 546 585 551 606 m 469 346 l 426 185 q 410 171 422 171 l 38 171 q 21 193 15 171 l 64 354 q 81 367 67 367 l 453 367 q 469 346 475 367 z "},">":{"ha":581,"x_min":78,"x_max":686,"o":"m 683 507 l 617 254 q 611 247 617 247 l 92 92 q 81 93 85 89 q 79 104 78 97 l 139 329 q 146 336 139 336 l 342 376 l 342 390 l 176 432 q 169 444 167 435 l 229 668 q 242 675 232 679 l 676 519 q 683 507 686 517 z "},"?":{"ha":739,"x_min":-37,"x_max":903,"o":"m 903 825 q 829 665 903 742 q 682 529 756 597 q 574 344 596 442 q 564 336 572 336 l 267 336 q 257 349 256 336 q 281 404 268 378 q 342 503 310 467 q 295 489 321 499 q 256 479 269 479 q 213 485 239 479 q 171 490 188 490 q 133 485 151 490 q 121 492 124 482 q 128 504 118 500 q 188 519 172 519 q 247 540 247 519 q 129 582 247 582 q 61 594 97 582 q 54 607 51 599 q 67 614 56 617 q 101 608 94 608 q 167 621 128 608 q 235 633 207 633 q 299 619 260 633 q 381 604 338 604 q 468 625 429 604 q 513 690 513 649 q 435 731 513 731 q 319 699 394 731 q 308 699 313 696 q 306 708 304 701 l 314 783 q 253 829 296 829 q 228 826 243 829 q 204 824 213 824 q 133 857 169 824 q 132 869 126 864 q 146 872 136 876 q 178 864 167 864 q 233 878 200 864 q 289 893 267 893 q 328 888 304 893 l 332 946 q 336 954 332 953 q 625 1018 469 1018 q 813 967 729 1018 q 903 825 903 911 m 544 264 l 451 -10 q 442 -18 449 -18 l 144 -17 q 135 -3 128 -17 l 154 53 q 67 107 125 64 q -24 140 22 140 q -35 147 -33 140 q -29 160 -37 154 q 22 175 4 175 q 79 165 44 175 q 136 154 114 154 q 200 183 164 154 l 236 269 q 246 275 242 275 l 535 276 q 544 274 542 276 q 544 264 547 271 z "},"@":{"ha":1119,"x_min":-35,"x_max":1233,"o":"m 1233 665 q 1103 358 1233 457 q 935 294 1025 299 q 754 285 804 299 q 749 293 750 288 q 768 338 756 301 q 625 278 685 278 q 542 325 576 278 q 513 315 525 315 q 478 328 499 315 q 442 339 458 340 q 436 343 438 338 q 440 350 435 349 q 472 351 454 356 q 506 346 497 346 q 533 356 519 346 q 565 432 539 378 q 514 419 554 431 q 468 413 483 410 q 463 418 463 414 q 468 424 463 424 q 529 457 529 424 q 514 469 529 469 q 488 465 507 469 q 460 461 468 461 q 440 463 446 461 q 435 468 435 464 q 440 474 435 474 q 488 485 463 472 q 531 497 514 497 q 574 488 549 497 q 617 476 600 478 q 799 529 699 529 q 764 556 799 556 q 665 533 703 556 q 658 532 661 531 q 657 539 656 535 q 663 561 657 539 q 565 568 633 557 q 563 574 561 569 q 567 578 563 578 q 638 597 638 578 q 572 624 638 624 q 547 619 576 624 q 540 622 542 618 q 543 628 539 626 q 601 640 579 640 q 649 636 621 640 q 694 632 676 632 q 785 651 719 632 q 890 671 851 671 q 983 599 983 671 q 950 498 983 558 q 917 413 917 438 q 956 401 917 401 q 1044 434 997 401 q 1092 493 1092 467 q 1064 531 1092 531 q 1003 519 1038 531 q 989 522 993 517 q 990 535 986 528 q 1056 579 1007 561 q 1126 615 1111 600 q 1133 650 1133 633 q 1096 782 1133 715 q 914 889 1038 889 q 736 835 844 889 q 514 649 599 764 q 404 300 404 500 q 436 175 404 239 q 589 78 486 78 q 899 199 749 78 l 919 231 q 953 184 932 218 q 993 136 975 150 q 964 113 985 122 q 590 -29 790 -29 q 429 15 503 -29 q 299 126 378 47 l 222 139 q 213 147 213 140 q 221 157 211 154 q 296 211 296 176 q 263 229 296 229 q 192 208 247 229 q 100 186 136 186 q 64 191 88 186 q 25 196 40 196 q -17 190 6 196 q -31 194 -28 188 q -26 207 -35 200 q 44 239 15 239 q 153 272 153 239 q 125 315 153 296 q 64 333 97 333 q 38 329 50 333 q 26 336 28 326 q 33 347 24 344 q 83 356 65 356 q 163 340 114 356 q 244 324 213 324 q 299 347 264 324 q 326 464 307 408 q 249 528 299 510 q 163 543 226 535 q 96 565 114 549 q 93 578 90 571 q 107 581 97 585 q 154 574 122 574 q 215 587 179 574 q 275 600 251 600 q 364 588 319 600 q 407 674 376 614 q 328 726 382 685 q 253 754 292 754 q 176 740 211 754 q 171 739 174 739 q 164 746 165 739 q 169 757 163 753 q 286 790 240 790 q 354 784 314 790 q 421 778 394 778 q 524 810 464 778 q 911 986 711 986 q 1141 898 1049 986 q 1233 665 1233 810 m 778 465 q 679 394 679 440 q 704 378 679 378 q 753 392 732 378 l 778 465 z "},"A":{"ha":1979,"x_min":-192,"x_max":2054,"o":"m 2046 -11 q 2054 -21 2054 -12 q 2040 -31 2054 -35 q 1842 -8 1974 -12 q 1585 -7 1800 -7 q 1361 -17 1504 -7 q 1349 -8 1350 -17 q 1358 3 1349 1 q 1486 26 1453 13 q 1590 179 1594 68 l 1294 179 q 1251 124 1251 124 q 1229 60 1229 90 q 1251 10 1229 33 q 1256 -3 1257 3 q 1243 -8 1253 -8 l 682 -12 q 671 -4 671 -12 q 679 8 669 6 q 850 111 850 50 q 797 90 829 90 q 674 130 744 90 q 549 169 603 169 q 450 146 500 169 q 438 147 442 142 q 438 160 432 153 q 639 218 463 196 q 803 274 803 239 q 771 312 803 297 q 701 326 739 326 q 565 297 647 326 q 426 268 482 268 q 243 319 351 268 q 63 371 135 371 q -24 343 18 371 q -29 342 -26 342 q -40 351 -40 342 q -36 360 -40 357 q 128 408 25 408 q 266 393 182 408 q 399 378 350 378 q 447 393 424 378 q 469 432 469 408 q 196 551 469 551 q 101 549 164 551 q 10 547 39 547 q -189 597 -132 547 q -192 603 -192 600 q -181 615 -192 615 q -174 611 -176 615 q -112 580 -161 593 q -15 567 -64 567 q 162 608 40 567 q 365 650 283 650 q 624 593 468 650 q 882 536 779 536 q 976 553 936 536 q 1025 607 1025 574 q 929 643 1025 643 q 861 636 906 643 q 786 629 817 629 q 541 719 686 629 q 299 810 396 810 q 190 783 258 810 q 178 789 181 779 q 183 801 174 797 q 429 861 308 861 q 603 818 497 861 q 768 775 710 775 q 805 787 788 775 q 822 813 822 799 q 724 925 822 860 q 532 992 619 992 q 471 986 488 992 q 458 992 461 982 q 464 1006 454 1003 q 569 1022 514 1022 q 813 974 682 1022 q 1018 882 838 964 q 1182 833 1125 833 q 1233 848 1210 833 q 1256 888 1256 863 q 1211 933 1256 915 q 1143 947 1176 947 q 1067 928 1110 947 q 1051 938 1051 921 q 1058 947 1051 944 q 1365 1014 1233 1014 q 1569 982 1444 1014 q 1779 950 1694 950 q 1982 1013 1896 950 q 1996 1013 1990 1018 q 1996 999 2001 1007 q 1921 674 1921 886 q 1929 213 1921 288 q 2046 -11 1950 8 m 1597 607 l 1597 681 l 1429 411 l 1582 411 l 1582 451 q 1549 479 1582 479 q 1518 472 1532 479 q 1507 474 1511 468 q 1508 485 1503 479 q 1563 532 1536 508 q 1597 607 1597 564 z "},"B":{"ha":1993,"x_min":-160,"x_max":2122,"o":"m 2122 788 q 1889 506 2122 628 q 2040 283 2040 431 q 1918 67 2040 149 q 1646 -8 1806 -7 l 985 -12 q 975 -4 975 -12 q 983 7 974 6 q 1063 107 1031 15 q 950 50 1019 100 q 844 6 885 6 q 761 21 811 6 q 681 36 711 36 q 628 21 657 36 q 614 32 614 14 q 621 42 614 39 q 717 63 674 63 q 836 122 836 63 q 804 164 836 149 q 747 176 779 176 q 610 147 693 176 q 474 117 528 117 q 268 164 386 117 q 261 174 261 167 q 275 185 261 189 q 381 171 319 171 q 608 246 474 171 q 835 321 742 321 q 893 317 857 321 q 950 313 929 313 q 1026 351 1026 313 q 882 421 1026 421 q 636 362 789 421 q 382 303 483 303 q 187 343 304 303 q -8 383 69 383 q -144 353 -56 383 q -157 358 -154 349 q -150 372 -160 368 q 190 435 24 435 q 274 430 224 435 q 356 425 324 425 q 514 514 514 425 q 474 574 514 553 q 392 590 440 590 q 268 570 343 590 q 144 550 193 550 q -12 593 78 550 q -18 607 -22 597 q -6 613 -15 617 q 108 583 74 583 q 293 638 163 583 q 510 693 424 693 q 723 649 594 693 q 935 606 851 606 q 1081 610 1057 606 q 1160 671 1160 621 q 1096 713 1160 713 q 1033 704 1072 713 q 968 696 993 696 q 774 758 889 696 q 582 821 660 821 q 499 817 532 821 q 488 825 489 815 q 494 836 485 833 q 617 857 585 857 q 777 839 679 857 q 938 821 875 821 q 1061 876 1061 821 q 904 956 1061 956 q 841 953 879 956 q 776 951 803 951 q 724 957 768 951 q 714 967 714 958 q 724 976 714 975 q 1057 1007 899 1007 q 1240 994 1129 1007 q 1422 982 1351 982 l 1765 982 q 2022 944 1938 985 q 2122 788 2122 899 m 419 801 q 290 769 349 771 q 194 798 253 768 q 89 826 135 828 q 38 821 72 826 q 25 826 29 818 q 28 838 21 833 q 171 876 100 874 q 269 845 203 878 q 360 814 335 813 q 414 818 378 814 q 424 813 421 819 q 419 801 426 804 m 1761 686 q 1638 767 1761 763 l 1578 590 q 1696 603 1661 592 q 1761 686 1761 624 m 1653 351 q 1513 407 1653 414 l 1436 207 l 1528 207 q 1597 239 1597 207 q 1563 271 1597 271 q 1531 263 1543 271 q 1515 265 1521 258 q 1518 279 1511 272 q 1603 313 1538 297 q 1653 351 1653 325 z "},"C":{"ha":1744,"x_min":-57,"x_max":1997,"o":"m 1993 968 l 1815 624 q 1799 621 1810 613 q 1657 675 1731 675 q 1451 601 1542 675 q 1358 418 1358 524 q 1421 314 1358 353 q 1554 279 1476 279 q 1729 340 1649 279 q 1744 343 1739 347 q 1747 328 1751 338 l 1626 22 q 1619 17 1626 17 q 1393 -28 1499 -28 q 1121 25 1244 -28 q 954 122 1051 54 q 850 175 879 175 q 733 142 803 175 q 615 110 663 110 q 510 124 575 110 q 417 139 446 139 q 347 125 381 139 q 331 135 331 118 q 338 144 331 140 q 439 160 363 160 q 478 160 456 160 q 514 158 500 158 q 640 198 582 158 q 697 283 697 238 q 640 326 697 326 q 581 313 631 326 q 483 299 532 299 q 288 360 389 299 q 143 421 186 421 q 43 406 94 421 q 29 415 29 401 q 36 425 29 422 q 153 449 121 449 q 297 431 210 449 q 439 414 385 414 q 494 431 468 414 q 521 476 521 449 q 438 539 521 518 q 285 554 375 554 q -47 600 85 554 q -54 613 -57 603 q -40 619 -51 622 q 44 607 13 607 q 235 634 119 607 q 424 661 350 661 q 630 614 513 661 q 836 567 747 567 q 922 581 885 567 q 967 622 967 596 q 915 653 967 653 q 866 651 896 653 q 799 650 836 650 q 586 727 724 650 q 354 804 449 804 q 219 769 301 804 q 206 778 206 764 q 211 786 206 783 q 439 847 339 847 q 583 825 496 847 q 725 803 669 803 q 767 821 744 803 q 789 861 789 839 q 714 944 789 917 q 553 981 678 958 q 406 1024 446 999 q 400 1033 400 1028 q 417 1043 400 1050 q 540 1011 471 1011 q 633 1017 576 1011 q 724 1024 689 1024 q 931 978 814 1024 q 1139 932 1047 932 q 1394 963 1232 932 q 1649 994 1556 994 q 1778 981 1699 994 q 1908 967 1857 967 q 1978 982 1942 967 q 1992 981 1988 986 q 1993 968 1997 976 z "},"D":{"ha":2236,"x_min":1,"x_max":2363,"o":"m 2363 686 q 2254 360 2363 531 q 1990 89 2150 196 q 1660 -25 1822 -25 q 1403 -10 1563 -25 q 1144 6 1243 6 q 1065 1 1110 6 q 1053 7 1056 0 q 1058 19 1050 14 q 1104 54 1083 36 q 1167 136 1151 97 q 904 81 1063 139 q 638 19 742 19 q 487 42 578 19 q 338 64 396 64 q 203 25 290 64 q 197 24 200 24 q 188 33 188 24 q 193 43 188 39 q 404 99 281 99 q 478 109 443 99 q 514 136 514 119 q 390 244 514 194 q 163 289 275 289 q 18 271 82 289 q 4 278 8 268 q 11 290 1 288 q 161 310 74 310 q 403 276 258 310 q 638 243 547 243 q 717 260 676 243 q 758 300 758 276 q 664 383 758 354 q 532 403 597 403 q 461 385 501 403 q 447 396 447 376 q 453 404 447 403 q 604 435 550 435 q 781 410 674 435 q 957 385 888 385 q 1147 483 1147 385 q 1107 547 1147 524 q 1024 569 1072 569 q 914 554 986 569 q 799 539 842 539 q 604 586 721 539 q 410 633 488 633 q 200 588 310 633 q 186 597 186 582 q 192 606 186 603 q 371 671 296 653 q 560 690 453 690 q 643 685 590 690 q 729 679 696 679 q 842 739 842 679 q 761 813 842 788 q 582 850 743 818 q 401 910 460 874 q 396 924 393 915 q 410 929 400 932 q 576 904 510 904 q 679 910 618 904 q 779 915 740 915 q 971 867 885 915 q 1100 778 1035 822 q 1238 729 1171 729 q 1283 744 1263 729 q 1303 781 1303 758 q 1176 917 1303 864 q 981 958 1075 958 q 958 957 967 958 q 946 965 949 956 q 954 976 944 974 q 1082 993 1033 993 q 1244 975 1146 993 q 1404 957 1342 957 q 1635 968 1472 957 q 1861 979 1797 979 q 2211 933 2106 979 q 2363 686 2363 869 m 1961 628 q 1928 690 1961 664 q 1854 714 1894 715 l 1774 711 l 1596 297 q 1665 293 1640 293 q 1795 331 1732 293 q 1858 414 1858 369 q 1844 439 1858 428 q 1815 450 1831 450 q 1749 440 1764 450 q 1731 449 1731 432 q 1735 456 1731 453 q 1818 492 1754 474 q 1915 532 1888 513 q 1961 628 1961 564 z "},"E":{"ha":2244,"x_min":4,"x_max":2461,"o":"m 2457 982 q 2303 693 2410 903 q 2293 688 2301 685 q 2186 700 2221 700 q 1951 692 2006 700 l 1903 596 l 2218 618 q 2231 614 2228 618 q 2228 601 2233 608 q 2182 526 2203 565 q 2113 338 2132 433 q 2100 329 2110 326 q 1919 350 2014 350 q 1806 344 1850 350 l 1751 240 q 1882 236 1815 236 q 2192 282 2113 236 q 2204 282 2200 286 q 2206 268 2210 276 q 2126 -31 2138 125 q 2114 -40 2125 -42 q 1586 -8 1833 -8 q 1435 -17 1538 -8 q 1278 -25 1332 -25 q 1267 -18 1268 -25 q 1272 -6 1264 -11 q 1296 19 1285 6 q 1340 89 1324 53 q 1250 72 1274 72 q 1078 113 1182 72 q 906 153 975 153 q 798 138 864 153 q 689 122 732 122 q 418 189 558 122 q 413 197 413 192 q 426 207 413 213 q 558 174 508 174 q 772 253 647 174 q 983 332 896 332 q 1089 319 1026 332 q 1192 307 1151 307 q 1282 353 1282 307 q 1122 417 1282 417 q 895 371 1035 417 q 664 325 756 325 q 414 378 565 325 q 183 431 263 431 q 18 388 124 431 q 4 397 4 382 q 10 406 4 403 q 392 479 178 479 q 481 472 426 479 q 569 465 536 465 q 699 528 699 465 q 572 589 699 589 q 473 576 532 589 q 375 564 414 564 q 171 617 282 564 q 165 629 161 621 q 178 635 168 639 q 272 610 244 610 q 470 668 346 610 q 678 726 594 726 q 909 657 772 726 q 1139 588 1046 588 q 1268 658 1268 588 q 1178 756 1268 725 q 1014 778 1111 778 q 549 869 756 778 q 543 878 543 871 q 557 886 543 892 q 733 842 661 842 q 894 870 797 842 q 1053 899 990 899 q 1237 854 1128 899 q 1411 810 1346 810 q 1482 847 1482 810 q 1350 924 1482 903 q 1140 949 1246 936 q 1132 960 1131 950 q 1143 968 1133 969 q 1206 960 1186 960 q 1321 978 1251 960 q 1436 996 1390 996 q 1684 981 1504 996 q 2094 965 1864 965 q 2446 996 2217 965 q 2457 993 2453 997 q 2457 982 2461 988 z "},"F":{"ha":2083,"x_min":28,"x_max":2344,"o":"m 2339 981 q 2281 890 2307 936 q 2185 678 2215 779 q 2175 671 2183 671 q 1821 658 1969 674 l 1790 589 q 2101 590 1919 578 q 2114 586 2110 592 q 2113 575 2117 582 q 2065 489 2088 532 q 1990 292 2014 385 q 1979 285 1988 282 q 1797 294 1889 294 q 1676 289 1731 294 q 1589 39 1589 104 q 1610 -8 1589 25 q 1610 -19 1613 -15 q 1600 -24 1607 -24 l 1114 -21 q 1104 -12 1104 -21 q 1113 -1 1103 -3 q 1183 37 1151 6 q 1215 108 1215 68 q 1117 153 1215 153 q 926 103 1040 153 q 736 53 813 53 q 602 71 683 53 q 469 89 521 89 q 329 47 417 89 q 314 56 314 40 q 321 64 314 61 q 494 118 442 118 q 643 131 597 118 q 724 217 724 151 q 542 292 724 292 q 451 290 507 292 q 372 289 396 289 q 201 310 281 289 q 38 372 140 326 q 32 385 28 376 q 44 390 35 394 q 203 351 146 351 q 405 390 282 351 q 608 429 528 429 q 811 413 688 429 q 1014 396 935 396 q 1154 469 1154 396 q 1083 558 1154 529 q 942 581 1026 581 q 758 558 871 581 q 572 536 646 536 q 336 571 479 536 q 329 582 326 574 q 340 590 331 592 q 436 585 368 585 q 640 678 640 585 q 503 744 640 744 q 278 711 419 744 q 46 685 144 681 q 38 694 36 685 q 47 704 38 704 q 256 740 160 703 q 406 810 331 775 q 581 849 493 849 q 878 790 697 849 q 1178 732 1058 732 q 1294 740 1263 732 q 1360 806 1360 756 q 1236 867 1360 867 q 1176 864 1214 867 q 1114 861 1138 861 q 961 885 1029 861 q 822 954 904 904 q 815 965 815 958 q 832 974 815 981 q 961 938 913 938 q 1113 967 1021 938 q 1264 996 1206 996 q 1485 979 1351 996 q 1703 963 1618 963 q 2328 996 2178 963 q 2340 993 2336 997 q 2339 981 2344 988 z "},"G":{"ha":2000,"x_min":25,"x_max":2146,"o":"m 2142 957 l 1997 654 q 1985 649 1996 646 q 1819 672 1917 672 q 1565 607 1689 672 q 1425 425 1425 532 q 1601 263 1425 301 q 1619 321 1619 290 q 1598 354 1619 342 q 1551 364 1576 367 q 1542 372 1542 363 q 1550 383 1540 382 q 1617 394 1583 389 q 1656 429 1656 404 q 1567 479 1656 479 q 1513 474 1538 479 q 1500 481 1503 471 q 1507 493 1497 490 q 1663 519 1613 519 q 1776 513 1707 519 q 1889 507 1844 507 q 2032 535 1943 507 q 2046 532 2042 538 q 2044 519 2050 526 q 1844 -18 1864 254 q 1832 -28 1844 -32 q 1636 6 1721 6 q 1460 -15 1571 6 q 1286 -36 1350 -36 q 1110 25 1176 -36 q 1031 139 1072 60 q 978 200 1000 200 q 802 147 914 200 q 569 94 690 94 q 349 140 461 94 q 342 149 342 142 q 357 158 342 165 q 500 138 400 138 q 588 162 550 138 q 626 228 626 186 q 447 308 626 308 q 376 306 419 308 q 306 303 333 303 q 31 357 133 303 q 25 365 25 360 q 42 376 25 385 q 136 349 96 349 q 308 392 193 349 q 500 435 424 435 q 667 411 565 435 q 833 388 768 388 q 940 414 893 388 q 996 494 996 444 q 867 550 996 550 q 700 526 801 550 q 533 503 599 503 q 381 531 474 503 q 231 558 289 558 q 133 546 183 558 q 121 553 124 543 q 128 565 118 563 q 256 585 206 585 q 338 579 288 585 q 419 574 388 574 q 506 588 469 574 q 549 639 549 606 q 308 756 549 756 q 214 738 260 756 q 201 743 204 733 q 207 756 197 751 q 400 807 321 807 q 576 776 471 807 q 747 746 682 746 q 854 789 854 746 q 779 858 854 838 q 620 882 733 872 q 471 904 507 892 q 464 917 461 907 q 478 924 468 926 q 561 910 533 910 q 682 922 607 910 q 803 935 757 935 q 1008 890 883 935 q 1186 846 1132 846 q 1208 857 1199 846 q 1218 881 1218 868 q 1140 950 1218 921 q 1026 976 1083 971 q 1017 986 1017 978 q 1026 996 1017 994 q 1072 1001 1067 1001 q 1251 976 1139 1001 q 1428 951 1363 951 q 1569 965 1483 951 q 1708 979 1654 979 q 1852 968 1765 979 q 1996 957 1939 957 q 2131 971 2075 957 q 2142 968 2139 972 q 2142 957 2146 964 z "},"H":{"ha":2190,"x_min":26,"x_max":2406,"o":"m 2400 986 q 2265 738 2347 957 q 2138 332 2200 567 q 2081 86 2081 124 q 2103 -6 2081 64 q 2103 -15 2106 -11 q 2092 -18 2099 -18 q 1846 -11 1988 -11 q 1624 -12 1672 -11 q 1613 -8 1615 -12 q 1614 3 1610 -4 q 1669 107 1646 54 q 1739 332 1728 231 l 1603 335 q 1507 61 1507 117 q 1517 -6 1507 28 q 1515 -15 1518 -12 q 1506 -18 1513 -18 q 1204 -14 1442 -14 q 1050 -18 1122 -14 q 1038 -12 1040 -18 q 1042 -1 1035 -7 q 1103 79 1061 15 q 986 60 1049 64 q 868 78 938 57 q 751 101 794 101 q 651 71 721 101 q 646 69 649 69 q 636 79 636 69 q 642 89 636 85 q 783 128 685 115 q 929 150 908 144 q 997 215 997 169 q 974 249 997 242 q 931 251 965 251 q 778 222 871 251 q 624 193 686 193 q 451 243 554 193 q 276 293 349 293 q 157 278 215 293 q 143 285 147 275 q 150 297 140 294 q 313 328 253 328 q 427 320 357 328 q 540 313 497 313 q 649 368 649 313 q 422 460 649 460 q 347 458 393 460 q 269 456 301 456 q 32 508 149 456 q 26 517 26 511 q 35 526 26 526 q 40 525 38 526 q 139 501 94 501 q 338 549 217 501 q 539 597 458 597 q 792 538 640 597 q 1043 478 943 478 q 1208 563 1208 478 q 1111 604 1208 604 q 1022 594 1076 604 q 932 583 967 583 q 733 654 858 583 q 521 725 608 725 q 396 707 463 725 q 282 675 339 692 q 269 683 271 672 q 278 694 267 693 q 418 744 314 700 q 582 783 511 783 q 635 781 599 783 q 693 778 671 778 q 799 818 799 778 q 742 886 799 856 q 629 914 686 917 q 575 901 600 913 q 563 907 565 896 q 568 921 558 918 q 688 940 650 940 q 931 871 785 940 q 1178 801 1078 801 q 1261 835 1261 801 q 1015 935 1261 935 q 981 929 1010 935 q 969 938 971 928 q 978 949 968 947 q 1190 976 1128 976 q 1365 971 1258 976 q 1540 965 1472 965 q 1803 982 1649 965 q 1814 978 1811 983 q 1814 967 1818 974 q 1699 646 1754 853 l 1844 650 q 1867 717 1867 685 q 1843 735 1867 735 q 1815 730 1828 735 q 1800 725 1801 725 q 1790 735 1790 725 q 1796 743 1790 740 q 1926 893 1926 803 q 1906 936 1926 911 q 1903 949 1900 943 q 1915 953 1906 954 q 2018 950 1961 950 q 2389 1006 2279 950 q 2406 994 2406 1014 q 2400 986 2406 989 z "},"I":{"ha":1701,"x_min":-100,"x_max":1924,"o":"m 1915 950 q 1793 767 1850 907 q 1697 494 1746 631 q 1617 276 1657 385 q 1579 94 1579 163 q 1610 -7 1579 63 q 1610 -18 1613 -14 q 1600 -21 1607 -21 q 1368 -17 1549 -17 q 1110 -24 1165 -17 q 1099 -19 1101 -25 q 1100 -8 1094 -15 l 1179 94 q 1151 97 1164 97 q 1026 68 1101 97 q 899 39 950 39 q 819 49 869 39 q 736 58 768 58 q 682 50 711 58 q 669 57 671 47 q 676 69 667 67 q 713 79 686 71 q 749 86 732 86 q 829 92 807 86 q 876 138 876 103 q 794 181 876 181 q 682 160 751 181 q 567 139 613 139 q 351 178 458 139 q 344 190 342 181 q 356 197 346 199 q 426 186 410 186 q 662 254 519 186 q 900 322 804 322 q 1010 312 943 322 q 1111 301 1078 301 q 1188 338 1188 301 q 1038 406 1188 406 q 785 363 942 406 q 525 321 628 321 q 317 363 440 321 q 113 406 193 406 q -83 349 29 406 q -100 358 -100 340 q -94 367 -100 364 q 72 439 10 419 q 250 464 153 464 q 376 457 299 464 q 499 450 453 450 q 606 474 560 450 q 657 550 657 501 q 506 624 657 624 q 398 615 464 624 q 288 606 332 606 q 144 639 239 606 q 138 651 135 643 q 150 658 139 661 q 293 638 217 640 q 487 683 372 635 q 676 732 601 732 q 910 667 771 733 q 1135 601 1049 601 q 1279 665 1279 601 q 1165 728 1279 728 q 1092 721 1139 728 q 1015 715 1046 714 q 835 776 942 717 q 651 836 728 836 q 588 832 610 836 q 575 839 578 831 q 582 851 572 849 q 719 879 667 879 q 874 851 781 879 q 1028 824 968 824 q 1125 878 1125 824 q 1085 935 1125 915 q 1003 950 1051 950 q 927 944 974 950 q 849 939 881 939 q 729 965 793 939 q 722 976 721 968 q 731 985 724 985 q 736 983 733 985 q 815 963 789 963 q 977 990 878 963 q 1140 1018 1076 1018 q 1379 983 1235 1018 q 1615 949 1524 949 q 1908 968 1772 949 q 1921 963 1918 969 q 1915 950 1924 956 m 507 814 q 378 782 436 783 q 281 810 340 781 q 176 839 222 840 q 125 833 160 839 q 113 839 117 831 q 115 850 108 846 q 258 889 188 886 q 356 858 290 890 q 447 826 422 825 q 501 831 465 826 q 511 825 508 832 q 507 814 514 817 z "},"J":{"ha":1704,"x_min":-50,"x_max":1904,"o":"m 1896 972 q 1800 775 1856 940 q 1701 451 1751 613 q 1504 97 1632 229 q 1167 -53 1360 -53 q 881 26 1050 -53 q 597 106 711 106 q 428 68 539 106 q 415 72 418 65 q 419 86 411 81 q 611 157 492 136 q 786 181 699 169 q 863 244 863 197 q 756 308 863 308 q 633 281 707 308 q 508 253 558 253 q 332 322 436 253 q 153 390 228 390 q 72 374 117 390 q 60 379 63 369 q 67 393 57 389 q 151 415 132 415 q 302 382 211 415 q 454 349 393 349 q 546 403 546 349 q 297 493 546 493 q -46 619 72 493 q -50 628 -50 624 q -40 638 -50 638 q -32 633 -36 638 q 154 571 29 571 q 360 594 232 571 q 569 617 488 617 q 790 553 676 617 q 968 436 793 553 q 1125 372 1063 372 q 1222 421 1181 372 q 1289 535 1250 453 q 1240 539 1268 539 q 1158 531 1207 539 q 1076 522 1108 522 q 944 560 1006 522 q 838 649 903 585 q 833 657 833 653 q 843 667 833 667 q 851 664 847 667 q 976 607 919 607 q 1035 644 1035 607 q 961 710 1035 689 q 797 744 879 728 q 621 825 685 772 q 617 833 617 829 q 628 844 617 844 q 633 843 631 844 q 857 778 757 778 q 945 785 892 778 q 1032 793 999 793 q 1166 751 1086 793 q 1293 708 1246 708 q 1347 747 1347 708 q 1263 833 1347 808 q 1078 875 1171 854 q 893 972 956 907 q 890 988 886 981 q 904 990 894 994 q 1072 938 992 938 q 1245 961 1139 938 q 1419 985 1351 985 q 1558 972 1474 985 q 1694 960 1642 960 q 1886 990 1775 960 q 1900 986 1897 993 q 1896 972 1904 979 z "},"K":{"ha":2249,"x_min":26,"x_max":2513,"o":"m 2507 982 q 2040 499 2296 738 q 2129 219 2085 358 q 2244 -1 2181 57 q 2249 -12 2250 -7 q 2238 -18 2247 -18 q 1975 -12 2157 -17 q 1719 -11 1924 -11 q 1710 6 1703 -11 q 1754 133 1754 81 q 1683 392 1754 271 q 1599 10 1593 151 q 1589 -3 1599 -3 l 1147 -3 q 1136 4 1138 -3 q 1142 17 1133 11 q 1202 76 1172 39 q 1232 138 1232 113 q 1197 150 1232 150 q 1063 104 1140 150 q 918 21 935 29 q 717 -18 822 -22 q 707 -11 708 -18 q 713 0 704 -4 q 786 27 749 13 q 824 72 824 42 q 749 111 824 106 q 644 111 696 111 q 514 133 558 113 q 399 197 469 153 q 296 256 333 240 q 164 281 235 281 q 42 257 104 281 q 29 263 32 253 q 36 276 26 274 q 188 310 126 310 q 414 278 275 310 q 631 246 553 246 q 671 256 651 246 q 690 286 690 267 q 638 360 690 332 q 522 388 586 388 q 428 374 482 388 q 414 381 418 371 q 421 394 411 392 q 481 411 465 408 q 553 418 511 417 q 717 387 613 419 q 878 354 821 354 q 943 383 943 354 q 908 435 943 415 q 831 456 872 456 q 793 451 838 456 q 781 458 783 450 q 786 471 778 465 q 892 501 847 501 q 987 489 929 501 q 1081 476 1044 476 q 1121 487 1101 476 q 1140 517 1140 497 q 1006 569 1140 569 q 862 543 950 569 q 717 517 774 517 q 501 583 624 517 q 314 650 379 650 q 147 599 244 650 q 131 610 131 590 q 136 618 131 615 q 261 679 214 663 q 397 701 322 701 q 526 688 447 701 q 650 674 606 674 q 715 693 688 674 q 743 744 743 713 q 672 813 743 797 q 514 833 593 824 q 354 899 408 849 q 351 906 351 901 q 361 917 351 917 q 368 914 365 917 q 481 879 413 879 q 595 896 525 879 q 711 913 665 913 q 977 828 819 913 q 1233 743 1135 743 q 1313 772 1313 743 q 1274 813 1313 792 q 1201 856 1215 844 q 1000 963 1074 963 q 935 958 957 963 q 922 967 925 957 q 929 978 919 976 q 1000 990 975 990 q 1178 961 1071 990 q 1358 932 1285 932 q 1527 955 1433 932 q 1706 978 1621 978 q 1831 971 1761 978 q 1840 958 1843 969 l 1756 646 q 1936 753 1846 699 q 2024 867 2024 813 q 1943 932 2024 921 q 1933 942 1933 933 q 1943 951 1933 950 q 2075 965 2021 965 q 2168 960 2111 965 q 2261 954 2225 954 q 2497 999 2368 954 q 2510 996 2506 1001 q 2507 982 2513 989 z "},"L":{"ha":1938,"x_min":-58,"x_max":2019,"o":"m 2013 349 q 1826 8 1843 176 q 1817 -3 1826 -3 l 1006 -6 q 994 0 996 -6 q 999 13 992 6 q 1074 104 1019 31 q 900 61 974 61 q 704 114 819 61 q 511 167 589 167 q 425 154 471 167 q 411 161 415 151 q 418 174 408 171 q 583 207 514 207 q 699 193 629 207 q 808 179 768 179 q 861 194 838 179 q 885 231 885 208 q 778 294 885 294 q 661 265 706 294 q 656 264 658 264 q 644 276 644 264 q 650 285 644 282 q 853 335 744 335 q 947 325 893 335 q 1031 315 1000 315 q 1132 369 1132 315 q 1003 433 1132 433 q 774 378 915 433 q 539 322 633 322 q 333 351 458 322 q 125 381 207 381 q -43 335 65 381 q -49 333 -46 333 q -58 343 -58 333 q -53 353 -58 349 q 433 463 114 463 q 551 469 519 463 q 615 531 615 483 q 585 578 615 563 q 517 594 556 594 q 425 581 481 594 q 333 567 369 567 q 78 643 217 567 q 72 654 71 647 q 82 663 75 663 q 88 661 85 663 q 263 624 156 631 q 461 671 346 618 q 661 729 585 726 q 900 678 757 732 q 1122 624 1043 624 q 1201 669 1201 624 q 1147 717 1201 707 q 1047 719 1129 719 q 867 772 978 719 q 678 825 757 825 q 575 804 642 825 q 561 811 565 801 q 568 824 558 821 q 733 854 674 854 q 888 840 793 854 q 1039 826 982 826 q 1160 875 1160 826 q 1108 933 1160 913 q 1008 950 1067 950 q 914 942 969 950 q 819 932 850 933 q 808 942 810 932 q 818 951 808 951 q 964 978 861 954 q 1122 999 1057 999 q 1376 981 1218 999 q 1625 963 1535 963 q 1813 988 1688 963 q 1825 982 1822 989 q 1821 969 1828 975 q 1650 656 1754 918 q 1531 321 1586 497 q 1639 315 1590 315 q 2003 365 1829 315 q 2017 361 2013 368 q 2013 349 2019 356 m 513 797 q 383 765 442 767 q 287 794 346 764 q 182 822 228 824 q 131 817 165 822 q 118 822 122 814 q 121 833 114 829 q 264 872 193 869 q 362 841 296 874 q 453 810 428 808 q 507 814 471 810 q 517 808 514 815 q 513 797 519 800 z "},"M":{"ha":2449,"x_min":-32,"x_max":2653,"o":"m 2644 958 q 2457 551 2575 915 q 2343 78 2343 203 q 2371 -4 2343 61 q 2363 -18 2376 -18 l 1875 -22 q 1864 -15 1867 -22 q 1868 -4 1861 -10 q 1914 58 1890 21 q 2033 282 1972 147 l 2021 289 l 1718 -22 q 1711 -26 1717 -26 l 1500 -26 q 1490 -10 1479 -26 q 1535 96 1535 57 q 1504 313 1535 186 q 1392 49 1392 76 q 1407 -8 1392 26 q 1397 -24 1415 -24 l 922 -24 q 911 -14 913 -24 q 919 -3 910 -6 q 1001 96 1001 17 q 985 122 1001 111 q 947 132 968 132 q 808 83 896 132 q 658 35 719 35 q 564 57 621 35 q 469 79 507 79 q 325 29 401 79 q 319 28 322 28 q 308 38 308 28 q 314 46 308 43 q 553 125 433 125 q 688 199 688 125 q 525 276 688 276 q 413 268 482 276 q 300 260 344 260 q 33 336 182 260 q 26 346 26 339 q 43 356 26 363 q 197 317 135 317 q 398 367 276 317 q 600 417 519 417 q 765 397 664 417 q 928 378 865 378 q 992 393 964 378 q 1026 440 1026 410 q 964 519 1026 492 q 839 540 913 540 q 702 522 786 540 q 564 504 618 504 q 461 518 524 504 q 358 532 399 532 q 294 519 344 532 q 281 529 281 517 q 289 539 281 538 q 335 551 293 540 q 383 558 361 558 q 433 556 403 558 q 483 553 464 553 q 589 575 546 553 q 640 651 640 603 q 506 721 640 721 q 316 683 431 721 q 125 646 201 646 q -22 669 76 646 q -29 682 -32 672 q -18 689 -28 690 q 53 678 36 678 q 200 721 110 678 q 364 799 282 760 q 553 842 465 842 q 804 790 653 842 q 1056 739 956 739 q 1124 753 1094 739 q 1160 804 1160 771 q 1100 850 1160 840 q 997 854 1078 854 q 851 890 913 854 q 731 961 790 925 q 725 969 725 964 q 739 979 725 985 q 956 936 846 936 q 1102 967 1014 936 q 1247 997 1190 997 q 1453 971 1276 997 q 1735 953 1618 947 q 1746 944 1746 953 q 1825 551 1754 769 q 1899 624 1863 588 q 1935 685 1935 660 q 1879 728 1935 728 q 1850 724 1863 728 q 1838 728 1840 719 q 1843 742 1833 738 q 1925 761 1885 761 q 2039 810 2039 761 q 1958 868 2039 853 q 1842 907 1861 886 q 1838 919 1836 914 q 1846 926 1839 926 q 1876 919 1850 926 q 1921 911 1901 911 q 2070 940 1981 911 q 2218 969 2160 969 q 2338 961 2268 969 q 2436 953 2408 953 q 2638 978 2508 953 q 2650 972 2647 979 q 2644 958 2653 964 z "},"N":{"ha":2190,"x_min":-86,"x_max":2425,"o":"m 2419 967 q 2185 468 2306 803 q 2078 94 2078 171 q 2107 10 2078 76 q 2097 -4 2113 -4 q 1590 -4 1796 6 q 1581 -1 1583 -6 q 1581 10 1578 3 q 1599 69 1599 53 q 1573 188 1599 122 q 1519 321 1547 254 q 1461 165 1490 243 q 1431 36 1431 79 q 1449 0 1431 28 q 1449 -12 1451 -7 q 1438 -15 1446 -17 q 1239 -6 1360 -6 q 976 -29 1103 -6 q 965 -25 968 -31 q 968 -12 963 -19 q 1004 32 988 10 q 1065 129 1046 85 q 1031 133 1040 133 q 917 100 990 133 q 794 67 844 67 q 618 113 724 67 q 442 158 513 158 q 400 157 415 158 q 388 165 390 156 q 396 176 386 174 q 474 190 456 190 q 592 169 521 190 q 708 149 663 149 q 783 165 750 149 q 815 215 815 182 q 743 251 815 251 q 617 224 660 251 q 611 222 614 222 q 601 233 601 222 q 607 243 601 239 q 921 333 761 333 q 971 330 940 333 q 1019 326 1001 326 q 1100 371 1100 326 q 1008 425 1100 425 q 804 379 942 425 q 578 333 667 333 q 321 378 444 333 q 136 422 197 422 q -69 365 51 422 q -82 369 -79 361 q -78 383 -86 378 q 65 443 14 431 q 265 463 138 463 q 362 455 303 463 q 457 447 421 447 q 628 529 628 447 q 590 582 628 563 q 518 596 560 596 q 371 581 461 596 q 222 565 281 565 q 43 608 163 565 q 36 618 36 611 q 50 628 36 632 q 197 601 136 601 q 421 664 288 601 q 644 726 554 726 q 885 674 740 726 q 1122 622 1031 622 q 1192 635 1161 622 q 1232 685 1232 651 q 1139 728 1232 728 q 1085 722 1118 728 q 1031 717 1051 717 q 855 777 958 715 q 678 838 751 839 q 542 817 600 836 q 528 822 532 814 q 533 836 524 832 q 685 881 626 881 q 838 855 743 881 q 985 829 932 829 q 1043 844 1017 829 q 1069 885 1069 860 q 958 935 1069 921 q 782 988 825 951 q 776 1001 775 993 q 785 1008 776 1008 q 832 994 790 1008 q 903 979 874 979 q 1008 1001 944 979 q 1114 1024 1072 1024 q 1340 982 1196 1024 q 1578 940 1485 940 q 1750 949 1668 940 q 1758 947 1756 950 q 1760 939 1760 944 q 1846 592 1758 807 q 1946 869 1946 801 q 1916 900 1946 893 q 1857 913 1886 907 q 1847 922 1847 915 q 1856 932 1846 929 q 2117 952 1897 943 q 2408 982 2336 961 q 2421 979 2418 985 q 2419 967 2425 974 z "},"O":{"ha":1981,"x_min":-8,"x_max":2068,"o":"m 2068 632 q 1861 159 2068 368 q 1410 -50 1654 -50 q 1194 14 1282 -50 q 1076 132 1160 38 q 971 196 1019 196 q 832 157 915 196 q 696 118 749 118 q 603 126 660 118 q 517 135 546 135 q 461 131 489 135 q 447 142 447 128 q 456 151 447 149 q 579 169 482 161 q 707 197 668 178 q 767 294 767 226 q 736 317 767 317 q 673 307 714 317 q 604 297 632 297 q 399 358 521 297 q 194 418 276 418 q 78 385 149 418 q 63 394 63 378 q 69 404 63 401 q 269 460 181 460 q 401 443 321 460 q 529 426 482 426 q 613 471 613 426 q 457 547 613 547 q 394 542 432 547 q 328 536 356 536 q 157 557 229 536 q -3 631 85 578 q -8 640 -8 635 q 0 651 -8 651 q 6 650 3 651 q 161 604 83 604 q 329 641 229 604 q 496 678 429 678 q 724 606 589 678 q 933 535 858 535 q 983 553 961 535 q 1006 596 1006 571 q 949 647 1006 638 q 847 650 931 650 q 671 692 749 650 q 550 771 610 731 q 406 813 481 813 q 317 803 367 813 q 301 813 301 800 q 311 822 301 819 q 456 857 399 857 q 613 825 518 857 q 761 793 708 793 q 794 804 779 793 q 808 828 808 815 q 711 906 808 876 q 549 982 588 942 q 544 990 544 986 q 556 1000 544 1000 q 564 996 560 1000 q 654 950 601 958 q 757 946 678 946 q 931 891 836 946 q 1064 836 1025 836 q 1110 872 1110 836 q 1067 927 1110 896 q 981 958 1024 958 q 936 957 942 958 q 924 967 924 954 q 933 976 924 975 q 997 983 971 983 q 1153 949 1060 983 q 1308 914 1247 914 q 1419 942 1358 914 q 1536 993 1515 986 q 1728 1021 1621 1021 q 1989 904 1900 1021 q 2068 632 2068 801 m 400 124 q 271 92 329 93 q 174 120 233 90 q 69 149 115 150 q 18 143 53 149 q 6 149 10 140 q 8 160 1 156 q 151 199 81 196 q 249 167 183 200 q 340 136 315 135 q 394 140 358 136 q 404 135 401 142 q 400 124 407 126 m 1710 626 q 1689 678 1710 654 q 1642 701 1668 701 q 1476 597 1556 701 q 1396 399 1396 492 q 1420 338 1396 364 q 1481 311 1444 311 q 1538 340 1538 311 q 1500 358 1538 363 q 1490 367 1492 357 q 1494 379 1489 376 q 1611 404 1553 392 q 1676 474 1676 419 q 1601 513 1676 513 q 1538 515 1574 513 l 1514 517 q 1504 525 1504 518 q 1515 536 1504 533 q 1621 551 1546 538 q 1710 626 1710 576 z "},"P":{"ha":2233,"x_min":-43,"x_max":2378,"o":"m 2378 689 q 2135 358 2378 482 q 1713 268 1928 253 q 1653 47 1653 142 q 1679 -28 1653 18 q 1679 -39 1682 -35 q 1668 -43 1676 -44 q 1311 -28 1517 -28 q 1096 -32 1196 -28 q 1085 -24 1086 -33 q 1093 -12 1083 -14 q 1243 106 1243 19 q 1175 144 1243 144 q 937 65 1086 144 q 686 -15 788 -14 q 581 -6 644 -15 q 481 3 518 3 q 405 -12 449 3 q 360 -28 361 -28 q 351 -17 351 -28 q 357 -7 351 -10 q 517 32 406 17 q 672 63 636 50 q 743 144 743 88 q 697 196 743 178 q 608 211 660 211 q 482 201 561 211 q 350 192 403 192 q 113 249 261 192 q 106 258 106 251 q 121 268 106 275 q 258 229 208 229 q 472 279 342 229 q 689 329 603 329 q 780 325 725 329 q 869 321 835 321 q 1110 419 1110 321 q 1065 486 1110 463 q 975 506 1029 506 q 820 465 914 506 q 664 425 726 425 q 531 447 611 425 q 394 469 450 469 q 330 458 368 469 q 288 447 292 447 q 279 458 279 447 q 285 468 279 465 q 418 501 349 499 q 454 501 433 503 q 489 499 475 499 q 640 581 640 499 q 517 644 640 644 q 352 601 451 644 q 186 558 253 558 q -33 585 68 558 q -40 597 -43 588 q -28 604 -37 608 q 69 590 14 590 q 360 668 175 590 q 669 746 546 746 q 920 713 767 746 q 1133 679 1074 679 q 1181 692 1160 679 q 1207 728 1207 706 q 1164 772 1207 761 q 1081 778 1140 778 q 885 832 983 778 q 747 886 788 886 q 706 879 731 886 q 690 890 690 875 q 721 908 690 900 q 761 915 747 915 q 883 883 810 915 q 1006 851 956 851 q 1165 890 1069 851 q 1322 929 1260 929 q 1471 878 1385 929 q 1474 954 1478 917 q 1483 965 1475 960 q 1665 971 1543 964 q 1872 979 1799 979 q 2225 924 2104 979 q 2378 689 2378 854 m 638 858 q 508 826 567 828 q 412 855 471 825 q 307 883 353 885 q 256 878 290 883 q 243 883 247 875 q 246 894 239 890 q 389 933 318 931 q 487 902 421 935 q 578 871 553 869 q 632 875 596 871 q 642 869 639 876 q 638 858 644 861 m 1967 699 q 1865 749 1967 749 q 1822 747 1847 749 l 1772 575 q 1833 572 1797 572 q 1919 613 1919 572 q 1888 639 1919 631 q 1883 658 1864 644 q 1938 671 1886 660 q 1967 699 1967 678 z "},"Q":{"ha":1946,"x_min":-21,"x_max":2033,"o":"m 2033 651 q 1953 368 2033 511 q 1783 165 1883 243 q 1885 81 1818 136 q 1885 67 1893 74 q 1608 -156 1804 -22 q 1594 -153 1601 -160 l 1558 -119 q 1489 -131 1538 -124 q 1438 -125 1468 -132 q 1392 -118 1407 -118 q 1372 -119 1383 -118 q 1329 -133 1361 -121 q 1297 -144 1297 -144 q 1286 -133 1286 -144 q 1292 -124 1286 -128 q 1413 -76 1329 -100 q 1496 -37 1482 -57 l 1465 -1 q 1268 -39 1365 -39 q 1092 8 1174 -39 q 972 129 1010 54 q 867 101 907 101 q 749 124 818 101 q 633 146 679 146 q 474 78 533 146 q 465 74 469 74 q 453 85 453 74 q 456 92 453 89 q 615 189 510 163 q 779 213 697 200 q 854 269 854 225 q 785 306 854 306 q 688 282 750 306 q 583 258 625 258 q 380 324 514 258 q 154 389 246 389 q 58 374 92 389 q 42 385 42 365 q 49 396 42 392 q 228 454 147 454 q 379 429 286 454 q 533 404 472 404 q 596 444 596 404 q 442 508 596 508 q 351 504 406 508 q 260 500 297 500 q 117 526 182 500 q -14 597 69 544 q -21 607 -21 601 q -10 617 -21 617 q 43 594 -10 617 q 139 571 96 571 q 308 601 206 571 q 479 632 411 632 q 688 572 582 632 q 857 513 794 513 q 914 531 889 513 q 939 578 939 550 q 899 617 939 608 q 826 621 881 621 q 605 708 735 621 q 401 796 475 796 q 281 785 333 796 q 265 793 265 779 q 274 803 265 800 q 449 846 354 840 q 588 817 506 849 q 722 785 671 785 q 763 797 743 785 q 782 828 782 808 q 697 899 782 861 q 543 993 588 947 q 539 1001 539 997 q 549 1011 539 1011 q 557 1007 553 1011 q 629 963 589 976 q 800 924 669 949 q 956 856 857 913 q 1100 804 1043 804 q 1168 842 1168 804 q 1133 868 1168 857 q 1068 889 1076 885 q 986 940 1028 914 q 901 965 944 965 q 865 961 882 965 q 851 971 851 957 q 860 982 851 979 q 939 999 911 999 q 1057 972 986 999 q 1175 946 1128 946 q 1388 976 1253 946 q 1607 1007 1524 1007 q 1916 909 1799 1007 q 2033 651 2033 811 m 1663 643 q 1637 690 1663 671 q 1583 710 1611 710 q 1413 599 1503 710 q 1324 374 1324 488 q 1346 301 1324 331 q 1411 268 1369 268 q 1486 286 1454 268 q 1524 342 1524 307 q 1505 373 1524 361 q 1463 385 1486 385 q 1438 379 1449 385 q 1422 390 1422 372 q 1429 401 1422 397 q 1501 419 1450 411 q 1565 439 1547 428 q 1593 499 1593 457 q 1524 546 1593 546 q 1490 542 1506 546 q 1474 550 1474 536 q 1481 561 1474 557 q 1594 586 1499 572 q 1663 643 1663 594 z "},"R":{"ha":2079,"x_min":-18,"x_max":2233,"o":"m 2233 761 q 2118 518 2233 629 q 1886 386 2018 425 q 2083 10 2017 74 q 2088 -3 2090 4 q 2075 -8 2085 -8 l 1617 -6 q 1606 0 1607 -6 q 1610 13 1603 7 q 1634 33 1622 22 q 1646 56 1646 43 q 1563 271 1646 129 q 1511 56 1511 136 q 1526 4 1511 40 q 1517 -10 1532 -10 l 1067 -15 q 1056 -8 1057 -15 q 1060 3 1053 -3 q 1094 38 1078 18 q 1146 131 1131 81 q 1088 143 1108 143 q 967 104 1040 143 q 835 36 839 38 q 681 6 753 0 q 672 15 671 7 q 682 25 672 25 q 797 53 738 25 q 865 133 865 86 q 853 156 865 146 q 828 165 840 165 q 708 135 786 165 q 578 104 629 104 q 452 129 528 104 q 326 154 376 154 q 272 149 299 154 q 260 156 263 147 q 267 168 257 165 q 461 189 335 189 q 665 221 576 189 q 800 281 732 250 q 954 313 875 313 q 996 311 967 313 q 1040 310 1025 310 q 1128 358 1128 310 q 1006 411 1128 411 q 785 365 918 411 q 563 318 651 318 q 362 357 483 318 q 160 396 240 396 q -3 358 93 396 q -18 368 -18 353 q -11 378 -18 375 q 124 440 76 424 q 267 463 189 463 q 367 458 304 463 q 469 454 429 454 q 629 517 629 454 q 524 568 629 568 q 441 562 490 568 q 360 556 392 556 q 150 599 272 556 q 143 613 140 603 q 156 618 146 622 q 250 594 219 594 q 431 642 314 594 q 624 690 549 690 q 850 644 714 690 q 1074 599 986 599 q 1165 603 1144 599 q 1215 647 1215 613 q 1168 694 1215 683 q 1081 699 1146 699 q 897 753 1006 699 q 713 807 788 807 q 599 800 639 807 q 586 808 589 799 q 593 819 583 817 q 785 851 710 851 q 915 838 836 851 q 1040 825 994 825 q 1168 883 1168 825 q 1038 956 1168 956 q 972 949 1013 956 q 906 942 932 942 q 813 951 851 942 q 806 963 803 954 q 817 971 807 972 q 833 967 819 971 q 854 964 846 964 q 978 994 906 964 q 1101 1024 1051 1024 q 1309 996 1154 1024 q 1694 968 1464 968 q 2047 949 1960 968 q 2233 761 2233 907 m 511 785 q 382 753 440 754 q 285 781 344 751 q 181 810 226 811 q 129 804 164 810 q 117 810 121 801 q 119 821 113 817 q 263 860 192 857 q 360 828 294 861 q 451 797 426 796 q 506 801 469 797 q 515 796 513 803 q 511 785 518 788 m 1824 693 q 1738 738 1824 738 q 1686 735 1715 738 l 1643 586 q 1824 693 1824 592 z "},"S":{"ha":1894,"x_min":-6,"x_max":2118,"o":"m 2113 971 q 1906 640 2011 849 q 1889 638 1899 625 q 1743 696 1846 696 q 1643 638 1643 696 q 1708 578 1643 615 q 1831 496 1797 526 q 1896 353 1896 433 q 1754 58 1896 156 q 1432 -25 1633 -25 q 1159 5 1329 -25 q 875 35 989 35 q 735 20 819 35 q 593 6 650 6 q 474 24 533 6 q 467 36 464 26 q 478 43 468 44 q 535 35 518 35 q 711 79 613 35 q 883 142 826 132 q 1019 150 951 146 q 1093 193 1093 157 q 1065 244 1093 225 q 1003 263 1038 263 q 881 235 922 263 q 875 233 878 233 q 864 244 864 233 q 869 253 864 250 q 1060 308 954 308 q 1181 294 1106 308 q 1299 279 1257 279 q 1344 292 1324 279 q 1364 326 1364 304 q 1194 401 1364 401 q 949 334 1096 401 q 703 267 803 267 q 465 326 607 267 q 228 385 322 385 q 49 342 156 385 q 35 351 35 336 q 40 360 35 357 q 290 424 181 424 q 403 415 333 424 q 513 407 472 407 q 587 424 554 407 q 619 474 619 440 q 444 558 619 558 q 344 550 404 558 q 242 542 283 542 q 0 603 106 542 q -6 611 -6 606 q 11 622 -6 629 q 146 585 76 585 q 349 631 226 585 q 554 678 472 678 q 781 620 644 678 q 1001 563 917 563 q 1083 578 1049 563 q 1125 631 1125 596 q 1044 671 1125 671 q 983 667 1025 671 q 903 664 940 664 q 690 741 828 664 q 458 818 553 818 q 324 783 406 818 q 310 792 310 778 q 315 800 310 797 q 543 861 443 861 q 687 839 600 861 q 829 817 774 817 q 871 835 849 817 q 893 875 893 853 q 818 958 893 931 q 657 994 782 972 q 510 1038 550 1013 q 504 1047 504 1042 q 521 1057 504 1064 q 644 1025 575 1025 q 737 1031 681 1025 q 828 1038 793 1038 q 1051 955 918 1038 q 1278 872 1183 872 q 1322 886 1301 872 q 1343 922 1343 900 q 1286 972 1343 972 q 1260 969 1276 972 q 1229 967 1244 967 q 1067 1006 1144 967 q 1061 1014 1061 1008 q 1071 1025 1061 1025 q 1076 1024 1074 1025 q 1172 997 1138 997 q 1300 1018 1221 997 q 1431 1039 1379 1039 q 1656 1001 1519 1039 q 1881 964 1792 964 q 2103 988 1986 964 q 2115 983 2111 989 q 2113 971 2118 978 z "},"T":{"ha":1635,"x_min":-39,"x_max":1972,"o":"m 1967 963 q 1788 636 1853 824 q 1771 631 1782 621 q 1665 644 1754 644 q 1572 643 1589 644 q 1424 308 1489 503 q 1364 64 1364 133 q 1376 -14 1364 14 q 1376 -25 1379 -21 q 1365 -28 1374 -28 q 1189 -21 1282 -22 q 915 -29 1072 -19 q 903 -24 906 -29 q 907 -12 900 -19 q 983 97 931 14 q 931 114 957 114 q 852 96 900 114 q 772 78 804 78 q 651 110 722 78 q 532 143 579 143 q 474 138 501 143 q 461 143 464 136 q 467 157 458 151 q 535 175 510 175 q 614 165 565 175 q 679 156 663 156 q 764 219 764 156 q 671 281 764 281 q 425 363 529 281 q 421 371 421 367 q 438 381 421 388 q 542 353 483 353 q 655 372 586 353 q 768 390 724 390 q 851 374 803 390 q 932 358 900 358 q 974 388 974 358 q 899 463 974 435 q 742 486 833 486 q 688 479 713 486 q 674 486 678 476 q 681 499 671 496 q 844 532 776 532 q 950 519 886 532 q 1054 507 1014 507 q 1072 506 1058 507 q 1089 506 1083 504 q 1104 514 1097 507 q 1160 624 1132 539 q 1042 631 1099 631 q 796 597 907 631 q 632 536 794 597 q 465 503 543 503 q 281 547 390 503 q 97 592 171 592 q -24 571 43 592 q -39 582 -39 567 q -32 590 -39 588 q 167 635 75 635 q 240 629 196 635 q 306 624 283 624 q 347 636 328 624 q 365 669 365 649 q 310 756 365 722 q 185 790 254 790 q 78 774 117 790 q 72 772 75 772 q 64 782 64 772 q 69 790 64 788 q 236 828 147 828 q 432 786 315 828 q 618 744 549 744 q 708 790 708 744 q 635 856 708 831 q 478 900 557 878 q 332 979 376 932 q 328 988 328 983 q 338 997 328 997 q 346 994 342 997 q 538 925 431 925 q 717 963 607 925 q 899 1001 826 1001 q 1067 975 946 1001 q 1350 949 1188 949 q 1956 979 1824 949 q 1969 975 1965 982 q 1967 963 1972 969 z "},"U":{"ha":2215,"x_min":15,"x_max":2471,"o":"m 2463 974 q 2297 632 2374 908 q 2122 193 2211 314 q 1644 -25 1964 -25 q 1429 18 1526 -25 q 1285 144 1326 64 q 1143 185 1215 165 q 1006 206 1071 206 q 836 163 956 206 q 607 119 717 119 q 471 132 557 119 q 461 143 461 133 q 472 151 463 153 q 539 146 526 146 q 781 229 639 146 q 1022 313 922 313 q 1072 311 1042 313 q 1119 310 1101 310 q 1200 357 1200 310 q 1158 396 1200 389 q 1081 399 1144 399 q 853 339 992 399 q 621 279 714 279 q 412 311 539 279 q 204 343 285 343 q 31 294 139 343 q 15 304 15 288 q 21 314 15 311 q 210 399 133 375 q 413 425 299 425 q 495 422 444 425 q 576 418 546 418 q 732 499 732 418 q 610 571 732 571 q 522 561 576 571 q 433 551 468 551 q 231 597 343 551 q 224 607 224 600 q 238 617 224 622 q 358 592 307 592 q 531 636 428 592 q 697 681 633 681 q 939 635 793 681 q 1171 589 1085 589 q 1290 640 1290 589 q 1273 681 1290 664 q 1232 699 1256 699 q 1172 690 1208 699 q 1108 682 1135 682 q 908 733 1028 682 q 710 785 788 785 q 606 764 672 785 q 592 774 592 760 q 599 783 592 781 q 806 831 726 831 q 948 815 861 831 q 1085 799 1035 799 q 1144 817 1115 799 q 1172 856 1172 835 q 1111 918 1172 904 q 974 926 1085 924 q 826 946 875 928 q 819 960 817 950 q 832 965 822 968 q 933 949 885 949 q 1062 976 985 949 q 1189 1003 1139 1003 q 1433 969 1285 1003 q 1676 935 1581 935 q 1828 957 1726 935 q 1840 954 1836 958 q 1839 942 1844 949 q 1729 692 1789 872 q 1661 361 1661 489 q 1685 309 1661 331 q 1739 288 1708 288 q 1863 393 1810 288 q 1901 510 1901 472 q 1884 551 1901 533 q 1842 569 1867 569 q 1788 543 1818 569 q 1779 540 1783 540 q 1768 550 1768 540 q 1771 557 1768 554 q 1889 643 1800 601 q 1971 750 1933 664 q 2001 860 2001 822 q 1911 908 2001 915 q 1899 917 1901 907 q 1907 928 1897 925 q 2028 953 1964 949 q 2217 954 2057 954 q 2335 967 2275 954 q 2456 992 2396 979 q 2468 986 2465 993 q 2463 974 2471 979 z "},"V":{"ha":2078,"x_min":-29,"x_max":2532,"o":"m 2526 971 q 2372 799 2481 936 q 2172 522 2269 667 q 1871 31 1871 74 q 1881 -11 1871 18 q 1881 -21 1883 -18 q 1869 -24 1878 -25 q 1710 -15 1803 -17 q 1344 -28 1613 -14 q 1332 -21 1335 -28 q 1336 -10 1329 -14 q 1358 11 1349 0 q 1383 68 1381 38 q 1361 69 1374 69 q 1238 28 1310 69 q 1117 -12 1167 -12 q 1019 -4 1088 -8 q 900 -29 960 -3 q 883 -19 883 -36 q 890 -10 883 -12 q 986 17 919 6 q 1075 38 1053 28 q 1115 100 1115 57 q 1096 126 1115 115 q 1056 136 1076 136 q 890 83 993 136 q 717 29 786 29 q 532 85 636 29 q 347 186 439 136 q 133 242 235 242 q -15 210 76 242 q -29 219 -29 204 q -22 229 -29 226 q 186 282 107 282 q 387 251 265 282 q 588 221 508 221 q 635 239 611 221 q 658 281 658 257 q 603 361 658 333 q 489 385 557 383 q 394 364 432 385 q 378 376 378 357 q 385 383 378 382 q 556 424 488 425 q 781 378 660 422 q 938 333 901 333 q 979 374 978 333 q 938 433 979 411 q 850 453 901 451 q 813 446 836 453 q 799 453 803 443 q 806 465 796 463 q 936 492 882 492 q 1069 462 989 492 q 1201 432 1150 432 q 1260 449 1233 432 q 1288 496 1288 467 q 1154 564 1288 563 q 971 541 1085 565 q 783 517 857 517 q 525 567 681 518 q 268 617 369 615 q 97 582 183 618 q 83 592 83 576 q 89 600 83 597 q 382 667 238 668 q 495 655 426 667 q 606 643 564 643 q 721 700 721 642 q 642 792 721 757 q 478 840 606 808 q 338 893 371 867 q 333 901 333 896 q 344 911 333 911 q 350 910 347 911 q 507 863 411 864 q 626 874 553 863 q 747 885 700 885 q 962 817 836 883 q 1174 749 1088 750 q 1286 772 1231 747 q 1153 858 1250 786 q 1014 915 1075 915 q 946 904 986 915 q 932 910 936 901 q 939 922 929 918 q 1076 958 1018 958 q 1165 951 1113 958 q 1251 943 1218 943 q 1399 953 1310 943 q 1546 963 1489 963 q 1656 967 1596 963 q 1764 975 1740 974 q 1774 973 1771 976 q 1775 963 1778 969 q 1733 554 1733 832 q 1738 371 1733 463 q 1875 592 1874 560 q 1843 601 1875 601 q 1799 599 1826 601 q 1785 604 1789 597 q 1790 618 1782 613 q 1876 665 1833 642 q 1958 732 1931 696 q 1994 844 1994 779 q 1977 880 1994 865 q 1936 894 1960 894 q 1886 890 1907 894 q 1875 896 1876 889 q 1882 910 1874 904 q 2174 947 1944 939 q 2515 989 2418 957 q 2532 981 2532 994 q 2526 971 2532 975 z "},"W":{"ha":2425,"x_min":-49,"x_max":2718,"o":"m 2713 974 q 2453 525 2622 881 q 2331 271 2392 399 q 2272 57 2272 136 q 2293 -24 2272 36 q 2293 -33 2296 -31 q 2282 -36 2290 -37 q 1889 -15 2063 -15 q 1721 -31 1829 -15 q 1708 -24 1711 -32 q 1715 -12 1706 -15 q 1772 251 1779 17 q 1604 -28 1619 58 q 1596 -36 1603 -35 q 1514 -43 1554 -43 q 1416 -36 1481 -43 q 1308 -29 1351 -29 q 1143 -42 1213 -29 q 1131 -35 1133 -43 q 1138 -22 1128 -26 q 1199 90 1199 1 q 1122 135 1199 135 q 940 54 1036 135 q 763 -47 833 -35 q 751 -39 753 -49 q 760 -28 750 -31 q 835 46 835 -11 q 758 82 835 82 q 675 70 736 82 q 576 58 614 58 q 349 126 508 58 q 83 193 190 193 q -33 169 43 193 q -46 176 -43 167 q -39 189 -49 185 q 117 217 42 217 q 324 186 199 217 q 531 156 450 156 q 604 178 571 156 q 638 238 638 201 q 586 303 638 275 q 478 332 535 332 q 410 322 446 332 q 375 311 374 311 q 364 322 364 311 q 369 331 364 328 q 535 363 429 363 q 708 345 601 363 q 883 328 815 328 q 967 353 929 328 q 1010 424 1010 381 q 972 483 1010 461 q 894 501 940 501 q 783 483 851 501 q 669 465 714 465 q 479 508 603 465 q 275 551 356 551 q 97 497 206 551 q 81 507 81 489 q 86 517 81 514 q 251 600 183 578 q 433 628 332 628 q 512 624 463 628 q 592 619 561 619 q 690 674 690 619 q 606 751 690 732 q 424 779 515 765 q 250 869 306 804 q 247 878 247 874 q 257 888 247 888 q 265 885 261 888 q 428 831 331 831 q 533 838 468 831 q 639 844 597 844 q 859 779 728 844 q 1078 714 990 714 q 1196 776 1196 714 q 1113 850 1196 831 q 933 874 1022 861 q 768 929 817 889 q 764 942 761 935 q 774 947 765 947 q 831 932 775 947 q 922 917 886 917 q 1078 949 985 917 q 1233 981 1172 981 q 1390 956 1276 981 q 1576 931 1503 931 q 1626 933 1601 931 q 1637 931 1633 933 q 1638 921 1640 928 q 1611 792 1622 857 q 1576 486 1583 633 l 1589 483 q 1771 868 1771 800 q 1754 881 1771 879 q 1724 883 1724 883 q 1722 901 1704 889 q 1903 933 1761 929 q 2075 956 2044 938 q 2088 956 2082 960 q 2090 943 2092 951 q 2067 696 2067 842 q 2065 585 2067 660 q 2065 489 2064 526 l 2079 486 q 2187 724 2133 604 q 2240 885 2240 844 q 2225 899 2240 896 q 2196 903 2197 901 q 2188 911 2188 904 q 2194 921 2188 917 q 2450 967 2249 958 q 2701 992 2664 975 q 2708 993 2704 993 q 2717 988 2714 993 q 2713 974 2718 981 z "},"X":{"ha":1988,"x_min":-6,"x_max":2283,"o":"m 2276 982 q 2071 794 2161 881 q 1789 482 1853 586 q 1856 218 1828 300 q 1976 7 1904 72 q 1981 -4 1983 1 q 1968 -10 1978 -11 q 1778 0 1865 0 q 1479 -10 1581 0 q 1467 -3 1469 -11 q 1472 10 1464 4 q 1535 100 1535 40 q 1496 260 1535 143 q 1346 26 1346 113 q 1350 5 1346 13 q 1351 -7 1354 -3 q 1340 -11 1349 -12 q 1186 -6 1292 -6 q 1109 -12 1156 -6 q 1031 -19 1063 -19 q 835 26 953 -19 q 642 72 718 72 q 446 7 517 72 q 439 4 442 4 q 429 14 429 4 q 432 21 429 17 q 628 108 486 81 q 854 144 740 126 q 963 233 963 171 q 935 281 963 263 q 875 300 908 300 q 774 267 846 300 q 633 233 701 233 q 405 292 531 233 q 192 350 279 350 q 122 338 167 350 q 108 344 113 335 q 115 357 106 354 q 264 385 194 385 q 401 367 318 385 q 531 349 485 349 q 593 367 565 349 q 621 414 621 386 q 554 485 621 461 q 425 503 503 503 q 353 499 397 503 q 281 494 310 494 q 4 558 150 494 q -3 571 -6 563 q 11 576 1 579 q 158 549 97 549 q 321 586 204 549 q 514 624 438 624 q 722 572 610 624 q 918 475 821 524 q 1144 424 1036 424 q 1300 522 1217 424 q 1228 575 1264 575 q 1165 567 1204 575 q 1100 558 1125 558 q 952 618 1044 558 q 794 678 860 678 q 717 665 751 678 q 703 675 703 660 q 710 685 703 682 q 847 718 800 718 q 942 708 885 718 q 1036 699 1000 699 q 1071 713 1054 699 q 1088 747 1088 728 q 986 806 1088 806 q 928 800 964 806 q 869 794 893 794 q 663 858 807 794 q 433 921 519 921 q 376 915 404 921 q 364 924 367 914 q 371 935 361 932 q 446 949 426 949 q 618 924 515 949 q 792 899 721 899 q 958 943 843 899 q 1147 988 1072 988 q 1313 974 1213 988 q 1478 960 1414 960 q 1607 974 1525 960 q 1618 965 1617 975 q 1628 888 1622 925 q 1660 743 1640 800 q 1776 906 1776 854 q 1721 926 1776 931 q 1708 933 1711 925 q 1717 946 1707 943 q 1983 968 1778 968 q 2267 999 2149 968 q 2281 994 2276 1001 q 2276 982 2283 989 z "},"Y":{"ha":1843,"x_min":0,"x_max":2313,"o":"m 2306 969 q 2032 692 2208 890 q 1724 339 1878 515 q 1671 160 1697 250 q 1643 22 1643 65 q 1679 -14 1643 7 q 1685 -26 1688 -18 q 1672 -33 1682 -35 q 1447 -11 1557 -11 q 1154 -40 1279 -11 q 1140 -33 1143 -43 q 1149 -21 1139 -25 q 1271 156 1238 11 q 1185 183 1224 183 q 1060 155 1136 183 q 932 126 983 126 q 782 166 871 126 q 633 206 693 206 q 543 183 593 206 q 529 193 529 176 q 536 203 529 200 q 689 238 632 238 q 765 234 718 238 q 838 231 811 231 q 883 244 863 231 q 903 281 903 258 q 808 344 903 344 q 715 329 750 344 q 699 339 699 322 q 706 349 699 346 q 897 407 817 407 q 1040 382 954 407 q 1178 357 1126 357 q 1249 377 1217 357 q 1282 431 1282 397 q 1065 522 1282 522 q 820 456 967 522 q 574 392 674 390 q 360 445 488 392 q 146 499 232 499 q 15 464 99 499 q 0 474 0 457 q 6 482 0 479 q 217 547 126 547 q 342 533 267 547 q 467 519 418 519 q 533 547 503 519 q 564 610 564 574 q 489 714 564 674 q 339 750 422 750 q 242 731 296 750 q 228 740 228 725 q 235 750 228 747 q 372 781 318 781 q 619 710 471 781 q 868 640 768 640 q 922 672 922 640 q 868 733 922 710 q 761 749 818 753 q 750 757 750 747 q 758 768 749 767 q 794 771 776 771 q 935 742 842 771 q 1090 713 1029 713 q 1149 726 1124 713 q 1179 772 1179 743 q 1118 814 1179 808 q 1007 814 1118 814 q 703 857 829 814 q 529 935 701 857 q 347 971 440 975 q 335 979 336 971 q 344 990 335 989 q 396 996 389 996 q 569 953 465 996 q 744 911 672 911 q 979 953 836 911 q 1217 994 1122 994 q 1370 971 1278 994 q 1522 947 1463 947 q 1596 961 1540 947 q 1608 951 1607 964 l 1643 669 q 1801 890 1801 844 q 1772 917 1801 911 q 1717 919 1744 918 q 1707 928 1707 921 q 1715 939 1706 936 q 1901 968 1810 963 q 2071 964 1954 965 q 2297 988 2185 967 q 2310 982 2307 989 q 2306 969 2313 975 m 478 168 q 349 136 407 138 q 252 165 311 135 q 147 193 193 194 q 96 188 131 193 q 83 193 88 185 q 86 204 79 200 q 229 243 158 240 q 327 212 261 244 q 418 181 393 179 q 472 185 436 181 q 482 179 479 186 q 478 168 485 171 z "},"Z":{"ha":2022,"x_min":-60,"x_max":2267,"o":"m 2264 964 q 2224 864 2242 914 q 2149 643 2176 744 q 2142 636 2149 636 q 1913 489 2074 621 q 1658 274 1786 381 q 1764 265 1685 272 q 1864 261 1822 261 q 2010 294 1931 261 q 2024 292 2019 299 q 2021 278 2028 285 q 1972 203 1994 244 q 1901 -22 1921 101 q 1890 -31 1899 -33 q 1314 -12 1636 -12 q 978 -31 1164 -12 q 967 -24 968 -32 q 975 -11 965 -14 q 1079 135 1050 15 q 961 101 1013 101 q 868 111 925 101 q 781 121 811 121 q 658 64 701 121 q 650 60 656 60 q 639 71 639 60 q 642 78 639 75 q 811 161 675 121 q 926 240 926 196 q 888 269 926 269 q 784 249 847 269 q 679 229 721 229 q 440 298 582 229 q 203 367 299 367 q 113 350 171 367 q 99 357 103 347 q 106 369 96 367 q 229 396 183 396 q 381 372 289 396 q 531 347 472 347 q 599 369 568 347 q 629 425 629 392 q 543 494 629 482 q 385 497 519 497 q 157 515 242 497 q -53 610 46 540 q -57 621 -60 614 q -49 628 -56 628 q -43 626 -46 628 q 186 571 74 571 q 383 598 263 571 q 582 625 504 625 q 824 558 697 625 q 1028 429 825 557 q 1229 344 1146 356 l 1611 643 q 1553 656 1579 651 q 1506 660 1528 660 q 1328 610 1440 660 q 1142 558 1217 560 q 932 607 1039 557 q 751 703 842 654 q 542 754 644 754 q 434 742 501 754 q 321 733 367 731 q 235 742 269 736 q 226 753 225 743 q 239 761 229 763 q 274 758 254 758 q 435 783 313 758 q 632 807 558 807 q 726 795 669 807 q 815 783 783 783 q 851 794 835 783 q 868 822 868 806 q 801 901 868 869 q 667 931 740 931 q 578 914 615 931 q 563 924 563 907 q 569 933 563 932 q 697 957 651 957 q 892 908 792 957 q 1060 817 976 863 q 1256 768 1160 768 q 1290 786 1272 768 q 1307 825 1307 804 q 1225 911 1307 889 q 1058 929 1190 921 q 919 960 951 935 q 915 974 911 967 q 928 978 918 982 q 969 967 961 967 q 1119 986 1028 967 q 1269 1006 1210 1006 q 1492 975 1290 1006 q 1869 944 1693 944 q 2254 978 2042 944 q 2264 975 2261 979 q 2264 964 2267 971 z "},"[":{"ha":410,"x_min":0,"x_max":638,"o":"m 635 1100 l 582 907 q 572 897 579 897 l 504 897 l 283 74 l 346 74 q 356 61 358 74 l 304 -132 q 294 -142 301 -142 l 14 -142 q 4 -128 0 -142 l 335 1106 q 344 1113 336 1113 l 625 1113 q 635 1100 638 1113 z "},"\\":{"ha":500,"x_min":38,"x_max":536,"o":"m 528 -29 q 506 -56 536 -56 l 371 -56 q 358 -46 358 -56 l 44 982 q 67 1007 38 1007 l 200 1007 q 213 999 210 1007 l 528 -29 z "},"]":{"ha":410,"x_min":13,"x_max":650,"o":"m 647 1099 l 317 -133 q 307 -143 314 -143 l 26 -143 q 17 -129 13 -143 l 68 65 q 78 72 69 72 l 143 72 l 365 896 l 304 896 q 294 910 290 896 l 347 1104 q 357 1111 349 1111 l 638 1111 q 647 1099 650 1111 z "},"^":{"ha":486,"x_min":178,"x_max":628,"o":"m 626 1028 q 621 1024 628 1024 l 503 1024 q 488 1031 493 1024 l 443 1122 l 313 1022 q 301 1018 308 1018 l 183 1018 q 178 1019 178 1018 q 181 1025 179 1021 l 379 1204 q 404 1213 392 1213 l 558 1213 q 572 1207 571 1213 l 626 1028 z "},"_":{"ha":965,"x_min":-58,"x_max":1019,"o":"m 1014 -103 l 992 -181 q 975 -194 988 -194 l -35 -194 q -51 -172 -58 -194 l -29 -94 q -12 -82 -25 -82 l 997 -82 q 1014 -103 1019 -82 z "},"`":{"ha":283,"x_min":169,"x_max":361,"o":"m 360 1018 q 356 1013 361 1013 l 257 1013 q 244 1022 247 1013 l 171 1246 q 175 1250 169 1250 l 303 1250 q 315 1242 310 1250 l 360 1018 z "},"a":{"ha":969,"x_min":-53,"x_max":996,"o":"m 996 581 q 933 388 996 504 q 869 224 869 272 q 900 203 869 210 q 950 217 928 196 q 963 219 956 224 q 965 207 969 215 q 919 7 919 96 q 907 -3 919 -6 q 561 -19 656 6 q 549 -17 551 -22 q 550 -4 544 -11 q 586 82 561 11 q 454 -3 501 19 q 313 -36 386 -36 q 154 56 219 -36 q 94 39 118 39 q 31 63 69 39 q -37 83 -7 86 q -49 90 -47 82 q -40 103 -50 100 q -7 110 -24 110 q 35 103 7 110 q 83 96 64 96 q 136 113 110 96 q 199 260 150 193 q 113 239 174 257 q 32 222 60 222 q 11 224 21 222 q 3 236 1 226 q 13 244 3 244 q 128 307 128 244 q 100 332 128 332 q 49 324 86 332 q -6 315 11 315 q -26 318 -14 315 q -43 321 -37 321 q -53 332 -53 322 q -40 340 -51 340 q 49 362 0 338 q 131 386 97 386 q 213 367 164 386 q 294 346 263 347 q 643 446 451 446 q 576 497 646 497 q 389 454 456 497 q 376 453 382 449 q 374 465 371 457 q 382 531 376 488 q 328 526 354 526 q 199 544 299 526 q 190 556 189 546 q 200 564 190 564 q 335 601 335 564 q 293 644 335 635 q 213 650 269 650 q 163 640 188 650 q 150 647 153 636 q 156 660 146 657 q 268 682 225 682 q 356 674 303 682 q 444 667 410 667 q 620 703 493 667 q 821 740 747 740 q 940 699 889 740 q 996 581 996 653 m 606 326 q 482 274 536 307 q 417 189 417 232 q 464 156 417 156 q 558 183 517 156 l 606 326 z "},"b":{"ha":1154,"x_min":-18,"x_max":1167,"o":"m 1167 469 q 1100 263 1167 382 q 926 57 1031 139 q 686 -36 808 -36 q 504 44 603 -36 l 479 -6 q 469 -11 474 -11 l 146 -11 q 135 -4 136 -11 q 139 8 132 3 q 178 51 160 28 q 242 176 219 107 q 185 207 217 207 q 119 199 149 207 q 106 208 106 194 q 114 218 106 217 q 186 250 129 221 q 269 274 233 274 l 317 403 l 299 403 q 249 391 279 403 q 199 379 218 379 q 121 397 168 379 q 42 414 74 414 q -4 403 24 414 q -18 413 -18 397 q -12 422 -18 419 q 82 443 32 443 q 108 439 92 443 q 133 435 124 435 q 188 447 164 435 q 213 481 213 460 q 139 543 213 528 q 31 561 85 553 q 24 574 21 565 q 36 581 26 583 q 99 578 63 575 q 164 583 151 583 q 248 556 199 583 q 331 528 297 528 q 358 532 342 528 l 463 768 q 422 763 456 768 q 353 758 389 758 q 238 774 299 758 q 229 785 228 776 q 242 793 232 793 q 386 824 308 789 q 506 872 485 868 l 551 968 q 561 974 557 974 q 885 1000 711 982 q 897 1000 893 1004 q 899 988 901 996 l 781 689 q 872 711 824 708 q 964 713 885 713 q 1111 636 1051 713 q 1167 469 1167 564 m 838 426 q 817 478 838 457 q 767 500 797 500 q 674 457 697 500 l 582 215 q 631 211 615 211 q 729 234 682 211 q 776 286 776 257 q 765 310 776 299 q 742 321 754 321 q 685 310 703 321 q 671 313 675 306 q 674 328 665 319 q 771 361 683 336 q 838 426 838 381 z "},"c":{"ha":776,"x_min":-6,"x_max":943,"o":"m 938 686 q 792 464 860 625 q 778 458 788 454 q 694 474 740 474 q 550 426 615 474 q 485 313 485 378 q 512 241 485 271 q 578 211 539 211 q 731 260 650 211 q 746 258 740 264 q 746 244 751 253 q 647 -3 694 171 q 642 -10 647 -10 q 444 -36 556 -36 q 222 89 325 -36 q 140 113 189 111 q 56 111 185 111 q 44 121 44 111 q 54 132 43 131 q 182 194 126 138 q 179 311 168 249 q 47 332 113 332 q 8 331 28 332 q -4 339 -3 329 q 6 350 -6 349 q 114 383 49 354 q 206 410 175 410 q 271 507 232 456 q 188 540 235 531 q 179 551 178 542 q 189 560 179 561 q 276 586 276 551 q 218 618 276 618 q 193 616 208 618 q 168 614 178 614 q 128 621 157 614 q 121 632 118 624 q 133 640 124 642 q 219 655 165 638 q 304 672 272 672 q 367 661 333 672 q 425 638 396 649 q 717 731 554 731 q 823 713 772 731 q 882 696 874 696 q 925 704 914 696 q 943 694 943 713 q 938 686 943 690 z "},"d":{"ha":1111,"x_min":7,"x_max":1314,"o":"m 1308 981 q 1104 486 1226 853 q 1014 221 1060 353 q 967 13 967 71 q 971 -17 967 -6 q 971 -26 974 -24 q 960 -29 968 -29 q 644 -29 814 -17 q 633 -26 638 -31 q 633 -17 631 -22 q 644 26 638 1 q 433 -42 550 -42 q 193 146 260 -42 q 136 158 153 158 q 76 153 122 158 q 17 154 43 149 q 8 165 7 156 q 19 174 10 174 q 107 210 53 174 q 192 258 172 251 q 228 375 203 322 q 147 400 197 400 q 76 403 96 400 q 67 413 67 404 q 76 422 67 421 q 158 447 103 426 q 240 465 206 465 q 271 463 243 465 l 296 497 q 153 522 225 522 q 35 504 85 522 q 19 514 19 499 q 26 524 19 521 q 183 553 68 544 q 272 585 272 558 q 236 618 272 606 q 176 647 189 635 q 172 656 172 651 q 183 665 172 665 q 190 663 186 665 q 253 643 213 643 q 315 651 278 643 q 376 658 353 658 q 451 635 408 658 q 681 715 543 715 q 857 656 771 715 l 899 782 q 797 822 844 822 q 748 816 775 822 q 668 814 721 810 q 660 825 658 814 q 671 833 661 835 q 689 832 679 832 q 775 856 715 832 q 874 879 835 879 l 919 879 l 938 954 q 947 960 939 960 q 1294 996 1210 954 q 1308 994 1303 1000 q 1308 981 1314 989 m 763 460 q 718 482 736 482 q 585 421 643 482 q 528 297 528 360 q 548 233 528 261 q 601 206 568 206 q 700 243 671 206 l 718 303 q 672 328 696 328 q 603 315 625 328 q 589 317 593 311 q 589 331 583 322 q 676 375 608 361 q 744 401 740 389 l 763 460 z "},"e":{"ha":901,"x_min":-78,"x_max":964,"o":"m 964 472 q 946 299 964 410 q 936 289 943 289 l 492 289 q 529 217 490 242 q 611 196 563 196 q 815 256 738 196 q 829 257 824 263 q 831 242 835 251 q 793 44 811 201 q 789 36 793 39 q 519 -44 685 -44 q 199 122 253 -44 q 42 132 103 111 q 32 143 32 135 q 42 151 32 150 q 117 182 83 160 q 158 250 158 211 q 114 307 158 290 q 19 322 94 314 q -69 347 -44 331 q -75 360 -78 353 q -62 365 -72 367 q -26 361 -43 361 q 45 378 1 361 q 118 396 89 396 q 185 383 143 396 q 249 499 201 426 q 118 515 158 499 q 111 525 111 518 q 126 535 111 542 q 149 531 135 531 q 192 542 172 531 q 210 574 213 554 q 144 610 206 610 q 114 608 133 610 q 82 606 94 606 q 14 613 64 606 q 6 624 4 614 q 17 632 7 633 q 112 647 54 626 q 203 667 169 667 q 267 647 226 667 q 343 622 307 626 q 689 740 558 740 q 881 671 804 740 q 964 472 964 596 m 726 479 q 713 523 726 504 q 676 542 699 542 q 540 450 613 542 l 717 447 q 726 479 726 467 z "},"f":{"ha":724,"x_min":-22,"x_max":1028,"o":"m 1024 994 l 901 774 q 890 768 897 765 q 868 769 881 769 q 726 682 764 769 q 853 682 853 682 q 864 678 860 682 q 864 667 867 674 q 757 446 828 600 q 749 439 754 439 l 640 439 q 550 246 592 351 q 493 -10 485 79 q 491 -19 494 -15 q 482 -21 488 -22 l 258 -7 l 143 -12 q 132 -8 135 -12 q 132 3 128 -4 l 221 176 q 168 215 207 207 q 93 218 151 218 q 1 250 46 218 q -4 258 -4 254 q 13 267 -4 274 q 69 250 53 250 q 152 268 103 250 q 233 286 201 286 q 260 283 232 286 l 304 425 l 208 425 q 199 440 192 425 l 233 525 q 146 515 181 515 q 47 532 94 515 q 40 544 38 535 q 53 551 43 553 q 99 547 72 547 q 161 581 161 547 q 122 610 161 607 q 54 608 144 608 q -15 631 14 608 q -19 643 -22 636 q -11 650 -18 650 q -6 649 -8 650 q 51 636 25 636 q 119 643 78 636 q 188 650 161 650 q 267 633 221 650 l 285 674 q 294 679 290 679 l 388 679 l 431 782 q 369 774 399 774 q 286 804 326 774 q 281 813 281 808 q 290 822 281 822 q 297 821 294 822 q 342 813 317 813 q 415 851 415 813 q 364 876 415 876 q 325 872 349 876 q 288 868 301 868 q 192 878 243 867 q 183 889 182 881 q 194 897 185 899 q 256 894 224 894 q 353 919 294 894 q 453 943 413 943 q 542 918 488 943 q 814 1004 667 1004 q 878 997 839 1004 q 940 989 917 989 q 1010 1008 967 989 q 1024 1007 1018 1013 q 1024 994 1028 1003 z "},"g":{"ha":1040,"x_min":-153,"x_max":1176,"o":"m 1169 683 q 1089 492 1100 608 q 1081 482 1086 483 l 1022 472 q 880 286 985 353 q 638 219 775 219 q 528 231 613 219 q 461 192 461 211 q 497 176 461 178 q 563 176 483 176 q 907 -11 907 176 q 707 -286 907 -192 q 321 -361 547 -361 q 128 -319 211 -361 q 15 -194 35 -274 q -57 -175 0 -186 q -143 -157 -121 -164 q -150 -144 -153 -154 q -139 -137 -149 -136 q -26 -118 -89 -143 q 82 -86 49 -89 q 194 -18 108 -65 q 131 64 131 19 q 146 136 131 103 q 99 106 139 133 q 50 86 68 86 q -5 91 28 86 q -57 96 -37 96 q -97 93 -76 96 q -110 100 -107 92 q -103 113 -112 108 q -11 133 -93 118 q 53 168 53 146 q 11 197 53 186 q -81 232 -50 213 q -86 246 -90 238 q -74 251 -83 256 q 32 232 -28 235 q 115 246 64 231 q 196 261 165 261 q 269 243 225 261 l 358 278 l 265 376 l 153 388 q 144 399 143 389 q 154 407 144 408 q 244 431 204 401 q 285 508 285 461 q 203 544 285 543 q 53 568 93 547 q 47 582 44 574 q 60 588 50 589 q 117 581 93 581 q 210 603 154 581 q 304 625 267 625 l 378 625 q 481 686 417 658 q 690 732 583 732 q 926 671 814 732 q 1161 701 1018 682 q 1174 697 1171 703 q 1169 683 1176 690 m 746 528 q 693 561 746 561 q 611 506 649 561 q 581 429 581 460 q 619 399 581 399 q 669 412 643 399 q 694 438 694 425 q 660 447 694 451 q 649 456 650 446 q 657 467 647 467 q 719 488 692 469 q 746 528 746 506 m 579 -87 q 563 -60 579 -71 q 525 -50 546 -50 q 367 -124 367 -50 q 446 -156 367 -156 q 537 -137 494 -156 q 579 -87 579 -118 z "},"h":{"ha":1047,"x_min":-31,"x_max":1158,"o":"m 1158 592 q 1113 425 1158 533 q 1029 224 1029 225 q 983 -3 983 97 q 969 -12 983 -14 q 869 -6 906 -6 q 747 -1 867 -6 q 622 -7 685 0 q 613 -4 615 -8 q 614 7 611 0 q 771 411 771 350 q 747 453 771 453 q 667 371 704 453 q 588 150 621 269 q 557 -6 558 43 q 547 -17 557 -17 l 186 -19 q 174 -11 176 -19 q 179 1 171 -4 q 224 67 224 28 q 160 93 224 93 q 107 88 140 93 q 53 83 74 83 q -21 100 26 83 q -28 113 -31 103 q -14 119 -24 122 q 50 111 19 111 q 149 140 93 111 q 256 179 211 174 l 294 301 q 128 344 226 338 q 119 354 118 344 q 129 364 119 364 q 236 390 181 364 q 332 426 301 421 l 371 550 q 338 556 350 556 q 263 537 307 556 q 192 518 219 518 q 117 524 163 518 q 43 529 72 529 q -1 522 24 529 q -15 532 -15 518 q -8 542 -15 539 q 153 575 46 563 q 221 610 221 583 q 135 660 221 660 q 92 656 111 660 q 79 663 82 653 q 86 675 76 672 q 231 692 154 692 q 299 675 258 692 q 367 658 340 658 q 407 672 386 658 l 456 797 q 329 843 426 836 q 203 868 225 850 q 199 881 196 874 q 211 886 201 888 q 263 883 233 883 q 344 905 296 883 q 426 926 393 926 q 506 914 460 926 l 529 979 q 539 986 532 989 q 761 976 656 976 q 893 982 838 976 q 904 978 901 983 q 904 967 907 974 q 854 868 878 917 q 769 667 799 751 q 1000 743 922 743 q 1110 701 1063 743 q 1158 592 1158 660 z "},"i":{"ha":546,"x_min":10,"x_max":767,"o":"m 760 964 l 667 728 q 657 722 664 722 l 379 729 q 369 743 365 729 l 403 839 q 317 865 386 864 q 192 878 226 865 q 183 889 182 881 q 193 897 183 896 q 303 924 244 904 q 386 938 346 938 q 439 935 406 938 l 454 972 q 464 978 460 978 l 750 978 q 760 964 767 978 m 653 657 q 567 446 608 551 q 406 -21 469 192 q 394 -26 403 -29 q 69 -24 278 -14 q 57 -17 60 -25 q 63 -4 54 -10 q 117 64 117 31 q 96 94 117 83 q 54 101 75 106 q 39 111 39 99 q 46 121 39 117 q 101 138 64 132 q 133 154 128 140 l 181 281 q 114 304 172 301 q 18 321 43 307 q 13 333 10 325 q 25 340 15 342 q 113 358 65 335 q 190 382 161 382 q 224 379 193 382 l 256 472 q 201 493 238 476 q 150 506 172 506 q 96 497 121 506 q 83 504 86 493 q 90 517 81 514 q 124 528 93 517 q 160 535 144 535 q 224 550 224 535 q 171 571 224 564 q 51 619 100 581 q 46 629 46 624 q 56 639 46 639 q 87 631 63 639 q 122 621 111 622 q 165 618 139 618 q 201 624 178 618 q 240 629 225 629 q 315 611 271 629 l 340 671 q 350 676 346 676 l 643 671 q 653 657 660 671 z "},"j":{"ha":722,"x_min":-257,"x_max":892,"o":"m 886 975 l 789 729 q 779 724 786 724 l 488 732 q 478 746 474 732 l 501 815 q 486 819 492 819 q 460 815 475 819 q 435 811 444 811 q 307 815 338 811 q 299 825 297 817 q 310 835 300 835 q 418 865 418 835 q 371 893 418 886 q 282 917 307 901 q 275 928 275 921 q 290 936 275 943 q 372 921 325 921 q 431 938 396 921 q 489 954 465 954 q 558 942 517 954 l 575 986 q 585 992 578 992 l 876 989 q 886 975 892 989 m 776 663 l 465 -121 q 164 -339 379 -339 q -21 -315 64 -339 q -26 -301 -29 -312 l -17 -268 q -54 -268 -39 -271 q -125 -252 -82 -268 q -193 -237 -168 -236 q -204 -229 -203 -237 q -196 -218 -206 -219 q -172 -217 -186 -217 q -139 -219 -161 -217 q -107 -221 -117 -221 q -74 -194 -74 -221 q -126 -161 -74 -164 q -247 -149 -219 -157 q -254 -136 -257 -146 q -243 -129 -253 -128 q -218 -132 -231 -132 q -128 -114 -189 -132 q -31 -96 -67 -96 q 61 -121 8 -96 q 129 -93 94 -118 q 222 50 189 -49 q 146 76 207 76 q 99 74 128 76 q 53 71 69 71 q -35 97 22 71 q -42 110 -44 101 q -28 115 -37 118 q 39 104 11 104 q 138 136 68 104 q 263 160 203 165 l 311 290 q 249 301 293 300 q 154 311 193 301 q 146 321 144 314 q 157 331 147 329 q 261 363 201 336 q 343 385 313 386 l 375 468 q 292 463 335 463 q 147 478 215 463 q 139 489 138 481 q 151 497 142 497 q 294 521 294 489 q 257 538 294 536 q 208 536 233 538 q 71 576 131 540 q 65 586 65 581 q 75 596 65 596 q 81 594 78 596 q 199 568 143 568 q 285 591 233 568 q 371 614 336 614 q 428 604 394 614 l 454 671 q 464 676 457 676 l 767 676 q 776 663 782 676 z "},"k":{"ha":1156,"x_min":-61,"x_max":1290,"o":"m 1282 658 q 928 350 1163 593 q 1065 -1 972 126 q 1067 -12 1069 -8 q 1056 -17 1064 -18 q 760 3 921 3 q 603 -4 676 3 q 590 1 593 -6 q 593 13 586 7 q 644 99 644 60 q 615 254 644 176 q 521 0 558 153 q 511 -10 518 -10 l 136 -7 q 124 1 126 -7 q 132 14 122 11 q 168 43 150 22 q 240 190 210 92 q 201 201 222 201 q 166 197 190 201 q 128 192 142 192 q 60 207 104 192 q -7 217 21 219 q -18 224 -17 215 q -10 236 -19 233 q 82 244 7 243 q 118 269 118 246 q 60 301 118 296 q -53 324 -22 310 q -58 338 -61 329 q -46 343 -56 346 q -3 336 -21 336 q 38 341 14 336 q 78 346 63 346 q 194 317 139 346 q 281 290 250 288 l 331 415 q 269 454 324 444 q 175 478 193 468 q 169 490 167 482 q 182 497 172 499 q 265 511 222 494 q 335 528 307 528 q 382 522 340 528 l 407 593 q 275 638 346 596 q 156 681 204 681 q 94 665 135 681 q 82 672 85 661 q 88 685 78 682 q 165 703 140 703 q 263 690 204 703 q 358 678 321 678 q 450 710 390 678 l 474 785 q 378 824 449 824 q 360 824 372 824 q 340 824 347 824 q 244 844 279 824 q 239 858 236 850 q 251 864 242 865 q 299 858 279 858 q 378 880 328 858 q 464 901 428 901 q 513 900 492 901 l 546 979 q 556 985 551 985 q 876 990 732 981 q 886 988 883 990 q 886 976 889 983 q 829 847 858 918 q 688 481 758 679 q 871 631 871 599 q 843 651 871 639 q 833 661 833 654 q 843 671 833 667 q 946 692 896 692 q 1062 679 992 692 q 1175 667 1132 667 q 1275 678 1218 667 q 1288 671 1285 679 q 1282 658 1290 663 z "},"l":{"ha":575,"x_min":-29,"x_max":871,"o":"m 867 983 q 707 575 850 957 q 583 247 644 411 q 519 8 519 69 q 521 -8 519 -1 q 519 -18 522 -15 q 511 -21 517 -21 l 322 -18 l 131 -24 q 119 -17 121 -24 q 125 -6 118 -11 q 168 42 149 15 q 232 188 214 104 q 180 183 210 188 q 139 178 150 178 q 81 189 113 178 q 8 211 25 207 q 1 222 -1 214 q 13 231 3 232 q 42 229 28 229 q 158 258 92 229 q 254 286 221 288 l 299 407 q 226 417 289 417 q 176 424 196 418 q 168 435 167 426 q 179 443 169 442 q 253 465 218 446 q 324 485 289 483 l 349 563 q 282 569 315 569 q 228 566 261 569 q 168 563 194 563 q 96 569 140 563 q 31 575 51 575 q -14 569 7 575 q -26 576 -24 567 q -19 589 -29 586 q 119 603 -1 594 q 188 646 188 608 q 156 672 188 664 q 92 676 125 681 q 81 685 82 675 q 88 696 78 693 q 147 704 124 704 q 242 683 185 704 q 336 663 300 663 q 389 674 360 663 l 417 767 q 339 793 388 771 q 261 813 296 813 q 210 807 235 813 q 197 813 200 806 q 203 826 194 821 q 311 857 253 857 q 363 854 325 857 q 411 854 392 851 q 464 867 438 856 l 511 982 q 522 988 514 988 q 857 999 706 976 q 868 994 864 1000 q 867 983 871 990 z "},"m":{"ha":1389,"x_min":4,"x_max":1439,"o":"m 1439 564 q 1360 295 1439 479 q 1281 42 1281 111 q 1290 6 1281 35 q 1290 -4 1293 -1 q 1279 -7 1288 -8 q 1100 0 1211 0 q 954 -4 1007 0 q 942 1 944 -6 q 946 14 939 7 q 1025 185 967 36 q 1088 397 1088 343 q 1078 420 1088 410 q 1058 431 1069 431 q 944 253 1017 431 q 857 -6 888 114 q 846 -12 854 -15 q 703 -3 767 -3 q 526 -10 628 -3 q 514 -4 517 -10 q 518 8 511 1 q 626 224 554 46 q 693 419 693 392 q 656 442 693 442 q 531 272 594 442 q 440 -6 485 133 q 429 -12 438 -15 q 322 -3 360 -3 q 101 -14 169 -3 q 89 -10 93 -15 q 92 3 86 -4 q 147 92 113 28 q 79 128 124 128 q 22 124 36 128 q 8 128 13 121 q 11 140 4 133 q 106 176 36 164 q 197 207 176 189 l 235 308 q 171 329 197 329 q 65 324 143 329 q 54 332 56 322 q 63 343 53 342 q 125 353 94 349 q 163 382 163 363 q 117 403 163 396 q 10 444 53 414 q 4 453 4 449 q 15 464 4 464 q 45 450 17 464 q 100 436 74 436 q 169 448 128 436 q 238 460 211 460 q 281 457 244 460 l 296 497 q 218 560 257 528 q 108 590 165 596 q 97 597 99 589 q 103 610 94 604 q 168 626 142 626 q 219 619 189 626 q 269 611 249 611 q 351 649 307 611 l 376 725 q 386 732 379 735 q 551 725 472 725 q 706 738 653 725 q 718 735 714 739 q 718 724 722 731 l 674 639 q 804 689 788 683 q 944 713 879 713 q 1033 690 996 713 q 1069 628 1069 668 l 1069 589 q 1319 696 1253 696 q 1403 656 1367 696 q 1439 564 1439 615 z "},"n":{"ha":1076,"x_min":-75,"x_max":1111,"o":"m 1111 608 q 1029 299 1111 501 q 929 1 939 78 q 919 -7 928 -7 l 575 -12 q 564 -7 567 -12 q 568 4 563 -3 q 671 229 604 43 q 735 433 735 404 q 719 464 735 464 q 586 276 663 464 q 490 -3 563 217 q 479 -10 488 -10 q 294 -6 361 -6 q 132 -18 228 -6 q 121 -12 124 -19 q 126 1 117 -6 q 146 17 136 8 q 171 61 167 38 q 132 82 146 82 q 96 80 118 82 q 58 78 74 78 q -65 104 8 78 q -72 117 -75 108 q -60 124 -71 126 q 1 117 -35 117 q 94 148 40 117 q 208 182 147 179 l 246 269 q 175 306 215 301 q 96 321 119 310 q 89 331 88 325 q 99 339 89 338 q 193 367 151 349 q 293 403 246 390 l 325 490 q 276 508 299 508 q 203 496 249 508 q 131 483 158 483 q 25 500 78 483 q 18 513 15 503 q 32 519 22 522 q 82 513 54 513 q 163 560 163 513 q 138 574 163 574 q 118 574 133 574 q 94 572 104 572 q -17 590 36 572 q -24 603 -26 593 q -11 610 -21 611 q 31 606 10 606 q 118 633 67 606 q 204 660 169 660 q 276 641 233 660 q 349 622 319 622 q 379 625 367 622 l 414 717 q 424 722 415 722 l 739 726 q 749 722 746 726 q 749 713 751 718 l 726 654 q 858 711 831 700 q 1003 738 936 738 q 1078 698 1044 738 q 1111 608 1111 658 z "},"o":{"ha":986,"x_min":-49,"x_max":1083,"o":"m 1083 478 q 903 108 1083 269 q 500 -53 724 -53 q 229 122 322 -53 q 201 129 226 129 q 138 110 186 129 q 61 92 90 92 q 35 96 49 92 q 6 104 13 103 q -1 114 -1 106 q 13 124 -1 129 q 33 121 21 121 q 93 135 65 121 q 126 178 126 151 q 110 207 126 196 q 72 218 93 218 q 17 213 54 218 q -39 211 -14 208 q -47 222 -49 213 q -36 231 -47 232 q 49 255 -12 228 q 163 282 111 282 q 211 278 186 282 q 235 340 218 306 q 114 378 203 374 q -10 410 21 382 q -14 424 -17 417 q 0 426 -10 431 q 50 413 36 413 q 151 445 92 413 q 253 478 211 478 q 303 474 271 478 q 364 543 324 504 q 342 553 353 553 q 299 546 325 553 q 256 539 272 539 q 210 544 250 539 q 201 556 200 546 q 213 564 203 565 q 285 576 242 558 q 329 608 329 594 q 282 628 329 626 q 222 626 253 626 q 175 635 197 628 q 168 646 165 638 q 181 654 171 656 q 215 653 199 653 q 354 679 288 653 q 433 706 421 706 q 483 690 456 706 q 529 669 511 674 q 789 738 669 738 q 994 663 906 738 q 1083 478 1083 589 m 758 461 q 733 488 758 488 q 607 421 671 488 q 540 274 540 350 q 553 228 540 250 q 588 207 567 207 q 671 247 628 207 q 710 313 710 286 q 697 329 710 329 q 665 326 672 329 q 650 322 657 322 q 626 346 626 322 q 638 365 626 358 q 714 394 676 381 q 758 461 758 414 z "},"p":{"ha":1092,"x_min":-103,"x_max":1178,"o":"m 1178 504 q 1110 265 1178 396 q 926 42 1038 129 q 663 -57 800 -57 q 511 3 601 -57 l 414 -321 q 404 -329 411 -329 l 32 -326 q 22 -317 22 -326 q 24 -310 22 -314 l 85 -222 q 26 -214 51 -218 q -22 -196 13 -211 q -92 -178 -56 -181 q -101 -169 -101 -176 q -93 -158 -103 -161 q -18 -148 -67 -150 q 56 -137 31 -146 q 126 -82 94 -124 l 168 28 q 114 68 150 68 q 67 61 79 68 q 54 61 60 57 q 53 72 50 65 q 134 110 63 97 q 215 153 206 124 l 242 233 q 149 217 167 217 q 94 222 135 217 q 32 226 54 226 q -28 214 -6 226 q -44 224 -44 207 q -39 232 -44 228 q 78 265 -4 257 q 138 303 138 272 q 89 331 138 326 q -17 367 22 336 q -19 379 -24 372 q -6 382 -15 386 q 47 368 36 368 q 101 375 68 368 q 156 382 133 382 q 206 372 175 382 q 260 363 238 363 q 282 364 269 363 l 324 494 q 288 542 306 518 q 233 568 265 568 q 163 558 182 568 q 157 557 160 557 q 147 567 147 557 q 153 575 147 572 q 275 607 214 607 q 322 603 278 607 q 371 607 349 600 l 417 721 q 426 726 419 726 l 743 729 q 753 726 750 729 q 753 717 754 724 l 735 658 q 854 700 836 694 q 986 721 926 721 q 1123 658 1068 721 q 1178 504 1178 594 m 839 414 q 746 468 839 468 q 664 443 697 468 l 592 254 q 664 226 625 226 q 743 247 704 226 q 782 292 782 268 q 767 308 782 308 q 743 306 763 308 q 710 303 724 303 q 684 306 696 303 q 672 315 672 308 q 683 325 674 324 q 757 353 718 329 q 829 381 796 376 q 839 414 839 393 z "},"q":{"ha":1006,"x_min":-119,"x_max":1151,"o":"m 1149 678 q 939 164 1078 549 q 808 -244 808 -203 q 821 -299 808 -261 q 821 -308 824 -304 q 810 -311 817 -312 q 671 -304 760 -304 q 467 -311 576 -304 q 457 -294 446 -311 l 496 -219 q 461 -203 479 -203 q 432 -204 450 -203 q 403 -206 414 -206 q 333 -186 375 -206 q 261 -167 290 -167 q 189 -183 226 -167 q 174 -174 174 -190 q 179 -164 174 -167 q 265 -131 242 -131 q 319 -127 288 -131 q 375 -124 350 -124 q 431 -113 394 -124 q 476 -103 468 -103 q 535 -108 503 -103 l 574 10 q 361 -46 442 -46 q 224 -4 285 -46 q 149 106 164 38 q 104 111 125 111 q 20 98 71 111 q -64 85 -31 85 q -110 92 -58 85 q -118 103 -119 93 q -107 111 -117 113 q -86 110 -99 110 q -4 126 -47 110 q 39 160 39 143 q -11 188 39 188 q -62 181 -36 188 q -78 190 -78 176 q -71 200 -78 196 q 10 219 -39 219 q 36 219 18 219 q 61 218 53 218 q 149 256 119 218 q 183 369 157 296 q 128 403 160 378 q 79 422 103 421 q 42 419 74 422 q 28 426 32 418 q 33 439 25 433 q 92 456 69 456 q 131 453 107 456 q 169 450 156 450 q 240 481 199 450 q 289 557 289 515 q 261 605 289 586 q 199 624 233 624 q 140 615 156 624 q 125 625 125 607 q 131 633 125 632 q 221 651 188 651 q 306 642 256 651 q 385 633 356 633 q 501 693 443 664 q 667 736 596 736 q 832 665 749 736 l 849 707 q 858 713 851 713 q 961 699 897 713 q 1067 685 1025 685 q 1138 693 1092 685 q 1149 690 1146 694 q 1149 678 1151 685 m 708 422 q 651 461 690 461 q 537 388 593 461 q 481 233 481 314 q 522 211 481 211 q 621 246 572 211 q 669 317 669 281 q 640 336 669 336 q 599 329 611 336 q 592 328 594 328 q 582 336 582 328 q 586 346 582 342 q 648 382 601 363 q 708 422 694 401 z "},"r":{"ha":857,"x_min":-61,"x_max":1019,"o":"m 1014 717 q 931 568 981 686 q 842 394 875 438 q 824 399 832 382 q 800 417 817 417 q 696 382 758 417 q 621 331 650 356 q 558 154 593 263 q 522 25 522 46 q 535 -10 522 13 q 535 -21 538 -17 q 522 -24 531 -25 q 349 -10 410 -10 q 153 -10 153 -10 q 142 -6 144 -10 q 142 6 138 -1 l 201 121 q 176 139 188 139 q 154 136 168 139 q 132 133 140 133 q 65 145 106 133 q 1 157 25 157 q -44 143 -11 157 q -50 142 -47 142 q -60 149 -57 142 q -56 160 -61 154 q 15 193 -29 188 q 106 196 33 196 q 169 208 129 196 q 243 218 210 221 l 288 335 l 272 335 q 226 327 254 335 q 181 319 199 319 q 103 328 142 318 q 93 338 93 331 q 103 347 93 346 q 144 353 124 350 q 182 368 165 356 q 328 438 249 417 l 346 490 q 247 535 300 535 q 211 531 233 535 q 175 526 189 526 q 109 535 150 526 q 43 543 68 543 q 1 535 29 543 q -12 542 -8 532 q -6 554 -15 551 q 43 564 22 564 q 86 559 60 564 q 128 554 113 554 q 199 599 199 554 q 156 629 199 629 q 133 627 147 629 q 111 625 119 625 q 40 638 81 625 q 33 650 31 640 q 47 657 38 660 q 93 649 75 649 q 163 660 121 649 q 231 671 204 671 q 297 646 260 671 q 376 611 338 617 l 403 685 q 397 713 406 694 q 397 724 394 719 q 408 726 400 726 q 736 725 613 722 q 746 722 743 725 q 746 713 747 719 l 721 633 q 1008 733 901 742 q 1018 728 1017 733 q 1014 717 1019 722 z "},"s":{"ha":869,"x_min":-93,"x_max":1021,"o":"m 1013 701 q 867 453 982 683 q 851 450 861 443 q 714 489 792 489 q 638 468 638 489 q 693 408 638 432 q 799 360 781 372 q 854 235 854 318 q 694 15 854 99 q 424 -53 564 -53 q 274 -42 372 -53 q 135 -36 188 -33 q 122 -31 125 -36 q 125 -19 119 -25 q 144 1 136 -10 q 172 56 167 29 q 46 81 122 86 q 33 88 36 79 q 38 100 29 94 q 103 115 53 110 q 140 140 140 119 q 119 153 140 153 q 69 146 107 153 q 14 139 31 139 q -83 172 -11 139 q -90 183 -93 175 q -78 190 -87 192 q -36 186 -57 186 q 55 215 -3 186 q 151 244 113 244 q 272 219 199 244 q 390 194 346 194 q 472 233 472 194 q 363 297 472 271 q 193 322 282 317 q 182 329 183 322 q 189 342 182 336 q 276 365 219 347 q 253 435 256 408 q 218 432 236 432 q 185 440 204 432 q 150 447 165 447 q 108 438 126 447 q 101 436 104 436 q 93 442 94 436 q 96 454 90 447 q 169 489 117 481 q 213 513 213 496 q 164 538 213 533 q 63 558 93 543 q 56 571 53 563 q 69 576 58 579 q 115 569 96 569 q 224 606 160 569 q 331 643 288 643 q 371 638 349 643 q 539 717 468 694 q 722 740 617 740 q 835 728 767 740 q 949 715 904 715 q 1008 721 958 715 q 1019 714 1018 722 q 1013 701 1021 707 z "},"t":{"ha":797,"x_min":-7,"x_max":924,"o":"m 919 746 l 797 474 q 789 467 794 467 l 690 467 q 639 317 639 388 q 653 289 639 301 q 683 276 667 276 q 771 294 731 276 q 783 294 779 299 q 785 282 788 290 l 676 18 l 671 13 q 447 -39 544 -39 q 251 85 268 -39 q 121 118 182 125 q 108 124 111 117 q 114 136 106 131 q 206 174 135 150 q 254 215 254 190 q 214 260 254 249 q 136 265 193 265 q 99 263 122 265 q 61 261 76 261 q 1 285 51 261 q -4 299 -7 290 q 8 304 -1 306 q 44 299 35 299 q 167 340 93 299 q 299 375 240 381 l 331 458 l 239 458 q 229 472 225 458 l 265 594 q 88 625 193 625 q 49 621 68 625 q 36 626 39 619 q 42 640 33 635 q 169 669 85 663 q 229 699 229 675 q 183 725 229 710 q 118 763 131 743 q 117 775 113 769 q 128 778 119 781 q 157 772 144 772 q 191 774 171 772 q 224 776 211 776 q 275 762 244 776 q 325 747 306 747 l 436 747 l 478 843 q 443 851 465 851 q 422 850 438 851 q 400 850 407 850 q 351 860 371 850 q 346 871 344 865 q 356 879 346 878 q 432 906 376 882 q 515 921 476 924 l 529 957 q 539 963 532 963 l 850 960 q 860 946 865 960 l 786 764 l 911 760 q 919 746 924 760 z "},"u":{"ha":1111,"x_min":-28,"x_max":1219,"o":"m 1217 696 q 1101 396 1149 540 q 1028 178 1065 288 q 989 8 989 54 q 993 -17 989 -8 q 993 -29 996 -24 q 981 -32 989 -35 q 843 -14 914 -14 q 646 -42 731 -14 q 633 -40 638 -44 q 633 -28 629 -36 l 658 31 q 544 -21 601 4 q 429 -46 486 -46 q 315 6 354 -46 q 271 126 286 44 q 147 131 207 138 q 135 139 138 129 q 143 150 133 147 q 215 184 174 156 q 288 219 257 213 l 304 271 q 200 258 261 258 q 140 275 186 258 q 132 286 131 278 q 143 294 133 293 q 185 298 164 296 q 206 315 206 300 q 136 339 206 335 q -18 360 33 344 q -25 371 -28 363 q -14 379 -24 381 q 14 378 0 378 q 105 394 51 378 q 194 411 158 411 q 267 413 211 411 q 340 413 307 414 l 375 503 q 267 494 322 494 q 184 510 236 494 q 111 524 132 525 q 99 532 101 524 q 107 543 97 540 q 161 549 131 551 q 213 544 217 544 q 300 589 300 544 q 258 633 300 618 q 185 644 224 647 q 172 653 175 643 q 179 664 169 661 q 231 674 218 674 q 332 654 271 674 q 426 631 399 633 l 449 694 q 458 701 451 701 l 742 704 q 751 701 749 704 q 751 692 754 697 l 618 339 q 610 292 610 317 q 623 253 610 269 q 656 238 636 238 q 729 314 690 238 q 763 403 763 381 q 746 421 763 421 q 703 413 717 421 q 690 413 696 408 q 690 426 686 418 q 747 463 701 447 q 797 492 792 479 q 865 663 865 643 q 857 671 865 668 q 843 676 844 675 q 844 696 825 689 q 933 710 882 710 q 1022 703 968 710 q 1110 696 1075 696 q 1206 710 1147 696 q 1217 707 1214 711 q 1217 696 1219 703 z "},"v":{"ha":917,"x_min":-42,"x_max":1156,"o":"m 1149 703 q 944 460 1039 593 q 767 196 856 328 q 674 13 674 61 q 676 -4 674 3 q 678 -14 679 -11 q 668 -18 675 -18 q 568 -15 571 -15 q 297 -25 421 -15 q 288 -17 288 -28 l 285 36 q 192 63 244 63 q 113 46 143 63 q 106 44 110 44 q 96 54 96 44 q 100 63 96 58 q 161 104 143 96 q 278 135 204 125 l 272 244 q 197 240 226 240 q 147 245 178 240 q 94 250 115 250 q -25 224 19 250 q -42 233 -42 217 q -36 242 -42 238 q 115 285 4 268 q 203 326 203 299 q 161 353 203 350 q 101 353 132 353 q 46 363 68 354 q 38 374 36 365 q 49 382 39 382 q 179 403 117 381 q 275 436 263 433 l 275 503 q 160 556 232 510 q 46 594 96 594 q -4 586 24 594 q -18 593 -14 583 q -11 606 -21 603 q 60 621 38 621 q 142 610 92 621 q 224 600 193 600 q 271 619 243 600 l 268 685 q 275 694 268 693 q 361 706 326 706 q 440 698 392 706 q 519 690 489 690 q 608 700 558 690 q 617 698 614 701 q 619 689 621 694 q 588 419 618 683 q 738 642 738 613 q 729 653 738 649 q 713 661 721 657 q 717 679 696 674 q 867 704 808 704 q 931 702 892 704 q 996 700 971 700 q 1139 719 1054 700 q 1151 715 1149 722 q 1149 703 1156 710 z "},"w":{"ha":1460,"x_min":-49,"x_max":1674,"o":"m 1668 690 q 1414 358 1588 590 q 1214 -7 1250 126 q 1204 -17 1211 -17 l 1113 -17 q 804 -18 954 -18 q 797 0 783 -18 q 831 69 831 42 q 817 189 831 113 l 679 -11 q 671 -17 676 -17 l 325 -19 q 315 -8 315 -19 l 314 40 q 268 53 294 53 q 182 78 235 53 q 94 104 129 104 q 31 100 74 104 q -39 97 -7 96 q -49 107 -49 97 q -37 115 -47 115 q 53 135 4 114 q 135 157 103 157 q 177 151 149 157 q 222 146 206 146 q 310 183 267 146 l 310 263 q 276 260 293 260 q 212 283 250 260 q 146 307 174 307 q 113 296 131 307 q 96 306 96 289 q 103 317 96 313 q 213 340 136 338 q 310 364 285 342 l 310 475 q 264 486 281 486 q 190 467 233 486 q 117 447 146 447 q 56 460 93 447 q -1 472 18 472 q -18 471 -10 472 q -29 478 -28 468 q -22 489 -32 486 q 22 494 3 494 q 56 491 35 494 q 92 488 76 488 q 139 501 117 488 q 161 538 161 515 q 135 575 161 575 q 76 569 96 575 q 64 576 67 567 q 68 589 60 585 q 151 606 104 606 q 207 597 174 606 q 261 588 240 588 q 311 614 285 588 q 297 675 311 654 q 303 690 289 688 q 418 701 369 701 q 494 695 447 701 q 571 689 542 689 q 650 699 597 689 q 658 697 656 700 q 661 689 661 694 l 636 428 l 649 425 q 769 625 769 604 q 742 651 769 638 q 743 669 726 658 q 935 696 808 699 q 1131 706 1025 693 q 1140 704 1138 707 q 1142 694 1143 701 q 1110 389 1117 600 q 1233 545 1174 464 q 1292 639 1292 626 q 1285 650 1292 644 q 1271 660 1272 658 q 1276 676 1257 671 q 1414 696 1351 696 q 1479 694 1439 696 q 1544 692 1519 692 q 1658 704 1597 692 q 1669 700 1667 706 q 1668 690 1674 696 z "},"x":{"ha":1060,"x_min":6,"x_max":1236,"o":"m 1229 701 l 883 332 q 924 164 896 260 q 988 6 960 33 q 992 -7 994 0 q 979 -11 989 -12 q 849 -7 931 -7 q 611 -14 686 -7 q 600 -11 603 -15 q 600 0 596 -7 q 618 44 618 28 q 600 129 618 54 l 469 -15 q 463 -19 467 -19 l 122 -15 q 111 -8 114 -15 q 115 3 108 -3 l 183 72 q 46 115 157 107 q 38 126 36 117 q 47 135 38 136 q 116 147 75 132 q 181 163 157 163 q 239 153 197 163 l 324 233 q 275 236 297 236 q 229 230 256 236 q 185 224 203 224 q 163 225 174 224 q 151 235 151 226 q 160 244 150 242 q 197 254 178 249 q 217 275 217 260 q 171 299 217 299 q 125 296 158 299 q 75 293 92 293 q 14 306 33 293 q 8 319 6 311 q 22 325 13 326 q 50 322 36 322 q 124 333 74 322 q 206 344 175 344 q 300 325 239 344 q 393 311 356 307 l 422 346 l 382 472 q 347 475 351 475 q 279 458 319 475 q 213 440 239 440 q 161 448 193 440 q 108 456 129 456 q 46 451 68 456 q 33 456 36 450 q 36 468 29 461 q 153 494 58 490 q 233 525 233 499 q 164 575 233 567 q 154 585 154 576 q 165 594 154 593 q 186 596 175 596 q 240 587 207 596 q 296 578 272 578 q 354 608 319 578 l 333 679 q 343 692 329 692 q 700 696 613 686 q 710 689 708 697 l 733 582 q 818 685 819 653 q 826 694 817 692 q 928 704 894 704 q 1010 699 958 704 q 1093 694 1061 694 q 1219 719 1143 694 q 1233 717 1229 722 q 1229 701 1236 710 z "},"y":{"ha":899,"x_min":-201,"x_max":1175,"o":"m 1169 711 l 656 -42 q 458 -233 564 -176 q 178 -294 347 -294 q 47 -276 121 -294 q 40 -262 35 -274 l 68 -175 q 51 -169 58 -169 q 8 -181 35 -169 q -36 -192 -19 -192 q -82 -182 -54 -192 q -89 -172 -89 -179 q -74 -162 -89 -157 q -60 -165 -67 -165 q -26 -151 -42 -165 q -10 -119 -10 -137 q -35 -103 -10 -103 q -73 -107 -46 -103 q -112 -111 -100 -111 q -192 -103 -132 -111 q -201 -92 -201 -101 q -190 -83 -201 -83 q -96 -65 -144 -85 q -15 -46 -47 -46 q 90 -56 26 -46 q 193 -67 153 -67 q 288 -26 246 -67 q 328 74 329 15 q 272 82 310 75 q 142 89 192 100 q 128 93 132 88 q 131 106 124 100 q 200 131 146 119 q 281 161 254 142 q 192 194 253 168 q 111 214 147 213 q -19 196 44 217 q -33 201 -29 193 q -26 214 -36 210 q 149 258 68 258 q 199 256 167 258 q 250 253 231 253 q 331 293 281 253 l 325 410 q 208 433 281 433 q 147 421 182 433 q 135 424 139 418 q 138 438 132 431 q 199 465 154 457 q 286 482 243 474 q 198 542 242 513 q 111 572 154 572 q 57 563 86 572 q 44 567 47 558 q 50 581 40 576 q 114 599 89 599 q 188 587 143 599 q 261 575 232 575 q 333 614 290 575 l 336 693 q 346 703 336 704 q 528 700 374 700 q 651 715 564 700 q 663 714 658 717 q 663 703 665 710 q 642 399 629 613 q 756 571 699 479 q 807 658 807 653 q 797 664 807 663 q 781 665 783 664 q 771 675 771 668 q 781 685 771 682 q 897 710 850 710 q 958 706 924 710 q 1014 701 992 701 q 1157 726 1076 701 q 1171 724 1167 729 q 1169 711 1175 718 z "},"z":{"ha":935,"x_min":-176,"x_max":1057,"o":"m 1047 707 q 1019 654 1032 682 q 978 515 990 588 q 975 508 976 510 l 654 249 l 683 249 q 735 253 700 249 q 786 257 771 257 q 900 278 843 257 q 911 276 907 281 q 911 264 915 272 l 792 -10 q 782 -15 790 -15 q 557 -10 660 -10 q 156 -17 285 -10 q 146 -15 149 -18 q 144 -4 143 -11 l 161 65 q 128 78 144 78 q 44 63 99 78 q -40 49 -10 49 q -103 60 -72 49 q -110 69 -110 63 q -96 79 -110 83 q -72 76 -85 76 q -6 92 -42 76 q 26 117 26 107 q -36 135 26 131 q -169 175 -117 140 q -174 186 -176 179 q -165 193 -172 193 q -160 192 -162 193 q -75 169 -108 169 q -20 176 -54 169 q 35 182 14 182 q 104 168 61 182 q 182 156 147 154 l 194 189 l 304 281 q 194 317 293 288 q 118 353 172 324 q 42 375 78 375 q -8 374 0 375 q -21 381 -18 372 q -14 393 -24 390 q 44 406 26 406 q 126 390 76 406 q 207 375 175 375 q 274 388 233 375 q 339 400 314 400 q 424 376 372 400 l 521 451 l 314 453 q 304 468 297 453 l 338 538 q 304 536 333 538 q 268 536 283 535 q 225 550 247 539 q 218 561 217 556 q 229 568 219 568 q 289 589 289 568 q 235 611 289 611 q 153 600 182 611 q 138 608 138 594 q 178 635 138 622 q 231 646 213 646 q 283 643 247 646 q 332 642 314 640 q 381 653 357 643 l 403 714 q 414 719 404 722 q 606 701 553 701 q 824 712 690 701 q 1038 722 958 722 q 1047 707 1057 722 z "},"{":{"ha":439,"x_min":90,"x_max":686,"o":"m 683 1060 l 654 953 q 644 943 651 943 l 628 943 q 551 892 565 943 l 465 571 q 357 456 444 492 q 406 365 406 419 q 401 333 406 350 l 315 13 q 313 -6 313 1 q 360 -36 313 -36 l 376 -36 q 386 -49 389 -36 l 357 -156 q 347 -165 354 -165 l 197 -165 q 90 -72 90 -165 q 97 -25 90 -50 l 201 367 q 204 388 204 378 q 151 444 204 442 q 142 454 142 444 q 151 464 142 464 q 213 489 185 465 q 250 549 240 513 l 356 940 q 524 1072 392 1072 l 674 1072 q 683 1060 686 1072 z "},"|":{"ha":265,"x_min":47,"x_max":453,"o":"m 450 958 l 190 -12 q 181 -22 188 -22 l 61 -22 q 51 -8 47 -22 l 311 964 q 321 971 313 971 l 440 971 q 450 958 453 971 z "},"}":{"ha":439,"x_min":-3,"x_max":596,"o":"m 589 935 l 483 543 q 481 521 481 532 q 535 464 481 467 q 544 454 544 464 q 535 444 544 444 q 473 419 501 443 q 435 361 444 396 l 331 -31 q 269 -129 314 -93 q 161 -165 224 -165 l 11 -165 q 1 -151 -3 -165 l 31 -43 q 40 -36 32 -36 l 57 -36 q 135 18 121 -36 l 221 339 q 332 456 242 414 q 281 544 281 490 q 285 576 281 560 l 371 897 q 374 914 374 907 q 325 943 374 943 l 308 943 q 299 957 294 943 l 328 1065 q 338 1072 329 1072 l 488 1072 q 596 982 596 1072 q 589 935 596 960 z "},"~":{"ha":544,"x_min":144,"x_max":636,"o":"m 621 1146 q 547 1053 589 1094 q 435 1003 497 1003 q 413 1004 424 1003 q 376 1024 397 1007 q 333 1043 354 1040 q 293 1029 307 1047 q 281 1013 289 1022 q 265 1006 278 1006 l 169 1006 q 160 1029 144 1008 q 232 1122 194 1086 q 342 1168 279 1168 q 367 1166 353 1168 q 405 1147 381 1164 q 449 1128 429 1131 q 490 1142 476 1121 q 504 1164 494 1149 q 521 1168 511 1171 l 611 1168 q 621 1146 636 1165 z "},"":{"ha":1311,"x_min":-6,"x_max":1379,"o":"m 1213 1125 q 1176 1046 1213 1078 q 1092 1014 1140 1014 q 1053 1028 1074 1014 q 1032 1060 1032 1042 q 1081 1154 1032 1117 q 1150 1182 1119 1182 q 1193 1165 1174 1182 q 1213 1125 1213 1147 m 982 1125 q 946 1046 982 1078 q 861 1014 910 1014 q 822 1028 843 1014 q 801 1060 801 1042 q 850 1154 801 1117 q 918 1182 888 1182 q 963 1165 943 1182 q 982 1125 982 1147 m 1371 -11 q 1379 -21 1379 -12 q 1365 -31 1379 -35 q 1167 -8 1299 -12 q 910 -7 1125 -7 q 686 -17 829 -7 q 674 -8 675 -17 q 683 3 674 1 q 811 26 778 13 q 915 179 919 68 l 619 179 q 576 124 576 124 q 554 60 554 90 q 576 10 554 33 q 581 -3 582 3 q 568 -8 578 -8 l 7 -12 q -6 -4 -4 -12 q 4 8 -6 6 q 107 36 64 21 q 218 118 213 74 q 167 149 197 149 q 99 140 128 149 q 88 147 88 138 q 99 160 86 157 q 174 192 113 163 q 261 215 225 215 l 329 344 l 311 344 q 259 333 292 344 q 207 321 226 321 q 132 338 176 321 q 56 356 88 356 q 8 344 36 356 q -6 353 -6 339 q 3 364 -6 361 q 100 385 51 385 q 125 381 110 385 q 150 376 140 376 q 207 389 181 376 q 238 422 233 401 q 174 485 246 469 q 68 503 121 494 q 63 515 58 507 q 76 522 67 524 q 139 519 103 517 q 206 525 193 525 q 285 497 240 525 q 363 469 329 469 q 392 474 374 469 l 533 710 q 492 705 526 710 q 421 700 457 700 q 308 715 369 700 q 303 726 299 718 q 315 735 306 735 q 465 765 381 731 q 592 814 569 810 q 606 867 606 843 q 563 932 606 910 q 501 947 533 947 q 425 928 468 947 q 410 938 410 921 q 417 947 410 944 q 550 997 536 993 q 690 1014 610 1014 q 894 982 769 1014 q 1104 950 1019 950 q 1307 1013 1221 950 q 1321 1013 1315 1018 q 1321 999 1326 1007 q 1246 674 1246 886 q 1254 213 1246 288 q 1371 -11 1275 8 m 922 607 l 922 681 l 754 411 l 907 411 l 907 451 q 874 479 907 479 q 843 472 857 479 q 832 474 836 468 q 833 485 828 479 q 888 532 861 508 q 922 607 922 564 z "},"":{"ha":1311,"x_min":-6,"x_max":1379,"o":"m 1150 1154 q 1101 1047 1150 1090 q 988 1003 1053 1003 q 925 1029 960 1003 q 890 1086 890 1056 q 956 1211 890 1163 q 1049 1249 1007 1249 q 1119 1220 1089 1249 q 1150 1154 1150 1192 m 1371 -11 q 1379 -21 1379 -12 q 1365 -31 1379 -35 q 1167 -8 1299 -12 q 910 -7 1125 -7 q 686 -17 829 -7 q 674 -8 675 -17 q 683 3 674 1 q 811 26 778 13 q 915 179 919 68 l 619 179 q 576 124 576 124 q 554 60 554 90 q 576 10 554 33 q 581 -3 582 3 q 568 -8 578 -8 l 7 -12 q -6 -4 -4 -12 q 4 8 -6 6 q 107 36 64 21 q 218 118 213 74 q 167 149 197 149 q 99 140 128 149 q 88 147 88 138 q 99 160 86 157 q 174 192 113 163 q 261 215 225 215 l 329 344 l 311 344 q 259 333 292 344 q 207 321 226 321 q 132 338 176 321 q 56 356 88 356 q 8 344 36 356 q -6 353 -6 339 q 3 364 -6 361 q 100 385 51 385 q 125 381 110 385 q 150 376 140 376 q 207 389 181 376 q 238 422 233 401 q 174 485 246 469 q 68 503 121 494 q 63 515 58 507 q 76 522 67 524 q 139 519 103 517 q 206 525 193 525 q 285 497 240 525 q 363 469 329 469 q 392 474 374 469 l 533 710 q 492 705 526 710 q 421 700 457 700 q 308 715 369 700 q 303 726 299 718 q 315 735 306 735 q 465 765 381 731 q 592 814 569 810 q 606 867 606 843 q 563 932 606 910 q 501 947 533 947 q 425 928 468 947 q 410 938 410 921 q 417 947 410 944 q 550 997 536 993 q 690 1014 610 1014 q 894 982 769 1014 q 1104 950 1019 950 q 1307 1013 1221 950 q 1321 1013 1315 1018 q 1321 999 1326 1007 q 1246 674 1246 886 q 1254 213 1246 288 q 1371 -11 1275 8 m 1081 1154 q 1049 1179 1081 1179 q 997 1158 1025 1179 q 960 1086 960 1129 q 988 1072 960 1072 q 1052 1096 1024 1072 q 1081 1154 1081 1119 m 922 607 l 922 681 l 754 411 l 907 411 l 907 451 q 874 479 907 479 q 843 472 857 479 q 832 474 836 468 q 833 485 828 479 q 888 532 861 508 q 922 607 922 564 z "},"":{"ha":1174,"x_min":-14,"x_max":1275,"o":"m 1271 968 l 1093 624 q 1076 621 1088 613 q 935 675 1008 675 q 729 601 819 675 q 636 418 636 524 q 699 314 636 353 q 832 279 754 279 q 1007 340 926 279 q 1022 343 1017 347 q 1025 328 1029 338 l 904 22 q 897 17 904 17 q 671 -28 776 -28 q 568 -22 608 -28 q 568 -128 583 -68 q 501 -207 556 -175 q 376 -239 447 -239 q 328 -235 351 -239 q 251 -208 281 -226 q 246 -192 238 -204 l 294 -118 q 310 -115 299 -110 q 360 -128 339 -128 q 428 -86 417 -128 q 432 -54 432 -69 q 397 15 432 -10 l 394 18 q 265 104 319 49 q 197 189 256 115 q 124 217 163 213 q 47 219 107 219 q 36 229 36 219 q 46 240 35 239 q 174 303 118 246 q 171 419 160 357 q 39 440 104 440 q 0 439 19 440 q -12 447 -11 438 q -3 458 -14 457 q 106 492 40 463 q 197 518 167 518 q 228 607 213 563 q 300 728 258 690 q 217 761 264 751 q 208 772 207 763 q 218 781 208 782 q 306 807 306 772 q 247 839 306 839 q 222 837 238 839 q 197 835 207 835 q 157 842 186 835 q 150 853 147 844 q 163 861 153 863 q 248 876 194 858 q 333 893 301 893 q 388 883 363 893 q 438 863 413 874 q 643 961 496 924 q 926 994 778 994 q 1056 981 976 994 q 1186 967 1135 967 q 1256 982 1219 967 q 1270 981 1265 986 q 1271 968 1275 976 z "},"":{"ha":1271,"x_min":-3,"x_max":1385,"o":"m 1175 1235 l 981 1011 q 971 1006 976 1006 l 872 1006 q 871 1015 867 1006 l 1036 1239 q 1046 1243 1043 1243 l 1174 1243 q 1175 1235 1186 1243 m 1381 982 q 1226 693 1333 903 q 1217 688 1225 685 q 1110 700 1144 700 q 875 692 929 700 l 826 596 l 1142 618 q 1154 614 1151 618 q 1151 601 1157 608 q 1106 526 1126 565 q 1036 338 1056 433 q 1024 329 1033 326 q 843 350 938 350 q 729 344 774 350 l 675 240 q 806 236 739 236 q 1115 282 1036 236 q 1128 282 1124 286 q 1129 268 1133 276 q 1050 -31 1061 125 q 1038 -40 1049 -42 q 510 -8 757 -8 q 358 -17 461 -8 q 201 -25 256 -25 q 190 -18 192 -25 q 196 -6 188 -11 q 251 67 251 40 q 188 93 251 93 q 135 88 168 93 q 81 83 101 83 q 7 100 54 83 q 0 113 -3 103 q 14 119 4 122 q 78 111 47 111 q 176 140 121 111 q 283 179 239 174 l 322 301 q 156 344 254 338 q 147 354 146 344 q 157 364 147 364 q 264 390 208 364 q 360 426 329 421 l 399 550 q 365 556 378 556 q 291 537 335 556 q 219 518 247 518 q 145 524 190 518 q 71 529 100 529 q 26 522 51 529 q 13 532 13 518 q 19 542 13 539 q 181 575 74 563 q 249 610 249 583 q 163 660 249 660 q 119 656 139 660 q 107 663 110 653 q 114 675 104 672 q 258 692 182 692 q 327 675 286 692 q 394 658 368 658 q 435 672 414 658 l 483 797 q 357 843 454 836 q 231 868 253 850 q 226 881 224 874 q 239 886 229 888 q 290 883 261 883 q 372 905 324 883 q 454 926 421 926 q 533 914 488 926 l 536 988 q 700 975 600 986 q 1018 965 785 965 q 1369 996 1140 965 q 1381 993 1376 997 q 1381 982 1385 988 z "},"":{"ha":1410,"x_min":-40,"x_max":1508,"o":"m 1169 1146 q 1096 1053 1138 1094 q 983 1003 1046 1003 q 961 1004 972 1003 q 924 1024 946 1007 q 882 1043 903 1040 q 842 1029 856 1047 q 829 1013 838 1022 q 814 1006 826 1006 l 718 1006 q 708 1029 693 1008 q 781 1122 743 1086 q 890 1168 828 1168 q 915 1166 901 1168 q 953 1147 929 1164 q 997 1128 978 1131 q 1039 1142 1025 1121 q 1053 1164 1043 1149 q 1069 1168 1060 1171 l 1160 1168 q 1169 1146 1185 1165 m 1503 967 q 1268 468 1389 803 q 1161 94 1161 171 q 1190 10 1161 76 q 1181 -4 1196 -4 q 674 -4 879 6 q 664 -1 667 -6 q 664 10 661 3 q 682 69 682 53 q 656 188 682 122 q 603 321 631 254 q 544 165 574 243 q 514 36 514 79 q 532 0 514 28 q 532 -12 535 -7 q 521 -15 529 -17 q 322 -6 443 -6 q 60 -29 186 -6 q 49 -25 51 -31 q 51 -12 46 -19 q 88 32 71 10 q 147 132 128 86 q 89 140 114 136 q 41 158 75 143 q -29 176 7 174 q -39 185 -39 178 q -31 196 -40 193 q 44 206 -4 204 q 118 217 93 208 q 189 272 157 231 l 231 382 q 176 422 213 422 q 129 415 142 422 q 117 415 122 411 q 115 426 113 419 q 197 465 125 451 q 278 507 268 478 l 304 588 q 211 571 229 571 q 157 576 197 571 q 94 581 117 581 q 35 568 57 581 q 18 578 18 561 q 24 586 18 582 q 140 619 58 611 q 200 657 200 626 q 151 685 200 681 q 46 721 85 690 q 43 733 39 726 q 57 736 47 740 q 110 722 99 722 q 163 729 131 722 q 218 736 196 736 q 269 726 238 736 q 322 717 300 717 q 344 718 332 717 l 386 849 q 350 896 368 872 q 296 922 328 922 q 225 913 244 922 q 219 911 222 911 q 210 921 210 911 q 215 929 210 926 q 338 961 276 961 q 385 957 340 961 q 433 961 411 954 q 505 951 454 961 q 661 940 556 940 q 833 949 751 940 q 841 947 839 950 q 843 939 843 944 q 929 592 842 807 q 1029 869 1029 801 q 999 900 1029 893 q 940 913 969 907 q 931 922 931 915 q 939 932 929 929 q 1200 952 981 943 q 1492 982 1419 961 q 1504 979 1501 985 q 1503 967 1508 974 z "},"":{"ha":1188,"x_min":8,"x_max":1249,"o":"m 1136 1160 q 1100 1081 1136 1113 q 1015 1049 1064 1049 q 976 1063 997 1049 q 956 1094 956 1076 q 1004 1189 956 1151 q 1074 1217 1043 1217 q 1117 1199 1097 1217 q 1136 1160 1136 1182 m 906 1160 q 869 1081 906 1113 q 785 1049 833 1049 q 746 1063 767 1049 q 725 1094 725 1076 q 774 1189 725 1151 q 842 1217 811 1217 q 886 1199 867 1217 q 906 1160 906 1182 m 1249 632 q 1042 159 1249 368 q 590 -50 835 -50 q 236 221 292 -50 q 154 244 203 243 q 69 243 199 243 q 58 253 58 243 q 68 264 57 263 q 196 326 140 269 q 193 443 182 381 q 61 464 126 464 q 22 463 42 464 q 10 471 11 461 q 19 482 8 481 q 128 515 63 486 q 219 542 189 542 q 301 726 246 614 q 218 760 265 750 q 210 771 208 761 q 219 779 210 781 q 307 806 307 771 q 249 838 307 838 q 224 835 239 838 q 199 833 208 833 q 158 840 188 833 q 151 851 149 843 q 164 860 154 861 q 249 874 196 857 q 335 892 303 892 q 397 881 364 892 q 456 857 426 868 q 908 1021 624 1021 q 1169 904 1081 1021 q 1249 632 1249 801 m 890 626 q 869 678 890 654 q 822 701 849 701 q 656 597 736 701 q 576 399 576 492 q 601 338 576 364 q 661 311 625 311 q 718 340 718 311 q 681 358 718 363 q 671 367 672 357 q 675 379 669 376 q 792 404 733 392 q 857 474 857 419 q 782 513 857 513 q 718 515 754 513 l 694 517 q 685 525 685 518 q 696 536 685 533 q 801 551 726 538 q 890 626 890 576 z "},"":{"ha":1321,"x_min":-15,"x_max":1474,"o":"m 1143 1125 q 1107 1046 1143 1078 q 1022 1014 1071 1014 q 983 1028 1004 1014 q 963 1060 963 1042 q 1011 1154 963 1117 q 1081 1182 1050 1182 q 1124 1165 1104 1182 q 1143 1125 1143 1147 m 913 1125 q 876 1046 913 1078 q 792 1014 840 1014 q 753 1028 774 1014 q 732 1060 732 1042 q 781 1154 732 1117 q 849 1182 818 1182 q 893 1165 874 1182 q 913 1125 913 1147 m 1465 974 q 1300 632 1376 908 q 1125 193 1214 314 q 647 -25 967 -25 q 404 46 515 -25 q 254 269 272 129 q 202 265 232 269 q 161 260 172 260 q 103 271 135 260 q 31 293 47 289 q 24 304 21 296 q 35 313 25 314 q 64 311 50 311 q 181 340 114 311 q 276 368 243 369 l 313 497 q 240 507 303 507 q 190 514 210 508 q 182 525 181 517 q 193 533 183 532 q 267 555 232 536 q 338 575 303 574 l 358 653 q 296 660 325 660 q 242 656 275 660 q 182 653 208 653 q 110 659 154 653 q 44 665 65 665 q 0 660 21 665 q -12 667 -10 657 q -6 679 -15 676 q 133 693 13 685 q 201 736 201 699 q 170 763 201 754 q 106 767 139 771 q 94 775 96 765 q 101 786 92 783 q 161 794 138 794 q 256 774 199 794 q 350 753 314 753 q 371 758 363 753 q 390 768 388 767 l 414 857 q 332 883 386 861 q 250 903 285 903 q 199 897 224 903 q 186 903 189 896 q 192 917 183 911 q 300 947 242 947 q 351 944 314 947 q 400 944 381 942 q 453 957 426 946 q 525 944 476 956 q 679 935 568 935 q 831 957 729 935 q 843 954 839 958 q 842 942 847 949 q 732 692 792 872 q 664 361 664 489 q 688 309 664 331 q 742 288 711 288 q 865 393 813 288 q 904 510 904 472 q 887 551 904 533 q 844 569 869 569 q 790 543 821 569 q 782 540 786 540 q 771 550 771 540 q 774 557 771 554 q 892 643 803 601 q 974 750 936 664 q 1004 860 1004 822 q 914 908 1004 915 q 901 917 904 907 q 910 928 900 925 q 1031 953 967 949 q 1219 954 1060 954 q 1338 967 1278 954 q 1458 992 1399 979 q 1471 986 1468 993 q 1465 974 1474 979 z "},"":{"ha":997,"x_min":14,"x_max":1103,"o":"m 1092 978 l 897 754 q 888 749 893 749 l 789 749 q 788 758 783 749 l 953 982 q 963 986 960 986 l 1090 986 q 1092 978 1103 986 m 1063 581 q 999 388 1063 504 q 936 224 936 272 q 967 203 936 210 q 1017 217 994 196 q 1029 219 1022 224 q 1032 207 1036 215 q 986 7 986 96 q 974 -3 986 -6 q 628 -19 722 6 q 615 -17 618 -22 q 617 -4 611 -11 q 653 82 628 11 q 521 -3 568 19 q 379 -36 453 -36 q 221 56 286 -36 q 161 39 185 39 q 98 63 136 39 q 29 83 60 86 q 18 90 19 82 q 26 103 17 100 q 60 110 43 110 q 102 103 74 110 q 150 96 131 96 q 203 113 176 96 q 265 260 217 193 q 179 239 240 257 q 99 222 126 222 q 78 224 88 222 q 69 236 68 226 q 79 244 69 244 q 194 307 194 244 q 167 332 194 332 q 115 324 153 332 q 61 315 78 315 q 43 318 53 315 q 24 321 29 321 q 14 332 14 322 q 26 340 15 340 q 115 362 67 338 q 197 386 164 386 q 280 367 231 386 q 361 346 329 347 q 710 446 518 446 q 643 497 713 497 q 456 454 522 497 q 443 453 449 449 q 440 465 438 457 q 449 508 444 478 q 394 504 421 504 q 265 522 365 504 q 257 533 256 524 q 267 542 257 542 q 401 579 401 542 q 360 622 401 613 q 279 628 336 628 q 229 618 254 628 q 217 625 219 614 q 222 638 213 635 q 335 660 292 660 q 423 652 369 660 q 511 644 476 644 q 687 681 560 644 q 888 718 814 718 q 1007 688 960 718 q 1063 581 1063 651 m 672 326 q 549 274 603 307 q 483 189 483 232 q 531 156 483 156 q 625 183 583 156 l 672 326 z "},"":{"ha":997,"x_min":14,"x_max":1063,"o":"m 881 754 q 876 749 882 749 l 778 749 q 765 758 768 749 l 692 982 q 696 986 690 986 l 824 986 q 836 978 831 986 l 881 754 m 1063 581 q 999 388 1063 504 q 936 224 936 272 q 967 203 936 210 q 1017 217 994 196 q 1029 219 1022 224 q 1032 207 1036 215 q 986 7 986 96 q 974 -3 986 -6 q 628 -19 722 6 q 615 -17 618 -22 q 617 -4 611 -11 q 653 82 628 11 q 521 -3 568 19 q 379 -36 453 -36 q 221 56 286 -36 q 161 39 185 39 q 98 63 136 39 q 29 83 60 86 q 18 90 19 82 q 26 103 17 100 q 60 110 43 110 q 102 103 74 110 q 150 96 131 96 q 203 113 176 96 q 265 260 217 193 q 179 239 240 257 q 99 222 126 222 q 78 224 88 222 q 69 236 68 226 q 79 244 69 244 q 194 307 194 244 q 167 332 194 332 q 115 324 153 332 q 61 315 78 315 q 43 318 53 315 q 24 321 29 321 q 14 332 14 322 q 26 340 15 340 q 115 362 67 338 q 197 386 164 386 q 280 367 231 386 q 361 346 329 347 q 710 446 518 446 q 643 497 713 497 q 456 454 522 497 q 443 453 449 449 q 440 465 438 457 q 449 508 444 478 q 394 504 421 504 q 265 522 365 504 q 257 533 256 524 q 267 542 257 542 q 401 579 401 542 q 360 622 401 613 q 279 628 336 628 q 229 618 254 628 q 217 625 219 614 q 222 638 213 635 q 335 660 292 660 q 423 652 369 660 q 511 644 476 644 q 687 681 560 644 q 888 718 814 718 q 1007 688 960 718 q 1063 581 1063 651 m 672 326 q 549 274 603 307 q 483 189 483 232 q 531 156 483 156 q 625 183 583 156 l 672 326 z "},"":{"ha":997,"x_min":14,"x_max":1083,"o":"m 1082 764 q 1076 760 1083 760 l 958 760 q 943 767 949 760 l 899 858 l 768 758 q 757 754 764 754 l 639 754 q 633 756 633 754 q 636 761 635 757 l 835 940 q 860 949 847 949 l 1014 949 q 1028 943 1026 949 l 1082 764 m 1063 581 q 999 388 1063 504 q 936 224 936 272 q 967 203 936 210 q 1017 217 994 196 q 1029 219 1022 224 q 1032 207 1036 215 q 986 7 986 96 q 974 -3 986 -6 q 628 -19 722 6 q 615 -17 618 -22 q 617 -4 611 -11 q 653 82 628 11 q 521 -3 568 19 q 379 -36 453 -36 q 221 56 286 -36 q 161 39 185 39 q 98 63 136 39 q 29 83 60 86 q 18 90 19 82 q 26 103 17 100 q 60 110 43 110 q 102 103 74 110 q 150 96 131 96 q 203 113 176 96 q 265 260 217 193 q 179 239 240 257 q 99 222 126 222 q 78 224 88 222 q 69 236 68 226 q 79 244 69 244 q 194 307 194 244 q 167 332 194 332 q 115 324 153 332 q 61 315 78 315 q 43 318 53 315 q 24 321 29 321 q 14 332 14 322 q 26 340 15 340 q 115 362 67 338 q 197 386 164 386 q 280 367 231 386 q 361 346 329 347 q 710 446 518 446 q 643 497 713 497 q 456 454 522 497 q 443 453 449 449 q 440 465 438 457 q 449 508 444 478 q 394 504 421 504 q 265 522 365 504 q 257 533 256 524 q 267 542 257 542 q 401 579 401 542 q 360 622 401 613 q 279 628 336 628 q 229 618 254 628 q 217 625 219 614 q 222 638 213 635 q 335 660 292 660 q 423 652 369 660 q 511 644 476 644 q 687 681 560 644 q 888 718 814 718 q 1007 688 960 718 q 1063 581 1063 651 m 672 326 q 549 274 603 307 q 483 189 483 232 q 531 156 483 156 q 625 183 583 156 l 672 326 z "},"":{"ha":997,"x_min":14,"x_max":1063,"o":"m 1018 854 q 982 775 1018 807 q 897 743 946 743 q 858 757 879 743 q 838 789 838 771 q 886 883 838 846 q 956 911 925 911 q 999 894 979 911 q 1018 854 1018 876 m 788 854 q 751 775 788 807 q 667 743 715 743 q 628 757 649 743 q 607 789 607 771 q 656 883 607 846 q 724 911 693 911 q 768 894 749 911 q 788 854 788 876 m 1063 581 q 999 388 1063 504 q 936 224 936 272 q 967 203 936 210 q 1017 217 994 196 q 1029 219 1022 224 q 1032 207 1036 215 q 986 7 986 96 q 974 -3 986 -6 q 628 -19 722 6 q 615 -17 618 -22 q 617 -4 611 -11 q 653 82 628 11 q 521 -3 568 19 q 379 -36 453 -36 q 221 56 286 -36 q 161 39 185 39 q 98 63 136 39 q 29 83 60 86 q 18 90 19 82 q 26 103 17 100 q 60 110 43 110 q 102 103 74 110 q 150 96 131 96 q 203 113 176 96 q 265 260 217 193 q 179 239 240 257 q 99 222 126 222 q 78 224 88 222 q 69 236 68 226 q 79 244 69 244 q 194 307 194 244 q 167 332 194 332 q 115 324 153 332 q 61 315 78 315 q 43 318 53 315 q 24 321 29 321 q 14 332 14 322 q 26 340 15 340 q 115 362 67 338 q 197 386 164 386 q 280 367 231 386 q 361 346 329 347 q 710 446 518 446 q 643 497 713 497 q 456 454 522 497 q 443 453 449 449 q 440 465 438 457 q 449 508 444 478 q 394 504 421 504 q 265 522 365 504 q 257 533 256 524 q 267 542 257 542 q 401 579 401 542 q 360 622 401 613 q 279 628 336 628 q 229 618 254 628 q 217 625 219 614 q 222 638 213 635 q 335 660 292 660 q 423 652 369 660 q 511 644 476 644 q 687 681 560 644 q 888 718 814 718 q 1007 688 960 718 q 1063 581 1063 651 m 672 326 q 549 274 603 307 q 483 189 483 232 q 531 156 483 156 q 625 183 583 156 l 672 326 z "},"":{"ha":997,"x_min":14,"x_max":1074,"o":"m 1058 896 q 985 803 1026 844 q 872 753 935 753 q 850 754 861 753 q 813 774 835 757 q 771 793 792 790 q 731 779 744 797 q 718 763 726 772 q 703 756 715 756 l 607 756 q 597 779 582 758 q 669 872 632 836 q 779 918 717 918 q 804 916 790 918 q 842 897 818 914 q 886 878 867 881 q 928 892 914 871 q 942 914 932 899 q 958 918 949 921 l 1049 918 q 1058 896 1074 915 m 1063 581 q 999 388 1063 504 q 936 224 936 272 q 967 203 936 210 q 1017 217 994 196 q 1029 219 1022 224 q 1032 207 1036 215 q 986 7 986 96 q 974 -3 986 -6 q 628 -19 722 6 q 615 -17 618 -22 q 617 -4 611 -11 q 653 82 628 11 q 521 -3 568 19 q 379 -36 453 -36 q 221 56 286 -36 q 161 39 185 39 q 98 63 136 39 q 29 83 60 86 q 18 90 19 82 q 26 103 17 100 q 60 110 43 110 q 102 103 74 110 q 150 96 131 96 q 203 113 176 96 q 265 260 217 193 q 179 239 240 257 q 99 222 126 222 q 78 224 88 222 q 69 236 68 226 q 79 244 69 244 q 194 307 194 244 q 167 332 194 332 q 115 324 153 332 q 61 315 78 315 q 43 318 53 315 q 24 321 29 321 q 14 332 14 322 q 26 340 15 340 q 115 362 67 338 q 197 386 164 386 q 280 367 231 386 q 361 346 329 347 q 710 446 518 446 q 643 497 713 497 q 456 454 522 497 q 443 453 449 449 q 440 465 438 457 q 449 508 444 478 q 394 504 421 504 q 265 522 365 504 q 257 533 256 524 q 267 542 257 542 q 401 579 401 542 q 360 622 401 613 q 279 628 336 628 q 229 618 254 628 q 217 625 219 614 q 222 638 213 635 q 335 660 292 660 q 423 652 369 660 q 511 644 476 644 q 687 681 560 644 q 888 718 814 718 q 1007 688 960 718 q 1063 581 1063 651 m 672 326 q 549 274 603 307 q 483 189 483 232 q 531 156 483 156 q 625 183 583 156 l 672 326 z "},"":{"ha":997,"x_min":14,"x_max":1063,"o":"m 990 911 q 942 803 990 847 q 828 760 893 760 q 765 786 800 760 q 731 843 731 813 q 796 968 731 919 q 889 1006 847 1006 q 960 977 929 1006 q 990 911 990 949 m 1063 581 q 999 388 1063 504 q 936 224 936 272 q 967 203 936 210 q 1017 217 994 196 q 1029 219 1022 224 q 1032 207 1036 215 q 986 7 986 96 q 974 -3 986 -6 q 628 -19 722 6 q 615 -17 618 -22 q 617 -4 611 -11 q 653 82 628 11 q 521 -3 568 19 q 379 -36 453 -36 q 221 56 286 -36 q 161 39 185 39 q 98 63 136 39 q 29 83 60 86 q 18 90 19 82 q 26 103 17 100 q 60 110 43 110 q 102 103 74 110 q 150 96 131 96 q 203 113 176 96 q 265 260 217 193 q 179 239 240 257 q 99 222 126 222 q 78 224 88 222 q 69 236 68 226 q 79 244 69 244 q 194 307 194 244 q 167 332 194 332 q 115 324 153 332 q 61 315 78 315 q 43 318 53 315 q 24 321 29 321 q 14 332 14 322 q 26 340 15 340 q 115 362 67 338 q 197 386 164 386 q 280 367 231 386 q 361 346 329 347 q 710 446 518 446 q 643 497 713 497 q 456 454 522 497 q 443 453 449 449 q 440 465 438 457 q 449 508 444 478 q 394 504 421 504 q 265 522 365 504 q 257 533 256 524 q 267 542 257 542 q 401 579 401 542 q 360 622 401 613 q 279 628 336 628 q 229 618 254 628 q 217 625 219 614 q 222 638 213 635 q 335 660 292 660 q 423 652 369 660 q 511 644 476 644 q 687 681 560 644 q 888 718 814 718 q 1007 688 960 718 q 1063 581 1063 651 m 921 911 q 889 936 921 936 q 838 915 865 936 q 800 843 800 886 q 828 829 800 829 q 892 853 864 829 q 921 911 921 876 m 672 326 q 549 274 603 307 q 483 189 483 232 q 531 156 483 156 q 625 183 583 156 l 672 326 z "},"":{"ha":776,"x_min":-6,"x_max":943,"o":"m 938 686 q 792 464 860 625 q 778 458 788 454 q 694 474 740 474 q 550 426 615 474 q 485 313 485 378 q 512 241 485 271 q 578 211 539 211 q 731 260 650 211 q 746 258 740 264 q 746 244 751 253 q 647 -3 694 171 q 642 -10 647 -10 q 474 -36 564 -33 q 471 -127 483 -79 q 404 -207 458 -175 q 279 -239 350 -239 q 231 -235 254 -239 q 154 -208 183 -226 q 149 -192 140 -204 l 197 -118 q 213 -115 201 -110 q 263 -128 242 -128 q 331 -86 319 -128 q 317 0 344 -33 q 222 89 275 26 q 140 113 189 111 q 56 111 185 111 q 44 121 44 111 q 54 132 43 131 q 182 194 126 138 q 179 311 168 249 q 47 332 113 332 q 8 331 28 332 q -4 339 -3 329 q 6 350 -6 349 q 114 383 49 354 q 206 410 175 410 q 271 507 232 456 q 188 540 235 531 q 179 551 178 542 q 189 560 179 561 q 276 586 276 551 q 218 618 276 618 q 193 616 208 618 q 168 614 178 614 q 128 621 157 614 q 121 632 118 624 q 133 640 124 642 q 219 655 165 638 q 304 672 272 672 q 367 661 333 672 q 425 638 396 649 q 717 731 554 731 q 823 713 772 731 q 882 696 874 696 q 925 704 914 696 q 943 694 943 713 q 938 686 943 690 z "},"":{"ha":919,"x_min":-50,"x_max":992,"o":"m 953 1006 l 758 782 q 749 776 754 776 l 650 776 q 649 786 644 776 l 814 1010 q 824 1014 821 1014 l 951 1014 q 953 1006 964 1014 m 992 472 q 974 299 992 410 q 964 289 971 289 l 519 289 q 557 217 518 242 q 639 196 590 196 q 843 256 765 196 q 857 257 851 263 q 858 242 863 251 q 821 44 839 201 q 817 36 821 39 q 547 -44 713 -44 q 226 122 281 -44 q 69 132 131 111 q 60 143 60 135 q 69 151 60 150 q 144 182 111 160 q 186 250 186 211 q 142 307 186 290 q 47 322 122 314 q -42 347 -17 331 q -47 360 -50 353 q -35 365 -44 367 q 1 361 -15 361 q 73 378 29 361 q 146 396 117 396 q 213 383 171 396 q 276 499 229 426 q 146 515 186 499 q 139 525 139 518 q 154 535 139 542 q 176 531 163 531 q 220 542 200 531 q 238 574 240 554 q 172 610 233 610 q 142 608 161 610 q 110 606 122 606 q 42 613 92 606 q 33 624 32 614 q 44 632 35 633 q 140 647 82 626 q 231 667 197 667 q 294 647 254 667 q 371 622 335 626 q 717 740 586 740 q 908 671 832 740 q 992 472 992 596 m 754 479 q 740 523 754 504 q 704 542 726 542 q 568 450 640 542 l 744 447 q 754 479 754 467 z "},"":{"ha":919,"x_min":-50,"x_max":992,"o":"m 760 778 q 756 772 761 772 l 657 772 q 644 782 647 772 l 571 1006 q 575 1010 569 1010 l 703 1010 q 715 1001 710 1010 l 760 778 m 992 472 q 974 299 992 410 q 964 289 971 289 l 519 289 q 557 217 518 242 q 639 196 590 196 q 843 256 765 196 q 857 257 851 263 q 858 242 863 251 q 821 44 839 201 q 817 36 821 39 q 547 -44 713 -44 q 226 122 281 -44 q 69 132 131 111 q 60 143 60 135 q 69 151 60 150 q 144 182 111 160 q 186 250 186 211 q 142 307 186 290 q 47 322 122 314 q -42 347 -17 331 q -47 360 -50 353 q -35 365 -44 367 q 1 361 -15 361 q 73 378 29 361 q 146 396 117 396 q 213 383 171 396 q 276 499 229 426 q 146 515 186 499 q 139 525 139 518 q 154 535 139 542 q 176 531 163 531 q 220 542 200 531 q 238 574 240 554 q 172 610 233 610 q 142 608 161 610 q 110 606 122 606 q 42 613 92 606 q 33 624 32 614 q 44 632 35 633 q 140 647 82 626 q 231 667 197 667 q 294 647 254 667 q 371 622 335 626 q 717 740 586 740 q 908 671 832 740 q 992 472 992 596 m 754 479 q 740 523 754 504 q 704 542 726 542 q 568 450 640 542 l 744 447 q 754 479 754 467 z "},"":{"ha":919,"x_min":-50,"x_max":992,"o":"m 935 764 q 929 760 936 760 l 811 760 q 796 767 801 760 l 751 858 l 621 758 q 610 754 617 754 l 492 754 q 486 756 486 754 q 489 761 488 757 l 688 940 q 713 949 700 949 l 867 949 q 881 943 879 949 l 935 764 m 992 472 q 974 299 992 410 q 964 289 971 289 l 519 289 q 557 217 518 242 q 639 196 590 196 q 843 256 765 196 q 857 257 851 263 q 858 242 863 251 q 821 44 839 201 q 817 36 821 39 q 547 -44 713 -44 q 226 122 281 -44 q 69 132 131 111 q 60 143 60 135 q 69 151 60 150 q 144 182 111 160 q 186 250 186 211 q 142 307 186 290 q 47 322 122 314 q -42 347 -17 331 q -47 360 -50 353 q -35 365 -44 367 q 1 361 -15 361 q 73 378 29 361 q 146 396 117 396 q 213 383 171 396 q 276 499 229 426 q 146 515 186 499 q 139 525 139 518 q 154 535 139 542 q 176 531 163 531 q 220 542 200 531 q 238 574 240 554 q 172 610 233 610 q 142 608 161 610 q 110 606 122 606 q 42 613 92 606 q 33 624 32 614 q 44 632 35 633 q 140 647 82 626 q 231 667 197 667 q 294 647 254 667 q 371 622 335 626 q 717 740 586 740 q 908 671 832 740 q 992 472 992 596 m 754 479 q 740 523 754 504 q 704 542 726 542 q 568 450 640 542 l 744 447 q 754 479 754 467 z "},"":{"ha":919,"x_min":-50,"x_max":992,"o":"m 931 865 q 894 786 931 818 q 810 754 858 754 q 771 768 792 754 q 750 800 750 782 q 799 894 750 857 q 868 922 838 922 q 911 905 892 922 q 931 865 931 888 m 700 865 q 664 786 700 818 q 579 754 628 754 q 540 768 561 754 q 519 800 519 782 q 568 894 519 857 q 636 922 606 922 q 681 905 661 922 q 700 865 700 888 m 992 472 q 974 299 992 410 q 964 289 971 289 l 519 289 q 557 217 518 242 q 639 196 590 196 q 843 256 765 196 q 857 257 851 263 q 858 242 863 251 q 821 44 839 201 q 817 36 821 39 q 547 -44 713 -44 q 226 122 281 -44 q 69 132 131 111 q 60 143 60 135 q 69 151 60 150 q 144 182 111 160 q 186 250 186 211 q 142 307 186 290 q 47 322 122 314 q -42 347 -17 331 q -47 360 -50 353 q -35 365 -44 367 q 1 361 -15 361 q 73 378 29 361 q 146 396 117 396 q 213 383 171 396 q 276 499 229 426 q 146 515 186 499 q 139 525 139 518 q 154 535 139 542 q 176 531 163 531 q 220 542 200 531 q 238 574 240 554 q 172 610 233 610 q 142 608 161 610 q 110 606 122 606 q 42 613 92 606 q 33 624 32 614 q 44 632 35 633 q 140 647 82 626 q 231 667 197 667 q 294 647 254 667 q 371 622 335 626 q 717 740 586 740 q 908 671 832 740 q 992 472 992 596 m 754 479 q 740 523 754 504 q 704 542 726 542 q 568 450 640 542 l 744 447 q 754 479 754 467 z "},"":{"ha":546,"x_min":10,"x_max":776,"o":"m 765 978 l 571 754 q 561 749 567 749 l 463 749 q 461 758 457 749 l 626 982 q 636 986 633 986 l 764 986 q 765 978 776 986 m 653 657 q 567 446 608 551 q 406 -21 469 192 q 394 -26 403 -29 q 69 -24 278 -14 q 57 -17 60 -25 q 63 -4 54 -10 q 117 64 117 31 q 96 94 117 83 q 54 101 75 106 q 39 111 39 99 q 46 121 39 117 q 101 138 64 132 q 133 154 128 140 l 181 281 q 114 304 172 301 q 18 321 43 307 q 13 333 10 325 q 25 340 15 342 q 113 358 65 335 q 190 382 161 382 q 224 379 193 382 l 256 472 q 201 493 238 476 q 150 506 172 506 q 96 497 121 506 q 83 504 86 493 q 90 517 81 514 q 124 528 93 517 q 160 535 144 535 q 224 550 224 535 q 171 571 224 564 q 51 619 100 581 q 46 629 46 624 q 56 639 46 639 q 87 631 63 639 q 122 621 111 622 q 165 618 139 618 q 201 624 178 618 q 240 629 225 629 q 315 611 271 629 l 340 671 q 350 676 346 676 l 643 671 q 653 657 660 671 z "},"":{"ha":546,"x_min":10,"x_max":660,"o":"m 538 750 q 533 744 539 744 l 435 744 q 422 754 425 744 l 349 978 q 353 982 347 982 l 481 982 q 493 974 488 982 l 538 750 m 653 657 q 567 446 608 551 q 406 -21 469 192 q 394 -26 403 -29 q 69 -24 278 -14 q 57 -17 60 -25 q 63 -4 54 -10 q 117 64 117 31 q 96 94 117 83 q 54 101 75 106 q 39 111 39 99 q 46 121 39 117 q 101 138 64 132 q 133 154 128 140 l 181 281 q 114 304 172 301 q 18 321 43 307 q 13 333 10 325 q 25 340 15 342 q 113 358 65 335 q 190 382 161 382 q 224 379 193 382 l 256 472 q 201 493 238 476 q 150 506 172 506 q 96 497 121 506 q 83 504 86 493 q 90 517 81 514 q 124 528 93 517 q 160 535 144 535 q 224 550 224 535 q 171 571 224 564 q 51 619 100 581 q 46 629 46 624 q 56 639 46 639 q 87 631 63 639 q 122 621 111 622 q 165 618 139 618 q 201 624 178 618 q 240 629 225 629 q 315 611 271 629 l 340 671 q 350 676 346 676 l 643 671 q 653 657 660 671 z "},"":{"ha":546,"x_min":10,"x_max":729,"o":"m 728 729 q 722 725 729 725 l 604 725 q 589 732 594 725 l 544 824 l 414 724 q 403 719 410 719 l 285 719 q 279 721 279 719 q 282 726 281 722 l 481 906 q 506 914 493 914 l 660 914 q 674 908 672 914 l 728 729 m 653 657 q 567 446 608 551 q 406 -21 469 192 q 394 -26 403 -29 q 69 -24 278 -14 q 57 -17 60 -25 q 63 -4 54 -10 q 117 64 117 31 q 96 94 117 83 q 54 101 75 106 q 39 111 39 99 q 46 121 39 117 q 101 138 64 132 q 133 154 128 140 l 181 281 q 114 304 172 301 q 18 321 43 307 q 13 333 10 325 q 25 340 15 342 q 113 358 65 335 q 190 382 161 382 q 224 379 193 382 l 256 472 q 201 493 238 476 q 150 506 172 506 q 96 497 121 506 q 83 504 86 493 q 90 517 81 514 q 124 528 93 517 q 160 535 144 535 q 224 550 224 535 q 171 571 224 564 q 51 619 100 581 q 46 629 46 624 q 56 639 46 639 q 87 631 63 639 q 122 621 111 622 q 165 618 139 618 q 201 624 178 618 q 240 629 225 629 q 315 611 271 629 l 340 671 q 350 676 346 676 l 643 671 q 653 657 660 671 z "},"":{"ha":546,"x_min":10,"x_max":736,"o":"m 736 865 q 700 786 736 818 q 615 754 664 754 q 576 768 597 754 q 556 800 556 782 q 604 894 556 857 q 674 922 643 922 q 717 905 697 922 q 736 865 736 888 m 506 865 q 469 786 506 818 q 385 754 433 754 q 346 768 367 754 q 325 800 325 782 q 374 894 325 857 q 442 922 411 922 q 486 905 467 922 q 506 865 506 888 m 653 657 q 567 446 608 551 q 406 -21 469 192 q 394 -26 403 -29 q 69 -24 278 -14 q 57 -17 60 -25 q 63 -4 54 -10 q 117 64 117 31 q 96 94 117 83 q 54 101 75 106 q 39 111 39 99 q 46 121 39 117 q 101 138 64 132 q 133 154 128 140 l 181 281 q 114 304 172 301 q 18 321 43 307 q 13 333 10 325 q 25 340 15 342 q 113 358 65 335 q 190 382 161 382 q 224 379 193 382 l 256 472 q 201 493 238 476 q 150 506 172 506 q 96 497 121 506 q 83 504 86 493 q 90 517 81 514 q 124 528 93 517 q 160 535 144 535 q 224 550 224 535 q 171 571 224 564 q 51 619 100 581 q 46 629 46 624 q 56 639 46 639 q 87 631 63 639 q 122 621 111 622 q 165 618 139 618 q 201 624 178 618 q 240 629 225 629 q 315 611 271 629 l 340 671 q 350 676 346 676 l 643 671 q 653 657 660 671 z "},"":{"ha":1076,"x_min":-28,"x_max":1158,"o":"m 1058 896 q 985 803 1026 844 q 872 753 935 753 q 850 754 861 753 q 813 774 835 757 q 771 793 792 790 q 731 779 744 797 q 718 763 726 772 q 703 756 715 756 l 607 756 q 597 779 582 758 q 669 872 632 836 q 779 918 717 918 q 804 916 790 918 q 842 897 818 914 q 886 878 867 881 q 928 892 914 871 q 942 914 932 899 q 958 918 949 921 l 1049 918 q 1058 896 1074 915 m 1158 608 q 1076 299 1158 501 q 976 1 986 78 q 967 -7 975 -7 l 622 -12 q 611 -7 614 -12 q 615 4 610 -3 q 718 229 651 43 q 782 433 782 404 q 767 464 782 464 q 633 276 710 464 q 538 -3 610 217 q 526 -10 535 -10 q 342 -6 408 -6 q 179 -18 275 -6 q 168 -12 171 -19 q 174 1 164 -6 q 193 17 183 8 q 218 61 214 38 q 179 82 193 82 q 143 80 165 82 q 106 78 121 78 q -18 104 56 78 q -25 117 -28 108 q -12 124 -24 126 q 49 117 13 117 q 141 148 88 117 q 256 182 194 179 l 293 269 q 222 306 263 301 q 143 321 167 310 q 136 331 135 325 q 146 339 136 338 q 240 367 199 349 q 340 403 293 390 l 372 490 q 324 508 346 508 q 251 496 296 508 q 178 483 206 483 q 72 500 125 483 q 65 513 63 503 q 79 519 69 522 q 129 513 101 513 q 210 560 210 513 q 185 574 210 574 q 165 574 181 574 q 142 572 151 572 q 31 590 83 572 q 24 603 21 593 q 36 610 26 611 q 78 606 57 606 q 165 633 114 606 q 251 660 217 660 q 324 641 281 660 q 396 622 367 622 q 426 625 414 622 l 461 717 q 471 722 463 722 l 786 726 q 796 722 793 726 q 796 713 799 718 l 774 654 q 906 711 878 700 q 1050 738 983 738 q 1125 698 1092 738 q 1158 608 1158 658 z "},"":{"ha":986,"x_min":-49,"x_max":1083,"o":"m 1050 993 l 856 769 q 846 764 851 764 l 747 764 q 746 774 742 764 l 911 997 q 921 1001 918 1001 l 1049 1001 q 1050 993 1061 1001 m 1083 478 q 903 108 1083 269 q 500 -53 724 -53 q 229 122 322 -53 q 201 129 226 129 q 138 110 186 129 q 61 92 90 92 q 35 96 49 92 q 6 104 13 103 q -1 114 -1 106 q 13 124 -1 129 q 33 121 21 121 q 93 135 65 121 q 126 178 126 151 q 110 207 126 196 q 72 218 93 218 q 17 213 54 218 q -39 211 -14 208 q -47 222 -49 213 q -36 231 -47 232 q 49 255 -12 228 q 163 282 111 282 q 211 278 186 282 q 235 340 218 306 q 114 378 203 374 q -10 410 21 382 q -14 424 -17 417 q 0 426 -10 431 q 50 413 36 413 q 151 445 92 413 q 253 478 211 478 q 303 474 271 478 q 364 543 324 504 q 342 553 353 553 q 299 546 325 553 q 256 539 272 539 q 210 544 250 539 q 201 556 200 546 q 213 564 203 565 q 285 576 242 558 q 329 608 329 594 q 282 628 329 626 q 222 626 253 626 q 175 635 197 628 q 168 646 165 638 q 181 654 171 656 q 215 653 199 653 q 354 679 288 653 q 433 706 421 706 q 483 690 456 706 q 529 669 511 674 q 789 738 669 738 q 994 663 906 738 q 1083 478 1083 589 m 758 461 q 733 488 758 488 q 607 421 671 488 q 540 274 540 350 q 553 228 540 250 q 588 207 567 207 q 671 247 628 207 q 710 313 710 286 q 697 329 710 329 q 665 326 672 329 q 650 322 657 322 q 626 346 626 322 q 638 365 626 358 q 714 394 676 381 q 758 461 758 414 z "},"":{"ha":986,"x_min":-49,"x_max":1083,"o":"m 822 778 q 818 772 824 772 l 719 772 q 707 782 710 772 l 633 1006 q 638 1010 632 1010 l 765 1010 q 778 1001 772 1010 l 822 778 m 1083 478 q 903 108 1083 269 q 500 -53 724 -53 q 229 122 322 -53 q 201 129 226 129 q 138 110 186 129 q 61 92 90 92 q 35 96 49 92 q 6 104 13 103 q -1 114 -1 106 q 13 124 -1 129 q 33 121 21 121 q 93 135 65 121 q 126 178 126 151 q 110 207 126 196 q 72 218 93 218 q 17 213 54 218 q -39 211 -14 208 q -47 222 -49 213 q -36 231 -47 232 q 49 255 -12 228 q 163 282 111 282 q 211 278 186 282 q 235 340 218 306 q 114 378 203 374 q -10 410 21 382 q -14 424 -17 417 q 0 426 -10 431 q 50 413 36 413 q 151 445 92 413 q 253 478 211 478 q 303 474 271 478 q 364 543 324 504 q 342 553 353 553 q 299 546 325 553 q 256 539 272 539 q 210 544 250 539 q 201 556 200 546 q 213 564 203 565 q 285 576 242 558 q 329 608 329 594 q 282 628 329 626 q 222 626 253 626 q 175 635 197 628 q 168 646 165 638 q 181 654 171 656 q 215 653 199 653 q 354 679 288 653 q 433 706 421 706 q 483 690 456 706 q 529 669 511 674 q 789 738 669 738 q 994 663 906 738 q 1083 478 1083 589 m 758 461 q 733 488 758 488 q 607 421 671 488 q 540 274 540 350 q 553 228 540 250 q 588 207 567 207 q 671 247 628 207 q 710 313 710 286 q 697 329 710 329 q 665 326 672 329 q 650 322 657 322 q 626 346 626 322 q 638 365 626 358 q 714 394 676 381 q 758 461 758 414 z "},"":{"ha":986,"x_min":-49,"x_max":1083,"o":"m 999 764 q 993 760 1000 760 l 875 760 q 860 767 865 760 l 815 858 l 685 758 q 674 754 681 754 l 556 754 q 550 756 550 754 q 553 761 551 757 l 751 940 q 776 949 764 949 l 931 949 q 944 943 943 949 l 999 764 m 1083 478 q 903 108 1083 269 q 500 -53 724 -53 q 229 122 322 -53 q 201 129 226 129 q 138 110 186 129 q 61 92 90 92 q 35 96 49 92 q 6 104 13 103 q -1 114 -1 106 q 13 124 -1 129 q 33 121 21 121 q 93 135 65 121 q 126 178 126 151 q 110 207 126 196 q 72 218 93 218 q 17 213 54 218 q -39 211 -14 208 q -47 222 -49 213 q -36 231 -47 232 q 49 255 -12 228 q 163 282 111 282 q 211 278 186 282 q 235 340 218 306 q 114 378 203 374 q -10 410 21 382 q -14 424 -17 417 q 0 426 -10 431 q 50 413 36 413 q 151 445 92 413 q 253 478 211 478 q 303 474 271 478 q 364 543 324 504 q 342 553 353 553 q 299 546 325 553 q 256 539 272 539 q 210 544 250 539 q 201 556 200 546 q 213 564 203 565 q 285 576 242 558 q 329 608 329 594 q 282 628 329 626 q 222 626 253 626 q 175 635 197 628 q 168 646 165 638 q 181 654 171 656 q 215 653 199 653 q 354 679 288 653 q 433 706 421 706 q 483 690 456 706 q 529 669 511 674 q 789 738 669 738 q 994 663 906 738 q 1083 478 1083 589 m 758 461 q 733 488 758 488 q 607 421 671 488 q 540 274 540 350 q 553 228 540 250 q 588 207 567 207 q 671 247 628 207 q 710 313 710 286 q 697 329 710 329 q 665 326 672 329 q 650 322 657 322 q 626 346 626 322 q 638 365 626 358 q 714 394 676 381 q 758 461 758 414 z "},"":{"ha":986,"x_min":-49,"x_max":1083,"o":"m 1007 865 q 971 786 1007 818 q 886 754 935 754 q 847 768 868 754 q 826 800 826 782 q 875 894 826 857 q 944 922 914 922 q 988 905 968 922 q 1007 865 1007 888 m 776 865 q 740 786 776 818 q 656 754 704 754 q 617 768 638 754 q 596 800 596 782 q 644 894 596 857 q 713 922 682 922 q 757 905 738 922 q 776 865 776 888 m 1083 478 q 903 108 1083 269 q 500 -53 724 -53 q 229 122 322 -53 q 201 129 226 129 q 138 110 186 129 q 61 92 90 92 q 35 96 49 92 q 6 104 13 103 q -1 114 -1 106 q 13 124 -1 129 q 33 121 21 121 q 93 135 65 121 q 126 178 126 151 q 110 207 126 196 q 72 218 93 218 q 17 213 54 218 q -39 211 -14 208 q -47 222 -49 213 q -36 231 -47 232 q 49 255 -12 228 q 163 282 111 282 q 211 278 186 282 q 235 340 218 306 q 114 378 203 374 q -10 410 21 382 q -14 424 -17 417 q 0 426 -10 431 q 50 413 36 413 q 151 445 92 413 q 253 478 211 478 q 303 474 271 478 q 364 543 324 504 q 342 553 353 553 q 299 546 325 553 q 256 539 272 539 q 210 544 250 539 q 201 556 200 546 q 213 564 203 565 q 285 576 242 558 q 329 608 329 594 q 282 628 329 626 q 222 626 253 626 q 175 635 197 628 q 168 646 165 638 q 181 654 171 656 q 215 653 199 653 q 354 679 288 653 q 433 706 421 706 q 483 690 456 706 q 529 669 511 674 q 789 738 669 738 q 994 663 906 738 q 1083 478 1083 589 m 758 461 q 733 488 758 488 q 607 421 671 488 q 540 274 540 350 q 553 228 540 250 q 588 207 567 207 q 671 247 628 207 q 710 313 710 286 q 697 329 710 329 q 665 326 672 329 q 650 322 657 322 q 626 346 626 322 q 638 365 626 358 q 714 394 676 381 q 758 461 758 414 z "},"":{"ha":986,"x_min":-49,"x_max":1083,"o":"m 1038 896 q 964 803 1006 844 q 851 753 914 753 q 829 754 840 753 q 792 774 814 757 q 750 793 771 790 q 710 779 724 797 q 697 763 706 772 q 682 756 694 756 l 586 756 q 576 779 561 758 q 649 872 611 836 q 758 918 696 918 q 783 916 769 918 q 822 897 797 914 q 865 878 846 881 q 907 892 893 871 q 921 914 911 899 q 938 918 928 921 l 1028 918 q 1038 896 1053 915 m 1083 478 q 903 108 1083 269 q 500 -53 724 -53 q 229 122 322 -53 q 201 129 226 129 q 138 110 186 129 q 61 92 90 92 q 35 96 49 92 q 6 104 13 103 q -1 114 -1 106 q 13 124 -1 129 q 33 121 21 121 q 93 135 65 121 q 126 178 126 151 q 110 207 126 196 q 72 218 93 218 q 17 213 54 218 q -39 211 -14 208 q -47 222 -49 213 q -36 231 -47 232 q 49 255 -12 228 q 163 282 111 282 q 211 278 186 282 q 235 340 218 306 q 114 378 203 374 q -10 410 21 382 q -14 424 -17 417 q 0 426 -10 431 q 50 413 36 413 q 151 445 92 413 q 253 478 211 478 q 303 474 271 478 q 364 543 324 504 q 342 553 353 553 q 299 546 325 553 q 256 539 272 539 q 210 544 250 539 q 201 556 200 546 q 213 564 203 565 q 285 576 242 558 q 329 608 329 594 q 282 628 329 626 q 222 626 253 626 q 175 635 197 628 q 168 646 165 638 q 181 654 171 656 q 215 653 199 653 q 354 679 288 653 q 433 706 421 706 q 483 690 456 706 q 529 669 511 674 q 789 738 669 738 q 994 663 906 738 q 1083 478 1083 589 m 758 461 q 733 488 758 488 q 607 421 671 488 q 540 274 540 350 q 553 228 540 250 q 588 207 567 207 q 671 247 628 207 q 710 313 710 286 q 697 329 710 329 q 665 326 672 329 q 650 322 657 322 q 626 346 626 322 q 638 365 626 358 q 714 394 676 381 q 758 461 758 414 z "},"":{"ha":1111,"x_min":-28,"x_max":1219,"o":"m 1071 978 l 876 754 q 867 749 872 749 l 768 749 q 767 758 763 749 l 932 982 q 942 986 939 986 l 1069 986 q 1071 978 1082 986 m 1217 696 q 1101 396 1149 540 q 1028 178 1065 288 q 989 8 989 54 q 993 -17 989 -8 q 993 -29 996 -24 q 981 -32 989 -35 q 843 -14 914 -14 q 646 -42 731 -14 q 633 -40 638 -44 q 633 -28 629 -36 l 658 31 q 544 -21 601 4 q 429 -46 486 -46 q 315 6 354 -46 q 271 126 286 44 q 147 131 207 138 q 135 139 138 129 q 143 150 133 147 q 215 184 174 156 q 288 219 257 213 l 304 271 q 200 258 261 258 q 140 275 186 258 q 132 286 131 278 q 143 294 133 293 q 185 298 164 296 q 206 315 206 300 q 136 339 206 335 q -18 360 33 344 q -25 371 -28 363 q -14 379 -24 381 q 14 378 0 378 q 105 394 51 378 q 194 411 158 411 q 267 413 211 411 q 340 413 307 414 l 375 503 q 267 494 322 494 q 184 510 236 494 q 111 524 132 525 q 99 532 101 524 q 107 543 97 540 q 161 549 131 551 q 213 544 217 544 q 300 589 300 544 q 258 633 300 618 q 185 644 224 647 q 172 653 175 643 q 179 664 169 661 q 231 674 218 674 q 332 654 271 674 q 426 631 399 633 l 449 694 q 458 701 451 701 l 742 704 q 751 701 749 704 q 751 692 754 697 l 618 339 q 610 292 610 317 q 623 253 610 269 q 656 238 636 238 q 729 314 690 238 q 763 403 763 381 q 746 421 763 421 q 703 413 717 421 q 690 413 696 408 q 690 426 686 418 q 747 463 701 447 q 797 492 792 479 q 865 663 865 643 q 857 671 865 668 q 843 676 844 675 q 844 696 825 689 q 933 710 882 710 q 1022 703 968 710 q 1110 696 1075 696 q 1206 710 1147 696 q 1217 707 1214 711 q 1217 696 1219 703 z "},"":{"ha":1111,"x_min":-28,"x_max":1219,"o":"m 843 771 q 839 765 844 765 l 740 765 q 728 775 731 765 l 654 999 q 658 1003 653 1003 l 786 1003 q 799 994 793 1003 l 843 771 m 1217 696 q 1101 396 1149 540 q 1028 178 1065 288 q 989 8 989 54 q 993 -17 989 -8 q 993 -29 996 -24 q 981 -32 989 -35 q 843 -14 914 -14 q 646 -42 731 -14 q 633 -40 638 -44 q 633 -28 629 -36 l 658 31 q 544 -21 601 4 q 429 -46 486 -46 q 315 6 354 -46 q 271 126 286 44 q 147 131 207 138 q 135 139 138 129 q 143 150 133 147 q 215 184 174 156 q 288 219 257 213 l 304 271 q 200 258 261 258 q 140 275 186 258 q 132 286 131 278 q 143 294 133 293 q 185 298 164 296 q 206 315 206 300 q 136 339 206 335 q -18 360 33 344 q -25 371 -28 363 q -14 379 -24 381 q 14 378 0 378 q 105 394 51 378 q 194 411 158 411 q 267 413 211 411 q 340 413 307 414 l 375 503 q 267 494 322 494 q 184 510 236 494 q 111 524 132 525 q 99 532 101 524 q 107 543 97 540 q 161 549 131 551 q 213 544 217 544 q 300 589 300 544 q 258 633 300 618 q 185 644 224 647 q 172 653 175 643 q 179 664 169 661 q 231 674 218 674 q 332 654 271 674 q 426 631 399 633 l 449 694 q 458 701 451 701 l 742 704 q 751 701 749 704 q 751 692 754 697 l 618 339 q 610 292 610 317 q 623 253 610 269 q 656 238 636 238 q 729 314 690 238 q 763 403 763 381 q 746 421 763 421 q 703 413 717 421 q 690 413 696 408 q 690 426 686 418 q 747 463 701 447 q 797 492 792 479 q 865 663 865 643 q 857 671 865 668 q 843 676 844 675 q 844 696 825 689 q 933 710 882 710 q 1022 703 968 710 q 1110 696 1075 696 q 1206 710 1147 696 q 1217 707 1214 711 q 1217 696 1219 703 z "},"":{"ha":1111,"x_min":-28,"x_max":1219,"o":"m 1010 764 q 1004 760 1011 760 l 886 760 q 871 767 876 760 l 826 858 l 696 758 q 685 754 692 754 l 567 754 q 561 756 561 754 q 564 761 563 757 l 763 940 q 788 949 775 949 l 942 949 q 956 943 954 949 l 1010 764 m 1217 696 q 1101 396 1149 540 q 1028 178 1065 288 q 989 8 989 54 q 993 -17 989 -8 q 993 -29 996 -24 q 981 -32 989 -35 q 843 -14 914 -14 q 646 -42 731 -14 q 633 -40 638 -44 q 633 -28 629 -36 l 658 31 q 544 -21 601 4 q 429 -46 486 -46 q 315 6 354 -46 q 271 126 286 44 q 147 131 207 138 q 135 139 138 129 q 143 150 133 147 q 215 184 174 156 q 288 219 257 213 l 304 271 q 200 258 261 258 q 140 275 186 258 q 132 286 131 278 q 143 294 133 293 q 185 298 164 296 q 206 315 206 300 q 136 339 206 335 q -18 360 33 344 q -25 371 -28 363 q -14 379 -24 381 q 14 378 0 378 q 105 394 51 378 q 194 411 158 411 q 267 413 211 411 q 340 413 307 414 l 375 503 q 267 494 322 494 q 184 510 236 494 q 111 524 132 525 q 99 532 101 524 q 107 543 97 540 q 161 549 131 551 q 213 544 217 544 q 300 589 300 544 q 258 633 300 618 q 185 644 224 647 q 172 653 175 643 q 179 664 169 661 q 231 674 218 674 q 332 654 271 674 q 426 631 399 633 l 449 694 q 458 701 451 701 l 742 704 q 751 701 749 704 q 751 692 754 697 l 618 339 q 610 292 610 317 q 623 253 610 269 q 656 238 636 238 q 729 314 690 238 q 763 403 763 381 q 746 421 763 421 q 703 413 717 421 q 690 413 696 408 q 690 426 686 418 q 747 463 701 447 q 797 492 792 479 q 865 663 865 643 q 857 671 865 668 q 843 676 844 675 q 844 696 825 689 q 933 710 882 710 q 1022 703 968 710 q 1110 696 1075 696 q 1206 710 1147 696 q 1217 707 1214 711 q 1217 696 1219 703 z "},"":{"ha":1111,"x_min":-28,"x_max":1219,"o":"m 1051 865 q 1015 786 1051 818 q 931 754 979 754 q 892 768 913 754 q 871 800 871 782 q 919 894 871 857 q 989 922 958 922 q 1032 905 1013 922 q 1051 865 1051 888 m 821 865 q 785 786 821 818 q 700 754 749 754 q 661 768 682 754 q 640 800 640 782 q 689 894 640 857 q 757 922 726 922 q 801 905 782 922 q 821 865 821 888 m 1217 696 q 1101 396 1149 540 q 1028 178 1065 288 q 989 8 989 54 q 993 -17 989 -8 q 993 -29 996 -24 q 981 -32 989 -35 q 843 -14 914 -14 q 646 -42 731 -14 q 633 -40 638 -44 q 633 -28 629 -36 l 658 31 q 544 -21 601 4 q 429 -46 486 -46 q 315 6 354 -46 q 271 126 286 44 q 147 131 207 138 q 135 139 138 129 q 143 150 133 147 q 215 184 174 156 q 288 219 257 213 l 304 271 q 200 258 261 258 q 140 275 186 258 q 132 286 131 278 q 143 294 133 293 q 185 298 164 296 q 206 315 206 300 q 136 339 206 335 q -18 360 33 344 q -25 371 -28 363 q -14 379 -24 381 q 14 378 0 378 q 105 394 51 378 q 194 411 158 411 q 267 413 211 411 q 340 413 307 414 l 375 503 q 267 494 322 494 q 184 510 236 494 q 111 524 132 525 q 99 532 101 524 q 107 543 97 540 q 161 549 131 551 q 213 544 217 544 q 300 589 300 544 q 258 633 300 618 q 185 644 224 647 q 172 653 175 643 q 179 664 169 661 q 231 674 218 674 q 332 654 271 674 q 426 631 399 633 l 449 694 q 458 701 451 701 l 742 704 q 751 701 749 704 q 751 692 754 697 l 618 339 q 610 292 610 317 q 623 253 610 269 q 656 238 636 238 q 729 314 690 238 q 763 403 763 381 q 746 421 763 421 q 703 413 717 421 q 690 413 696 408 q 690 426 686 418 q 747 463 701 447 q 797 492 792 479 q 865 663 865 643 q 857 671 865 668 q 843 676 844 675 q 844 696 825 689 q 933 710 882 710 q 1022 703 968 710 q 1110 696 1075 696 q 1206 710 1147 696 q 1217 707 1214 711 q 1217 696 1219 703 z "},"":{"ha":590,"x_min":78,"x_max":649,"o":"m 643 739 l 610 618 q 593 604 606 604 l 413 604 l 242 -36 q 236 -46 242 -40 l 163 -106 q 138 -103 149 -117 l 92 -43 q 89 -28 86 -36 l 258 604 l 100 604 q 83 626 78 604 l 117 747 q 133 760 119 760 l 300 760 l 350 944 q 367 957 353 957 l 486 957 q 503 936 508 957 l 456 760 l 626 760 q 643 739 649 760 z "},"":{"ha":507,"x_min":8,"x_max":531,"o":"m 531 838 q 462 681 531 743 q 289 618 393 618 q 192 665 229 618 q 120 681 168 664 q 50 697 72 697 q 21 693 32 697 q 11 699 14 692 q 15 708 8 706 q 131 735 32 719 q 203 789 203 744 q 169 844 203 819 q 107 871 140 865 q 99 879 99 872 q 107 888 99 885 q 186 889 126 893 q 258 899 239 885 q 404 947 328 947 q 492 915 454 947 q 531 838 531 883 m 425 815 q 394 853 425 853 q 336 816 367 853 q 306 744 306 779 q 336 714 306 714 q 397 747 369 714 q 425 815 425 781 z "},"":{"ha":776,"x_min":1,"x_max":854,"o":"m 850 756 q 719 556 781 700 q 707 550 715 547 q 632 564 676 564 q 501 522 560 564 q 443 419 443 479 q 467 355 443 382 q 526 328 492 328 q 664 372 590 328 q 678 371 674 375 q 678 358 682 365 q 589 136 632 293 q 583 129 589 129 q 461 107 526 111 l 426 -12 q 417 -22 424 -22 l 297 -22 q 288 -8 283 -22 l 324 122 q 207 218 268 144 q 133 240 176 239 q 57 239 165 239 q 47 247 47 239 q 56 257 46 256 q 171 314 121 263 q 168 418 157 358 q 14 436 89 442 q 3 443 4 435 q 11 453 1 451 q 108 483 49 457 q 192 507 163 508 q 250 594 213 546 q 175 625 218 615 q 167 635 167 626 q 176 642 168 643 q 256 665 256 633 q 203 694 256 694 q 180 692 193 694 q 158 690 167 690 q 122 697 149 690 q 115 707 113 700 q 126 714 117 714 q 203 728 156 713 q 281 743 251 743 q 335 733 307 743 q 389 713 363 722 q 501 772 450 756 l 540 915 q 550 922 542 922 l 669 922 q 679 910 682 922 l 650 796 l 651 796 q 747 780 701 796 q 800 764 793 764 q 839 772 829 764 q 854 763 854 778 q 850 756 854 758 z "},"":{"ha":1126,"x_min":-64,"x_max":1225,"o":"m 1221 957 l 1086 707 q 1075 701 1083 703 q 972 754 1015 754 q 828 682 858 754 q 790 575 810 624 l 926 575 q 936 561 940 575 l 890 425 q 879 415 888 415 l 728 415 q 694 321 711 371 q 803 315 754 315 q 1167 365 993 315 q 1181 361 1176 368 q 1176 349 1183 356 q 990 8 1007 176 q 981 -3 990 -3 l 135 -6 q 124 0 125 -6 q 128 13 121 6 q 172 54 153 32 q 238 156 221 106 q 199 167 219 167 q 163 162 188 167 q 125 157 139 157 q 57 172 101 157 q -10 182 18 185 q -21 189 -19 181 q -12 201 -22 199 q 79 210 4 208 q 115 235 115 211 q 57 267 115 261 q -56 289 -25 275 q -61 303 -64 294 q -49 308 -58 311 q -6 301 -24 301 q 35 306 11 301 q 75 311 60 311 q 192 282 136 311 q 278 256 247 253 l 328 381 q 267 419 321 410 q 172 443 190 433 q 167 456 164 447 q 179 463 169 464 q 262 476 219 460 q 332 493 304 493 q 379 488 338 493 l 404 558 q 272 603 343 561 q 153 646 201 646 q 92 631 132 646 q 79 638 82 626 q 85 650 75 647 q 163 668 138 668 q 260 656 201 668 q 356 643 318 643 q 447 675 388 643 l 497 782 q 436 774 465 774 q 353 804 393 774 q 347 813 347 808 q 357 822 347 822 q 364 821 361 822 q 408 813 383 813 q 482 851 482 813 q 431 876 482 876 q 392 872 415 876 q 354 868 368 868 q 258 878 310 867 q 250 889 249 881 q 261 897 251 899 q 322 894 290 894 q 420 919 361 894 q 519 943 479 943 q 608 918 554 943 q 788 985 671 961 q 982 1004 886 1004 q 1098 984 1044 1004 q 1150 964 1151 964 q 1207 971 1176 964 q 1221 969 1215 975 q 1221 957 1225 965 z "},"":{"ha":961,"x_min":-82,"x_max":1071,"o":"m 1063 953 q 917 729 1032 938 q 901 726 911 721 q 764 763 838 763 q 688 743 688 763 q 743 690 688 710 q 849 646 831 657 q 904 533 904 608 q 797 358 904 433 q 865 239 865 321 q 706 42 865 118 q 435 -19 575 -19 q 285 -10 382 -19 q 146 -4 199 -1 q 133 0 136 -4 q 136 10 131 4 q 156 29 147 19 q 183 78 178 54 q 57 100 133 106 q 44 106 47 99 q 49 118 40 114 q 114 132 64 126 q 151 154 151 136 q 131 165 151 165 q 80 159 118 165 q 25 153 42 153 q -72 183 0 153 q -79 193 -82 185 q -67 199 -76 200 q -25 196 -53 196 q 66 222 8 196 q 163 247 124 247 q 283 225 210 247 q 401 203 357 203 q 483 238 483 203 q 196 321 483 296 q 183 325 186 319 q 186 335 179 329 q 200 339 194 335 q 222 372 217 349 q 96 394 172 400 q 83 400 86 393 q 88 413 79 408 q 153 426 103 421 q 190 449 190 431 q 169 460 190 460 q 119 453 157 460 q 64 447 81 447 q -33 478 39 447 q -40 488 -43 479 q -28 493 -37 494 q 14 490 -14 490 q 105 516 47 490 q 201 542 163 542 q 322 519 249 542 q 440 497 396 497 q 522 532 522 497 q 413 590 522 565 q 243 613 333 607 q 232 619 233 613 q 239 629 232 625 q 326 651 269 635 q 303 714 306 690 q 268 711 286 711 q 235 718 254 711 q 200 725 215 725 q 158 715 178 725 q 144 717 149 711 q 146 731 139 724 q 219 763 168 754 q 263 783 263 768 q 214 806 263 801 q 113 825 144 811 q 106 836 103 828 q 119 840 110 843 q 165 835 156 835 q 274 868 210 835 q 381 901 338 901 q 421 896 399 901 q 589 968 518 947 q 772 989 667 989 q 885 977 817 989 q 999 965 954 965 q 1058 971 1008 965 q 1069 965 1068 972 q 1063 953 1071 958 z "},"":{"ha":590,"x_min":8,"x_max":621,"o":"m 621 508 q 524 308 621 396 q 306 221 426 221 q 160 317 210 221 q 144 319 158 319 q 109 310 135 319 q 68 300 83 300 q 39 307 67 300 q 36 313 33 307 q 42 318 38 319 q 56 315 47 315 q 104 346 104 315 q 74 368 104 368 q 45 365 64 368 q 14 364 26 363 q 10 369 8 365 q 15 375 10 375 q 62 388 28 374 q 124 403 96 403 q 149 400 136 403 l 161 433 q 96 453 144 451 q 31 471 47 456 q 29 479 26 475 q 36 481 31 483 q 63 472 56 472 q 118 490 86 472 q 172 508 150 508 q 199 506 174 508 q 232 543 214 526 q 221 549 225 549 q 197 545 211 549 q 172 542 182 542 q 161 543 168 542 q 149 543 154 543 q 144 550 143 544 q 150 556 144 556 q 189 562 165 553 q 213 579 213 571 q 189 589 213 589 q 157 589 172 589 q 131 593 143 589 q 126 599 125 594 q 133 604 128 604 q 223 615 181 600 q 269 631 265 631 q 297 622 282 631 q 322 611 313 614 q 461 649 397 649 q 573 608 525 649 q 621 508 621 568 z "},"":{"ha":724,"x_min":36,"x_max":824,"o":"m 818 942 l 790 838 q 774 824 786 824 l 725 824 l 499 -31 q 482 -44 494 -44 l 363 -44 q 346 -22 340 -44 l 572 825 l 525 824 l 296 -31 q 279 -44 292 -44 l 158 -44 q 142 -22 136 -44 l 240 346 q 91 414 146 356 q 36 565 36 472 q 49 658 36 610 q 192 877 85 792 q 418 963 299 963 l 801 963 q 818 942 824 963 z "},"":{"ha":1089,"x_min":-68,"x_max":1189,"o":"m 1182 701 q 1117 586 1163 628 q 1042 538 1096 567 q 996 494 1001 518 q 994 481 994 488 q 1026 416 994 463 q 1057 318 1057 369 q 1046 244 1057 285 q 879 42 1011 114 q 629 -21 767 -21 q 526 -17 572 -21 l 606 213 q 751 283 732 213 q 756 313 756 297 q 738 389 756 339 q 719 467 719 439 q 724 497 719 482 q 797 580 733 532 q 871 665 861 628 q 874 688 874 678 q 793 733 874 733 q 733 710 761 733 q 688 639 701 683 l 497 0 l 204 0 q 181 11 196 8 q 150 11 169 13 q 122 10 125 10 q 69 5 103 10 q 15 0 36 0 q -58 17 -11 0 q -65 29 -68 19 q -51 36 -61 39 q 13 28 -18 28 q 111 57 56 28 q 218 96 174 90 l 256 192 l 156 192 l 199 353 l 299 353 l 358 496 q 325 501 338 501 q 251 483 294 501 q 179 464 207 464 q 105 469 150 464 q 31 475 60 475 q -14 468 11 475 q -28 478 -28 464 q -21 488 -28 485 q 140 521 33 508 q 208 556 208 529 q 122 606 208 606 q 79 601 99 606 q 67 608 69 599 q 74 621 64 618 q 218 638 142 638 q 287 621 246 638 q 354 604 328 604 q 394 618 374 604 l 443 743 q 317 789 414 782 q 190 814 213 796 q 186 826 183 819 q 199 832 189 833 q 250 829 221 829 q 332 851 283 829 q 414 872 381 872 q 493 860 447 872 q 883 967 683 967 q 1088 914 1000 967 q 1189 756 1189 854 q 1182 701 1189 729 z "},"":{"ha":671,"x_min":104,"x_max":739,"o":"m 728 675 q 581 459 693 549 q 343 369 468 369 q 170 433 236 369 q 104 597 104 497 q 115 676 104 636 q 263 893 150 804 q 503 982 376 982 q 673 917 607 982 q 739 754 739 853 q 728 675 739 715 m 682 676 q 690 743 690 710 q 636 881 690 826 q 493 935 582 935 q 289 858 386 935 q 164 674 192 782 q 156 607 156 640 q 210 470 156 524 q 353 417 264 417 q 557 493 460 417 q 682 676 654 569 m 504 654 l 551 535 q 544 526 554 526 l 421 526 q 415 529 415 526 l 390 603 l 371 531 q 365 526 369 526 l 253 526 q 247 533 246 526 l 325 825 q 331 829 328 829 l 508 829 q 567 810 542 829 q 593 760 593 790 q 567 697 593 725 q 504 654 540 668 m 456 732 q 446 746 463 746 l 425 746 l 417 713 l 435 713 q 456 732 453 713 z "},"":{"ha":985,"x_min":56,"x_max":1046,"o":"m 1028 464 q 798 126 974 265 q 425 -12 622 -12 q 158 87 260 -12 q 56 340 56 186 q 74 467 56 403 q 304 804 128 665 q 678 943 481 943 q 944 844 842 943 q 1046 590 1046 744 q 1028 464 1046 528 m 960 467 q 974 572 974 521 q 888 790 974 704 q 663 875 801 875 q 340 754 493 875 q 142 464 186 633 q 128 360 128 411 q 215 142 128 228 q 440 57 301 57 q 763 177 610 57 q 960 467 915 297 m 842 726 l 758 554 q 749 551 757 549 q 688 564 721 564 q 547 458 575 564 q 544 435 544 446 q 629 369 544 369 q 697 379 654 369 q 706 372 701 379 l 704 201 q 700 194 704 196 q 524 168 631 168 q 335 224 403 168 q 268 378 268 279 q 281 468 268 419 q 426 677 315 596 q 678 758 538 758 q 836 736 738 758 q 842 726 846 733 z "},"":{"ha":856,"x_min":96,"x_max":890,"o":"m 889 958 l 803 642 q 799 638 803 638 l 676 638 q 672 643 671 638 l 692 718 l 632 639 q 631 639 631 639 q 628 638 629 638 l 557 638 q 553 642 553 638 l 533 719 l 514 642 q 508 638 513 638 l 388 638 q 382 643 382 638 l 468 961 q 472 965 471 965 l 597 965 q 601 961 601 965 l 638 814 l 757 963 q 761 965 758 965 l 883 965 q 889 958 890 965 m 426 958 l 400 864 q 394 860 399 860 l 313 860 l 254 642 q 249 638 253 638 l 128 638 q 124 643 122 638 l 181 860 l 101 860 q 96 865 96 860 l 122 961 q 128 965 125 965 l 421 965 q 426 958 426 965 z "},"":{"ha":283,"x_min":179,"x_max":499,"o":"m 488 1235 l 293 1011 q 283 1006 289 1006 l 185 1006 q 183 1015 179 1006 l 349 1239 q 358 1243 356 1243 l 486 1243 q 488 1235 499 1243 z "},"":{"ha":600,"x_min":211,"x_max":622,"o":"m 622 1125 q 586 1046 622 1078 q 501 1014 550 1014 q 463 1028 483 1014 q 442 1060 442 1042 q 490 1154 442 1117 q 560 1182 529 1182 q 603 1165 583 1182 q 622 1125 622 1147 m 392 1125 q 356 1046 392 1078 q 271 1014 319 1014 q 232 1028 253 1014 q 211 1060 211 1042 q 260 1154 211 1117 q 328 1182 297 1182 q 372 1165 353 1182 q 392 1125 392 1147 z "},"":{"ha":1979,"x_min":13,"x_max":2118,"o":"m 2114 982 q 1960 693 2067 903 q 1950 688 1958 685 q 1843 700 1878 700 q 1608 692 1663 700 l 1560 596 l 1875 618 q 1888 614 1885 618 q 1885 601 1890 608 q 1839 526 1860 565 q 1769 338 1789 433 q 1757 329 1767 326 q 1576 350 1671 350 q 1463 344 1507 350 l 1408 240 q 1539 236 1472 236 q 1849 282 1769 236 q 1861 282 1857 286 q 1863 268 1867 276 q 1783 -25 1794 125 q 1771 -35 1782 -36 q 1243 -11 1564 -11 q 1092 -18 1194 -11 q 935 -25 989 -25 q 924 -18 925 -25 q 929 -6 921 -11 q 990 179 947 54 l 694 179 q 633 122 647 136 q 592 57 601 88 q 599 7 582 29 q 583 -11 607 -11 l 22 -12 q 14 -4 13 -12 q 25 8 14 6 q 138 46 89 26 q 269 132 254 92 q 214 127 247 132 q 169 122 181 122 q 115 133 143 122 q 56 156 71 151 q 50 161 50 157 q 68 175 50 178 q 96 174 82 174 q 227 203 147 174 q 339 231 307 232 l 442 351 q 379 363 438 361 q 328 368 346 363 q 326 379 321 371 q 340 388 331 386 q 424 409 379 390 q 504 429 468 428 l 568 507 q 507 514 540 514 q 450 510 486 514 q 388 507 414 507 q 319 513 360 507 q 258 519 278 519 q 211 514 235 519 q 200 518 200 511 q 214 533 200 531 q 360 547 236 539 q 447 590 429 553 q 449 597 449 594 q 365 621 449 629 q 358 625 358 621 q 375 640 358 638 q 436 649 415 649 q 521 628 474 649 q 604 607 568 607 q 663 618 632 607 l 736 711 q 674 736 711 715 q 603 757 638 757 q 551 751 581 757 q 539 757 539 749 q 553 771 539 765 q 676 801 621 801 q 726 799 690 801 q 772 799 754 796 q 831 811 800 800 q 879 888 851 840 q 881 897 881 893 q 844 936 881 921 q 786 947 815 947 q 704 928 756 947 q 690 933 690 922 q 701 947 690 943 q 883 983 786 976 q 1060 986 925 986 q 1217 970 1149 986 q 1322 954 1285 954 q 1430 960 1347 954 q 1751 965 1513 965 q 2103 996 1874 965 q 2114 993 2110 997 q 2114 982 2118 988 m 1156 681 l 901 411 l 1054 411 q 1069 451 1060 428 q 1071 461 1071 457 q 1044 479 1071 479 q 1010 472 1028 479 q 1000 474 1003 468 q 1006 485 999 479 q 1075 531 1040 508 q 1133 607 1121 564 l 1156 681 z "},"":{"ha":1208,"x_min":-6,"x_max":1235,"o":"m 1235 632 q 1028 159 1235 368 q 576 -50 821 -50 q 375 -4 457 -50 l 322 -68 q 304 -78 314 -78 l 169 -78 q 153 -68 153 -78 q 161 -51 153 -61 l 275 88 q 222 221 242 138 q 140 244 189 243 q 56 243 185 243 q 44 253 44 243 q 54 264 43 263 q 182 326 126 269 q 179 443 168 381 q 47 464 113 464 q 8 463 28 464 q -4 471 -3 461 q 6 482 -6 481 q 114 515 49 486 q 206 542 175 542 q 288 726 232 614 q 204 760 251 750 q 196 771 194 761 q 206 779 196 781 q 293 806 293 771 q 235 838 293 838 q 210 835 225 838 q 185 833 194 833 q 144 840 174 833 q 138 851 135 843 q 150 860 140 861 q 235 874 182 857 q 321 892 289 892 q 383 881 350 892 q 442 857 413 868 q 894 1021 610 1021 q 1024 1000 968 1021 l 1061 1046 q 1079 1054 1068 1054 l 1213 1054 q 1228 1044 1228 1054 q 1221 1029 1228 1038 q 1136 926 1179 978 q 1235 632 1235 822 m 876 626 q 856 678 876 654 q 808 701 835 701 q 642 597 722 701 q 563 399 563 492 q 587 338 563 364 q 647 311 611 311 q 704 340 704 311 q 667 358 704 363 q 657 367 658 357 q 661 379 656 376 q 778 404 719 392 q 843 474 843 419 q 768 513 843 513 q 704 515 740 513 l 681 517 q 671 525 671 518 q 682 536 671 533 q 788 551 713 538 q 876 626 876 576 z "},"":{"ha":625,"x_min":21,"x_max":656,"o":"m 650 485 l 607 324 q 590 310 603 310 l 435 310 l 393 153 q 376 139 389 139 l 215 139 q 199 161 193 139 l 239 310 l 92 310 q 75 332 69 310 l 118 493 q 135 506 121 506 l 290 506 l 332 661 q 349 674 335 674 l 510 674 q 526 653 532 674 l 488 506 l 633 506 q 650 485 656 506 m 515 89 l 469 1 q 458 -8 467 -8 l 36 -8 q 25 7 21 -8 l 71 96 q 82 103 72 103 l 506 103 q 515 89 519 103 z "},"":{"ha":1085,"x_min":-83,"x_max":1307,"o":"m 1300 969 q 1038 706 1206 893 q 742 367 890 536 l 840 367 q 857 346 864 367 l 835 293 q 818 279 829 279 l 700 279 q 685 229 696 263 l 803 229 q 819 208 826 229 l 797 156 q 781 142 792 142 l 660 142 q 638 22 638 67 q 674 -14 638 7 q 679 -26 682 -18 q 667 -33 676 -35 q 442 -11 551 -11 q 149 -40 274 -11 q 135 -33 138 -43 q 143 -21 133 -25 q 264 64 249 17 q 289 142 264 64 l 158 142 q 142 164 135 142 l 164 217 q 181 229 169 229 l 317 229 l 333 279 l 196 279 q 179 301 172 279 l 201 354 q 218 367 207 367 l 361 367 q 367 383 365 376 q 337 404 360 394 q 300 414 314 414 q 208 440 267 414 q 115 465 150 465 q 53 461 94 465 q -15 458 17 457 q -24 463 -21 458 q -26 472 -28 468 q -18 476 -25 476 q 69 497 25 475 q 146 518 114 518 q 190 513 160 518 q 236 507 219 507 q 315 544 281 507 l 301 624 q 269 621 286 621 q 200 644 243 621 q 129 668 157 668 q 97 657 113 668 q 85 658 90 654 q 79 669 79 663 q 83 678 79 675 q 190 701 114 699 q 282 725 261 703 l 260 836 q 213 847 229 847 q 142 828 182 847 q 74 808 103 808 q 9 821 50 808 q -50 833 -32 833 q -67 832 -58 833 q -79 839 -75 829 q -74 850 -83 847 q -31 856 -50 856 q 3 852 -18 856 q 40 849 25 849 q 85 863 65 849 q 100 899 104 876 q 67 936 93 936 q 8 931 31 936 q -8 943 -8 925 q -4 950 -8 949 q 78 967 29 967 q 135 958 100 967 q 190 949 169 949 q 235 975 214 949 q 281 981 256 981 q 387 964 310 981 q 517 947 464 947 q 590 961 535 947 q 603 951 601 964 l 638 669 q 796 890 796 844 q 767 917 796 911 q 711 919 739 918 q 701 928 701 921 q 710 939 700 936 q 896 968 804 963 q 1065 964 949 965 q 1292 988 1179 967 q 1304 982 1301 989 q 1300 969 1307 975 z "},"":{"ha":649,"x_min":29,"x_max":711,"o":"m 711 871 q 670 746 711 821 q 629 639 629 671 q 649 625 629 632 q 682 633 668 621 q 690 636 686 639 q 692 628 694 633 q 661 497 661 556 q 654 492 661 490 q 429 481 490 497 q 421 483 422 479 q 422 490 418 486 q 444 546 429 500 q 267 469 339 469 q 164 529 208 469 q 125 518 144 518 q 84 534 108 518 q 40 547 60 550 q 33 551 33 546 q 38 560 32 557 q 60 564 49 564 q 87 560 68 564 q 118 556 106 556 q 153 567 136 556 q 193 663 163 619 q 131 646 181 661 q 71 639 92 635 q 65 646 65 642 q 72 651 67 651 q 147 693 147 651 q 129 710 147 710 q 96 704 119 710 q 61 699 72 699 q 36 701 54 699 q 31 708 29 703 q 38 714 31 715 q 96 728 64 713 q 149 744 128 744 q 203 732 171 744 q 256 718 235 719 q 482 783 358 783 q 439 817 485 817 q 317 789 364 817 q 308 788 313 785 q 307 796 306 790 q 313 824 311 807 q 193 832 274 818 q 188 839 188 833 q 194 844 188 844 q 282 869 282 844 q 203 901 282 901 q 169 894 190 901 q 161 899 164 893 q 165 907 160 906 q 239 922 211 922 q 296 917 261 922 q 353 913 331 913 q 467 936 385 913 q 597 960 550 960 q 711 871 711 960 m 458 706 q 335 615 335 671 q 365 594 335 594 q 426 613 401 594 l 458 706 z "},"":{"ha":640,"x_min":-4,"x_max":732,"o":"m 732 804 q 615 564 732 669 q 353 458 497 458 q 176 572 238 458 q 158 576 176 576 q 117 565 147 576 q 68 553 86 553 q 32 561 76 553 q 28 569 25 563 q 36 574 31 576 q 50 572 42 572 q 90 582 71 572 q 110 608 110 592 q 75 635 110 635 q 39 631 64 635 q 3 631 19 628 q -3 638 -4 631 q 4 643 -3 644 q 60 659 19 642 q 135 676 100 676 q 165 674 149 676 q 181 714 168 690 q 101 738 160 735 q 21 760 42 740 q 19 768 17 764 q 28 771 22 772 q 60 761 50 761 q 126 783 88 761 q 192 804 165 804 q 225 801 194 804 q 264 846 243 826 q 250 853 257 853 q 222 848 239 853 q 194 843 204 843 q 164 847 181 843 q 158 854 158 847 q 165 860 160 861 q 213 869 185 857 q 242 889 242 881 q 211 901 242 900 q 171 900 190 900 q 142 906 154 901 q 136 914 135 907 q 144 918 138 919 q 253 933 201 914 q 310 951 304 951 q 342 941 324 951 q 372 928 360 931 q 540 972 464 972 q 674 924 617 972 q 732 804 732 875 m 521 793 q 504 810 521 810 q 421 765 463 810 q 379 671 379 721 q 410 628 379 628 q 463 653 436 628 q 489 696 489 678 q 481 707 489 707 q 464 705 474 707 q 450 703 454 703 q 435 718 435 703 q 442 731 435 725 q 494 751 467 740 q 521 793 521 763 z "},"":{"ha":1514,"x_min":14,"x_max":1519,"o":"m 1519 472 q 1501 299 1519 410 q 1492 289 1499 289 l 1047 289 q 1085 217 1046 242 q 1167 196 1118 196 q 1371 256 1293 196 q 1385 257 1379 263 q 1386 242 1390 251 q 1349 44 1367 201 q 1344 36 1349 39 q 1075 -44 1240 -44 q 754 121 810 -44 q 572 9 682 54 q 379 -36 463 -36 q 221 56 286 -36 q 161 39 185 39 q 98 63 136 39 q 29 83 60 86 q 18 90 19 82 q 26 103 17 100 q 60 110 43 110 q 102 103 74 110 q 150 96 131 96 q 203 113 176 96 q 265 260 217 193 q 179 239 240 257 q 99 222 126 222 q 78 224 88 222 q 69 236 68 226 q 79 244 69 244 q 194 307 194 244 q 167 332 194 332 q 115 324 153 332 q 61 315 78 315 q 43 318 53 315 q 24 321 29 321 q 14 332 14 322 q 26 340 15 340 q 115 362 67 338 q 197 386 164 386 q 280 367 231 386 q 361 346 329 347 q 710 446 518 446 q 643 497 713 497 q 456 454 522 497 q 443 453 449 449 q 440 465 438 457 q 449 508 444 478 q 394 504 421 504 q 265 522 365 504 q 257 533 256 524 q 267 542 257 542 q 401 579 401 542 q 360 622 401 613 q 279 628 336 628 q 229 618 254 628 q 217 625 219 614 q 222 638 213 635 q 335 660 292 660 q 423 652 369 660 q 511 644 476 644 q 687 681 560 644 q 888 718 814 718 q 1017 681 967 718 q 1244 740 1158 740 q 1436 671 1360 740 q 1519 472 1519 596 m 1282 479 q 1268 523 1282 504 q 1232 542 1254 542 q 1096 450 1168 542 l 1272 447 q 1282 479 1282 467 m 672 326 q 549 274 603 307 q 483 189 483 232 q 531 156 483 156 q 625 183 583 156 l 672 326 z "},"":{"ha":986,"x_min":-49,"x_max":1083,"o":"m 1083 478 q 903 108 1083 269 q 500 -53 724 -53 q 410 -40 451 -53 l 365 -93 q 347 -103 357 -103 l 213 -103 q 196 -93 196 -103 q 204 -76 196 -86 l 294 31 q 229 122 256 72 q 201 129 226 129 q 138 110 186 129 q 61 92 90 92 q 35 96 49 92 q 6 104 13 103 q -1 114 -1 106 q 13 124 -1 129 q 33 121 21 121 q 93 135 65 121 q 126 178 126 151 q 110 207 126 196 q 72 218 93 218 q 17 213 54 218 q -39 211 -14 208 q -47 222 -49 213 q -36 231 -47 232 q 49 255 -12 228 q 163 282 111 282 q 211 278 186 282 q 235 340 218 306 q 114 378 203 374 q -10 410 21 382 q -14 424 -17 417 q 0 426 -10 431 q 50 413 36 413 q 151 445 92 413 q 253 478 211 478 q 303 474 271 478 q 364 543 324 504 q 342 553 353 553 q 299 546 325 553 q 256 539 272 539 q 210 544 250 539 q 201 556 200 546 q 213 564 203 565 q 285 576 242 558 q 329 608 329 594 q 282 628 329 626 q 222 626 253 626 q 175 635 197 628 q 168 646 165 638 q 181 654 171 656 q 215 653 199 653 q 354 679 288 653 q 433 706 421 706 q 483 690 456 706 q 529 669 511 674 q 789 738 669 738 q 879 725 836 738 l 917 769 q 935 778 924 778 l 1068 778 q 1083 768 1083 778 q 1076 753 1083 761 l 999 660 q 1083 478 1083 585 m 758 461 q 733 488 758 488 q 607 421 671 488 q 540 274 540 350 q 553 228 540 250 q 588 207 567 207 q 671 247 628 207 q 710 313 710 286 q 697 329 710 329 q 665 326 672 329 q 650 322 657 322 q 626 346 626 322 q 638 365 626 358 q 714 394 676 381 q 758 461 758 414 z "},"":{"ha":831,"x_min":-43,"x_max":911,"o":"m 908 953 l 815 679 q 806 671 813 671 l 508 672 q 499 686 492 672 l 518 742 q 431 796 489 753 q 340 829 386 829 q 329 836 331 829 q 335 849 326 843 q 386 864 368 864 q 443 853 408 864 q 500 843 478 843 q 564 872 528 843 l 600 958 q 610 964 606 964 l 899 965 q 908 963 906 965 q 908 953 911 960 m 793 607 q 703 426 769 504 q 592 328 668 386 q 538 265 538 286 q 615 225 538 225 q 731 257 656 225 q 742 257 738 260 q 744 247 746 254 l 722 68 l 718 10 q 714 1 718 3 q 425 -62 581 -62 q 239 -15 321 -62 q 139 119 147 36 q 24 158 74 158 q -11 152 8 158 q -33 146 -31 146 q -43 156 -43 146 q -37 164 -43 160 q 74 197 7 197 q 172 219 156 197 q 340 401 206 288 q 238 388 288 393 q 192 388 215 385 q 154 390 161 390 q 72 375 122 390 q 57 385 57 371 q 65 394 57 390 q 199 436 72 399 q 292 493 292 463 q 222 543 292 536 q 110 551 165 547 q 101 563 100 554 q 113 571 103 571 q 181 579 138 571 q 251 588 225 588 q 346 551 289 588 q 436 515 403 514 q 476 611 465 565 q 486 619 478 619 l 783 619 q 793 607 796 619 z "},"":{"ha":704,"x_min":-81,"x_max":796,"o":"m 792 957 l 701 688 q 692 679 699 679 l 392 682 q 382 697 374 682 l 413 768 l 389 768 q 326 788 364 768 q 263 807 289 807 q 201 786 225 807 q 194 783 199 783 q 183 794 183 783 q 188 803 183 800 q 275 839 233 839 q 309 836 285 839 q 344 833 333 833 q 385 860 385 833 q 340 878 385 868 q 268 911 288 889 q 264 921 264 915 q 274 931 264 931 q 281 928 278 931 q 328 908 307 908 q 368 913 344 908 q 407 918 392 918 q 460 908 424 918 l 481 967 q 490 974 483 974 l 782 969 q 792 957 796 969 m 685 619 q 472 -47 646 536 q 461 -53 469 -56 q 153 -50 350 -39 q 142 -47 146 -51 q 142 -37 139 -43 l 157 3 q 68 26 136 7 q -21 42 18 42 q -64 35 -39 42 q -78 40 -74 32 q -72 54 -81 49 q 49 75 -29 75 q 130 88 89 75 q 181 118 171 101 l 206 206 q 122 252 179 238 q 54 281 64 267 q 53 293 49 288 q 65 296 56 299 q 90 290 83 290 q 161 311 117 290 q 242 326 201 331 l 271 411 q 229 407 250 407 q 147 431 196 407 q 82 454 97 454 q 26 449 46 454 q 11 458 11 444 q 18 468 11 465 q 79 483 51 483 q 122 478 96 483 q 157 472 149 472 q 211 496 211 472 q 182 525 211 525 q 156 521 168 525 q 142 517 143 517 q 132 528 132 517 q 138 538 132 533 q 185 553 164 553 q 242 535 208 553 q 297 517 275 517 q 325 528 308 517 l 361 628 q 369 633 361 633 q 674 633 369 633 q 685 631 682 635 q 685 619 688 626 z "},"":{"ha":553,"x_min":22,"x_max":568,"o":"m 563 485 l 490 218 q 474 204 486 204 l 285 206 q 268 228 263 206 l 292 313 l 42 310 q 26 315 31 310 q 25 332 22 321 l 68 493 q 85 506 71 506 l 546 506 q 563 485 568 506 z "},"":{"ha":557,"x_min":-129,"x_max":633,"o":"m 629 950 l 586 792 q 574 782 583 782 q 497 774 519 782 q 458 725 467 761 l 414 513 l 547 513 q 557 499 561 513 l 525 404 q 514 394 522 394 l 389 394 l 300 -25 q 151 -228 268 -179 q -112 -260 75 -260 q -125 -243 -129 -260 l -82 -85 q -69 -75 -82 -75 q 4 -67 -17 -75 q 43 -18 35 -56 l 131 394 l 64 394 q 53 410 47 394 l 85 506 q 96 513 88 513 l 156 513 l 203 732 q 351 933 236 885 q 617 965 428 965 q 629 950 633 965 z "},"":{"ha":701,"x_min":32,"x_max":697,"o":"m 694 578 l 653 421 q 647 414 653 414 l 536 382 l 624 351 q 631 339 633 349 l 589 183 q 574 176 586 171 l 358 286 q 354 299 351 290 l 401 475 q 407 482 401 482 l 681 590 q 693 590 689 593 q 694 578 697 586 m 375 578 l 333 421 q 328 414 333 414 l 217 382 l 304 351 q 311 339 314 349 l 269 183 q 254 176 267 171 l 39 286 q 35 299 32 290 l 82 475 q 88 482 82 482 l 361 590 q 374 590 369 593 q 375 578 378 586 z "},"":{"ha":708,"x_min":32,"x_max":696,"o":"m 693 465 l 646 289 q 640 282 646 282 l 367 174 q 354 174 358 171 q 353 186 350 178 l 394 343 q 400 350 394 350 l 511 382 l 424 413 q 417 425 414 415 l 458 581 q 474 588 461 593 l 689 478 q 693 465 696 474 m 375 465 l 328 289 q 322 282 328 282 l 49 174 q 36 174 40 171 q 35 186 32 178 l 76 343 q 82 350 76 350 l 193 382 l 106 413 q 99 425 96 415 l 140 581 q 156 588 143 593 l 371 478 q 375 465 378 474 z "},"":{"ha":1417,"x_min":40,"x_max":1392,"o":"m 1392 161 q 1331 32 1392 85 q 1190 -21 1271 -21 q 1110 18 1139 -21 q 1050 31 1090 17 q 992 44 1010 44 q 967 42 976 44 q 958 46 960 40 q 963 54 957 51 q 1058 75 976 63 q 1118 121 1118 83 q 1090 168 1118 147 q 1039 189 1067 185 q 1032 196 1032 190 q 1039 203 1032 200 q 1106 204 1056 208 q 1165 213 1149 201 q 1286 253 1225 253 q 1360 226 1328 253 q 1392 161 1392 199 m 933 161 q 873 32 933 85 q 732 -21 813 -21 q 651 18 681 -21 q 592 31 632 17 q 533 44 551 44 q 508 42 518 44 q 500 46 501 40 q 504 54 499 51 q 600 75 518 63 q 660 121 660 83 q 632 168 660 147 q 581 189 608 185 q 574 196 574 190 q 581 203 574 200 q 647 204 597 208 q 707 213 690 201 q 828 253 767 253 q 901 226 869 253 q 933 161 933 199 m 475 161 q 415 32 475 85 q 274 -21 354 -21 q 193 18 222 -21 q 133 31 174 17 q 75 44 93 44 q 50 42 60 44 q 42 46 43 40 q 46 54 40 51 q 142 75 60 63 q 201 121 201 83 q 174 168 201 147 q 122 189 150 185 q 115 196 115 190 q 122 203 115 200 q 189 204 139 208 q 249 213 232 201 q 369 253 308 253 q 443 226 411 253 q 475 161 475 199 z "},"":{"ha":694,"x_min":0,"x_max":0,"o":""},"":{"ha":1311,"x_min":-6,"x_max":1379,"o":"m 1047 1018 q 1043 1013 1049 1013 l 944 1013 q 932 1022 935 1013 l 858 1246 q 863 1250 857 1250 l 990 1250 q 1003 1242 997 1250 l 1047 1018 m 1371 -11 q 1379 -21 1379 -12 q 1365 -31 1379 -35 q 1167 -8 1299 -12 q 910 -7 1125 -7 q 686 -17 829 -7 q 674 -8 675 -17 q 683 3 674 1 q 811 26 778 13 q 915 179 919 68 l 619 179 q 576 124 576 124 q 554 60 554 90 q 576 10 554 33 q 581 -3 582 3 q 568 -8 578 -8 l 7 -12 q -6 -4 -4 -12 q 4 8 -6 6 q 107 36 64 21 q 218 118 213 74 q 167 149 197 149 q 99 140 128 149 q 88 147 88 138 q 99 160 86 157 q 174 192 113 163 q 261 215 225 215 l 329 344 l 311 344 q 259 333 292 344 q 207 321 226 321 q 132 338 176 321 q 56 356 88 356 q 8 344 36 356 q -6 353 -6 339 q 3 364 -6 361 q 100 385 51 385 q 125 381 110 385 q 150 376 140 376 q 207 389 181 376 q 238 422 233 401 q 174 485 246 469 q 68 503 121 494 q 63 515 58 507 q 76 522 67 524 q 139 519 103 517 q 206 525 193 525 q 285 497 240 525 q 363 469 329 469 q 392 474 374 469 l 533 710 q 492 705 526 710 q 421 700 457 700 q 308 715 369 700 q 303 726 299 718 q 315 735 306 735 q 465 765 381 731 q 592 814 569 810 q 606 867 606 843 q 563 932 606 910 q 501 947 533 947 q 425 928 468 947 q 410 938 410 921 q 417 947 410 944 q 550 997 536 993 q 690 1014 610 1014 q 894 982 769 1014 q 1104 950 1019 950 q 1307 1013 1221 950 q 1321 1013 1315 1018 q 1321 999 1326 1007 q 1246 674 1246 886 q 1254 213 1246 288 q 1371 -11 1275 8 m 922 607 l 922 681 l 754 411 l 907 411 l 907 451 q 874 479 907 479 q 843 472 857 479 q 832 474 836 468 q 833 485 828 479 q 888 532 861 508 q 922 607 922 564 z "},"":{"ha":1311,"x_min":-6,"x_max":1379,"o":"m 1281 1146 q 1207 1053 1249 1094 q 1094 1003 1157 1003 q 1072 1004 1083 1003 q 1035 1024 1057 1007 q 993 1043 1014 1040 q 953 1029 967 1047 q 940 1013 949 1022 q 925 1006 938 1006 l 829 1006 q 819 1029 804 1008 q 892 1122 854 1086 q 1001 1168 939 1168 q 1026 1166 1013 1168 q 1065 1147 1040 1164 q 1108 1128 1089 1131 q 1150 1142 1136 1121 q 1164 1164 1154 1149 q 1181 1168 1171 1171 l 1271 1168 q 1281 1146 1296 1165 m 1371 -11 q 1379 -21 1379 -12 q 1365 -31 1379 -35 q 1167 -8 1299 -12 q 910 -7 1125 -7 q 686 -17 829 -7 q 674 -8 675 -17 q 683 3 674 1 q 811 26 778 13 q 915 179 919 68 l 619 179 q 576 124 576 124 q 554 60 554 90 q 576 10 554 33 q 581 -3 582 3 q 568 -8 578 -8 l 7 -12 q -6 -4 -4 -12 q 4 8 -6 6 q 107 36 64 21 q 218 118 213 74 q 167 149 197 149 q 99 140 128 149 q 88 147 88 138 q 99 160 86 157 q 174 192 113 163 q 261 215 225 215 l 329 344 l 311 344 q 259 333 292 344 q 207 321 226 321 q 132 338 176 321 q 56 356 88 356 q 8 344 36 356 q -6 353 -6 339 q 3 364 -6 361 q 100 385 51 385 q 125 381 110 385 q 150 376 140 376 q 207 389 181 376 q 238 422 233 401 q 174 485 246 469 q 68 503 121 494 q 63 515 58 507 q 76 522 67 524 q 139 519 103 517 q 206 525 193 525 q 285 497 240 525 q 363 469 329 469 q 392 474 374 469 l 533 710 q 492 705 526 710 q 421 700 457 700 q 308 715 369 700 q 303 726 299 718 q 315 735 306 735 q 465 765 381 731 q 592 814 569 810 q 606 867 606 843 q 563 932 606 910 q 501 947 533 947 q 425 928 468 947 q 410 938 410 921 q 417 947 410 944 q 550 997 536 993 q 690 1014 610 1014 q 894 982 769 1014 q 1104 950 1019 950 q 1307 1013 1221 950 q 1321 1013 1315 1018 q 1321 999 1326 1007 q 1246 674 1246 886 q 1254 213 1246 288 q 1371 -11 1275 8 m 922 607 l 922 681 l 754 411 l 907 411 l 907 451 q 874 479 907 479 q 843 472 857 479 q 832 474 836 468 q 833 485 828 479 q 888 532 861 508 q 922 607 922 564 z "},"":{"ha":1188,"x_min":8,"x_max":1249,"o":"m 1154 1181 q 1081 1088 1122 1129 q 968 1038 1031 1038 q 946 1039 957 1038 q 909 1058 931 1042 q 867 1078 888 1075 q 826 1064 840 1082 q 814 1047 822 1057 q 799 1040 811 1040 l 703 1040 q 693 1064 678 1043 q 765 1157 728 1121 q 875 1203 813 1203 q 900 1201 886 1203 q 938 1182 914 1199 q 982 1163 963 1165 q 1024 1176 1010 1156 q 1038 1199 1028 1183 q 1054 1203 1044 1206 l 1144 1203 q 1154 1181 1169 1200 m 1249 632 q 1042 159 1249 368 q 590 -50 835 -50 q 236 221 292 -50 q 154 244 203 243 q 69 243 199 243 q 58 253 58 243 q 68 264 57 263 q 196 326 140 269 q 193 443 182 381 q 61 464 126 464 q 22 463 42 464 q 10 471 11 461 q 19 482 8 481 q 128 515 63 486 q 219 542 189 542 q 301 726 246 614 q 218 760 265 750 q 210 771 208 761 q 219 779 210 781 q 307 806 307 771 q 249 838 307 838 q 224 835 239 838 q 199 833 208 833 q 158 840 188 833 q 151 851 149 843 q 164 860 154 861 q 249 874 196 857 q 335 892 303 892 q 397 881 364 892 q 456 857 426 868 q 908 1021 624 1021 q 1169 904 1081 1021 q 1249 632 1249 801 m 890 626 q 869 678 890 654 q 822 701 849 701 q 656 597 736 701 q 576 399 576 492 q 601 338 576 364 q 661 311 625 311 q 718 340 718 311 q 681 358 718 363 q 671 367 672 357 q 675 379 669 376 q 792 404 733 392 q 857 474 857 419 q 782 513 857 513 q 718 515 754 513 l 694 517 q 685 525 685 518 q 696 536 685 533 q 801 551 726 538 q 890 626 890 576 z "},"":{"ha":1711,"x_min":-33,"x_max":1829,"o":"m 1825 982 q 1671 693 1778 903 q 1661 688 1669 685 q 1554 700 1589 700 q 1319 692 1374 700 l 1271 596 l 1586 618 q 1599 614 1596 618 q 1596 601 1601 608 q 1550 526 1571 565 q 1481 338 1500 433 q 1468 329 1478 326 q 1288 350 1382 350 q 1174 344 1218 350 l 1119 240 q 1250 236 1183 236 q 1560 282 1481 236 q 1572 282 1568 286 q 1574 268 1578 276 q 1494 -31 1506 125 q 1482 -40 1493 -42 q 954 -8 1201 -8 q 819 -15 907 -8 q 681 -25 722 -24 q 521 -50 601 -50 q 269 61 361 -50 q 194 228 207 138 q 113 251 161 250 q 28 250 157 250 q 17 260 17 250 q 26 271 15 269 q 154 333 99 276 q 151 450 140 388 q 19 471 85 471 q -19 469 0 471 q -32 478 -31 468 q -22 489 -33 488 q 86 522 21 493 q 178 549 147 549 q 267 726 207 618 q 183 760 231 750 q 175 771 174 761 q 185 779 175 781 q 272 806 272 771 q 214 838 272 838 q 189 835 204 838 q 164 833 174 833 q 124 840 153 833 q 117 851 114 843 q 129 860 119 861 q 215 874 161 857 q 300 892 268 892 q 414 864 338 892 q 560 964 510 939 q 839 1021 676 1021 q 1003 985 935 1021 q 1463 965 1229 965 q 1814 996 1585 965 q 1825 993 1821 997 q 1825 982 1829 988 m 821 626 q 800 678 821 654 q 753 701 779 701 q 587 597 667 701 q 507 399 507 492 q 531 338 507 364 q 592 311 556 311 q 649 340 649 311 q 611 358 649 363 q 601 367 603 357 q 606 379 600 376 q 722 404 664 392 q 788 474 788 419 q 713 513 788 513 q 649 515 685 513 l 625 517 q 615 525 615 518 q 626 536 615 533 q 732 551 657 538 q 821 626 821 576 z "},"":{"ha":1604,"x_min":-49,"x_max":1575,"o":"m 1575 472 q 1557 299 1575 410 q 1547 289 1554 289 l 1103 289 q 1140 217 1101 242 q 1222 196 1174 196 q 1426 256 1349 196 q 1440 257 1435 263 q 1442 242 1446 251 q 1404 44 1422 201 q 1400 36 1404 39 q 1131 -44 1296 -44 q 843 60 926 -44 q 500 -53 681 -53 q 229 122 322 -53 q 201 129 226 129 q 138 110 186 129 q 61 92 90 92 q 35 96 49 92 q 6 104 13 103 q -1 114 -1 106 q 13 124 -1 129 q 33 121 21 121 q 93 135 65 121 q 126 178 126 151 q 110 207 126 196 q 72 218 93 218 q 17 213 54 218 q -39 211 -14 208 q -47 222 -49 213 q -36 231 -47 232 q 49 255 -12 228 q 163 282 111 282 q 211 278 186 282 q 235 340 218 306 q 114 378 203 374 q -10 410 21 382 q -14 424 -17 417 q 0 426 -10 431 q 50 413 36 413 q 151 445 92 413 q 253 478 211 478 q 303 474 271 478 q 364 543 324 504 q 342 553 353 553 q 299 546 325 553 q 256 539 272 539 q 210 544 250 539 q 201 556 200 546 q 213 564 203 565 q 285 576 242 558 q 329 608 329 594 q 282 628 329 626 q 222 626 253 626 q 175 635 197 628 q 168 646 165 638 q 181 654 171 656 q 215 653 199 653 q 354 679 288 653 q 433 706 421 706 q 483 690 456 706 q 529 669 511 674 q 789 738 669 738 q 1007 650 922 738 q 1300 740 1188 740 q 1492 671 1415 740 q 1575 472 1575 596 m 1338 479 q 1324 523 1338 504 q 1288 542 1310 542 q 1151 450 1224 542 l 1328 447 q 1338 479 1338 467 m 758 461 q 733 488 758 488 q 607 421 671 488 q 540 274 540 350 q 553 228 540 250 q 588 207 567 207 q 671 247 628 207 q 710 313 710 286 q 697 329 710 329 q 665 326 672 329 q 650 322 657 322 q 626 346 626 322 q 638 365 626 358 q 714 394 676 381 q 758 461 758 414 z "},"":{"ha":542,"x_min":19,"x_max":535,"o":"m 529 404 l 507 326 q 490 313 503 313 l 43 313 q 26 335 19 313 l 49 413 q 65 425 53 425 l 513 425 q 529 404 535 425 z "},"":{"ha":882,"x_min":19,"x_max":924,"o":"m 918 404 l 896 326 q 879 313 892 313 l 43 313 q 26 335 19 313 l 49 413 q 65 425 53 425 l 901 425 q 918 404 924 425 z "},"":{"ha":688,"x_min":114,"x_max":699,"o":"m 699 942 q 631 883 649 901 q 579 807 590 844 q 624 789 600 807 q 650 735 650 767 q 582 607 650 651 q 485 576 535 576 q 425 604 449 576 q 401 668 401 632 q 667 975 401 860 l 699 942 m 411 942 q 343 883 361 901 q 292 807 303 844 q 336 789 313 807 q 363 735 363 767 q 294 607 363 651 q 197 576 247 576 q 138 604 161 576 q 114 668 114 632 q 379 975 114 860 l 411 942 z "},"":{"ha":701,"x_min":140,"x_max":722,"o":"m 722 881 q 457 574 722 689 l 425 607 q 493 665 475 647 q 544 742 533 704 q 501 760 524 742 q 474 814 474 782 q 542 942 474 897 q 639 972 589 972 q 699 945 675 972 q 722 881 722 918 m 438 881 q 172 574 438 689 l 140 607 q 208 665 190 647 q 260 742 249 704 q 217 760 239 742 q 189 814 189 782 q 257 942 189 897 q 354 972 304 972 q 414 945 390 972 q 438 881 438 918 z "},"":{"ha":453,"x_min":114,"x_max":411,"o":"m 411 942 q 343 883 361 901 q 292 807 303 844 q 336 789 313 807 q 363 735 363 767 q 294 607 363 651 q 197 576 247 576 q 138 604 161 576 q 114 668 114 632 q 379 975 114 860 l 411 942 z "},"":{"ha":453,"x_min":140,"x_max":438,"o":"m 438 881 q 172 574 438 689 l 140 607 q 208 665 190 647 q 260 742 249 704 q 217 760 239 742 q 189 814 189 782 q 257 942 189 897 q 354 972 304 972 q 414 945 390 972 q 438 881 438 918 z "},"":{"ha":600,"x_min":7,"x_max":593,"o":"m 461 660 q 423 577 461 611 q 333 543 385 543 q 293 558 315 543 q 271 592 271 572 q 322 690 271 651 q 394 719 361 719 q 441 701 421 719 q 461 660 461 683 m 588 485 l 544 324 q 528 310 540 310 l 29 310 q 13 332 7 310 l 56 493 q 72 506 58 506 l 571 506 q 588 485 593 506 m 349 206 q 310 123 349 157 q 221 89 272 89 q 181 103 203 89 q 158 138 158 118 q 210 236 158 197 q 282 265 249 265 q 328 247 308 265 q 349 206 349 229 z "},"":{"ha":899,"x_min":-201,"x_max":1175,"o":"m 942 865 q 906 786 942 818 q 821 754 869 754 q 782 768 803 754 q 761 800 761 782 q 810 894 761 857 q 879 922 849 922 q 922 905 903 922 q 942 865 942 888 m 711 865 q 675 786 711 818 q 590 754 639 754 q 551 768 572 754 q 531 800 531 782 q 579 894 531 857 q 647 922 617 922 q 692 905 672 922 q 711 865 711 888 m 1169 711 l 656 -42 q 458 -233 564 -176 q 178 -294 347 -294 q 47 -276 121 -294 q 40 -262 35 -274 l 68 -175 q 51 -169 58 -169 q 8 -181 35 -169 q -36 -192 -19 -192 q -82 -182 -54 -192 q -89 -172 -89 -179 q -74 -162 -89 -157 q -60 -165 -67 -165 q -26 -151 -42 -165 q -10 -119 -10 -137 q -35 -103 -10 -103 q -73 -107 -46 -103 q -112 -111 -100 -111 q -192 -103 -132 -111 q -201 -92 -201 -101 q -190 -83 -201 -83 q -96 -65 -144 -85 q -15 -46 -47 -46 q 90 -56 26 -46 q 193 -67 153 -67 q 288 -26 246 -67 q 328 74 329 15 q 272 82 310 75 q 142 89 192 100 q 128 93 132 88 q 131 106 124 100 q 200 131 146 119 q 281 161 254 142 q 192 194 253 168 q 111 214 147 213 q -19 196 44 217 q -33 201 -29 193 q -26 214 -36 210 q 149 258 68 258 q 199 256 167 258 q 250 253 231 253 q 331 293 281 253 l 325 410 q 208 433 281 433 q 147 421 182 433 q 135 424 139 418 q 138 438 132 431 q 199 465 154 457 q 286 482 243 474 q 198 542 242 513 q 111 572 154 572 q 57 563 86 572 q 44 567 47 558 q 50 581 40 576 q 114 599 89 599 q 188 587 143 599 q 261 575 232 575 q 333 614 290 575 l 336 693 q 346 703 336 704 q 528 700 374 700 q 651 715 564 700 q 663 714 658 717 q 663 703 665 710 q 642 399 629 613 q 756 571 699 479 q 807 658 807 653 q 797 664 807 663 q 781 665 783 664 q 771 675 771 668 q 781 685 771 682 q 897 710 850 710 q 958 706 924 710 q 1014 701 992 701 q 1157 726 1076 701 q 1171 724 1167 729 q 1169 711 1175 718 z "}}}
